<?xml version="1.0" standalone="no"?>
<!DOCTYPE svg PUBLIC "-//W3C//DTD SVG 1.1//EN" "http://www.w3.org/Graphics/SVG/1.1/DTD/svg11.dtd" >
<svg>
<metadata>
Created by FontForge 20090914 at Thu Aug  4 03:59:41 2016
 By www-data
Copyright (c) 1996 enStep Incorporated. All Rights Reserved.
</metadata>
<defs>
<font id="RADAGUND" horiz-adv-x="154" >
  <font-face 
    font-family="RADAGUND"
    font-weight="400"
    font-stretch="normal"
    units-per-em="1000"
    panose-1="0 0 4 0 0 0 0 0 0 0"
    ascent="800"
    descent="-200"
    x-height="272"
    cap-height="692.999"
    bbox="-260.003 -387.999 1548 923.993"
    underline-thickness="34"
    underline-position="-39"
    unicode-range="U+0020-U+011C"
  />
<missing-glyph horiz-adv-x="500" 
d="M63 0v917h375v-917h-375zM125 63h250v792h-250v-792z" />
    <glyph glyph-name=".notdef" horiz-adv-x="500" 
d="M63 0v917h375v-917h-375zM125 63h250v792h-250v-792z" />
    <glyph glyph-name="space" unicode=" " horiz-adv-x="315" 
 />
    <glyph glyph-name="exclam" unicode="!" horiz-adv-x="106" 
d="M34 134l-15 4.99902c0 45.333 1.66699 96.333 5 153c8 136.667 12 222.334 12 257.001l17 9l17 -8c0 -43.333 -2.33301 -115.333 -7 -216c-6 -116 -11.667 -181 -17 -195zM17 -6.00098c-10.667 0 -17.667 5.66699 -21 17c18.667 15.333 32 23 40 23
c13.333 0 20 -6.66699 20 -20s-8.33301 -20 -25 -20h-14z" />
    <glyph glyph-name="quotedbl" unicode="&#x22;" horiz-adv-x="266" 
d="M127 354c-7.33301 0 -17 6 -29 18c29.333 4 52.333 20 69 48c4 8.66699 15.333 36.334 34 83.001c-16 34 -24 54 -24 60c0 8.66699 4 13 12 13c12.667 0 27 -8 43 -24c3.33301 -13.333 5 -26 5 -38c0 -44.667 -18.667 -89.334 -56 -134.001
c-4 -1.33301 -13 -6.33301 -27 -15c-10.667 -7.33301 -19.667 -11 -27 -11zM-11 359c30.667 7.33301 54.3311 24 70.998 50c6 9.33301 18 37 36 83c-13.333 28 -20 46 -20 54c0 6 1.33301 12.667 4 20c22.667 -7.33301 36.834 -14.5 42.501 -21.5s8.5 -21.833 8.5 -44.5
c0 -30.667 -8.33301 -60 -25 -88s-38.667 -49.333 -66 -64c-5.33301 -3.33301 -11 -5 -17 -5c-9.33301 0 -20.666 5.33301 -33.999 16z" />
    <glyph glyph-name="numbersign" unicode="#" horiz-adv-x="388" 
d="M333 393c-33.333 -14 -55.335 -27.332 -66.002 -39.999c-14.667 -16 -22 -39.667 -22 -71v-33c0 -12 0.333008 -24.667 1 -38l3 -1c12 6 26.667 11.667 44 17l40 11l6 -20c-30 -11.333 -61.667 -26.333 -95 -45c0 -58.667 -5 -102.667 -15 -132l5 -11l-12 -36l-24 8
c12.667 38 19 87.667 19 149l-6 10c-9.33301 -3.33301 -21.333 -10.333 -36 -21c0 -10.667 -4.33301 -38.334 -13 -83.001c-4 -20.667 -6 -37.667 -6 -51c-7.33301 -2.66699 -16 -4 -26 -4l-6 12c12.667 32.667 19 61.334 19 86.001l-4 23
c-25.333 -6.66699 -79 -34.334 -161 -83.001c16.667 20 37 38 61 54c66.667 44.667 103 70 109 76c0 12 3 34.667 9 68c3.33301 18.667 5 32.667 5 42l-3 27l-3 4c-26 -11.333 -57.667 -26.333 -95 -45l-57 -29c16 29.333 39 52.666 69 69.999
c10.667 6 40.334 21.667 89.001 47c-4 44.667 -6 69.667 -6 75l2 39c6 2.66699 13.667 4 23 4h4v-63c0 -20.667 1.66699 -36 5 -46c8 0 16 2.33301 24 7c3.33301 2 10 7 20 15c0 20 1 44 3 72c4.66699 64.667 7 105.334 7 122.001c8.66699 -18 14.334 -36.333 17.001 -55
l4 -3v-59c0 -20 0.333008 -40 1 -60c45.333 8.66699 74 13 86 13l15 -2c-3.33301 -16 -12.333 -27.667 -27 -35zM194.998 319.001l-11.001 -135l32 17c0 15.333 1.5 37.833 4.5 67.5s4.5 51.5 4.5 65.5c-3.33301 0.666992 -8.66602 -1.33301 -15.999 -6z" />
    <glyph glyph-name="dollar" unicode="$" horiz-adv-x="389" 
d="M388 406c0 26.667 -15.668 40 -47.001 40c-38.667 0 -83 -21.333 -133 -64v-11l3 -41c6 -4.66699 25 -11.667 57 -21c48.667 -14 73 -48.667 73 -104c0 -35.333 -15.667 -75.666 -47 -120.999c-34 -49.333 -67.333 -74 -100 -74c-11.333 -11.333 -46 -17 -104 -17
c-18.667 0 -35 10.667 -49 32c-12 19.333 -18 39 -18 59c0 24 11.667 38.333 35 43l5 -10c-5.33301 -6.66699 -8 -17.667 -8 -33c0 -37.333 28.333 -56 85 -56c36 0 54 13.333 54 40c0 16.667 -5.33301 52.667 -16 108s-19 89.333 -25 102
c-11.333 0 -28.166 -5.5 -50.499 -16.5s-38.833 -16.5 -49.5 -16.5c-12 0 -25.333 5.66699 -40 17c13.333 26 39.666 56.333 78.999 91l55 48v19c0 16.667 1 33.667 3 51c6 51.333 9 80 9 86c12.667 0 27.667 -4.66699 45 -14l-22 -4l-3 -3l27 -93c82 24.667 132 37 150 37
c21.333 0 40.333 -6 57 -18s25 -28.333 25 -49c0 -16 -4.33301 -32.333 -13 -49c-1.33301 -2.66699 -10.666 -17 -27.999 -43c-6.66699 13.333 -10 28.666 -10 45.999v18c0 6.66699 0.333008 13.667 1 21zM137.999 322c10.667 1.33301 16.334 6 17.001 14
c-8.66699 -4 -14.334 -8.66699 -17.001 -14zM225.999 282c0 -80 5 -138.667 15 -176c34.667 38 52 70.333 52 97c0 14.667 -7 31.667 -21 51s-28 29 -42 29z" />
    <glyph glyph-name="percent" unicode="%" horiz-adv-x="288" 
d="M86 528c0 5.33301 2.33301 9.66699 7 13c10 0 15 -4 15 -12v-10l-9 -7c-8.66699 0 -13 5.33301 -13 16zM46 350.001c-9.33301 0 -17.6689 4.6709 -25.002 14.0039s-11 18.666 -11 27.999c0 15.333 7.66699 39.666 23 72.999s29 53 41 59l12 -3l4 -11l24 -2
c10.667 -0.666992 20 2.66602 28 9.99902c40 6.66699 64 11 72 13c26.667 6 49.334 15 68.001 27c10 0 18.333 -4.33301 25 -13c0 -6.66699 -28.667 -78.667 -86 -216c-22.667 -55.333 -36.334 -90.333 -41.001 -105l-65 -223c-5.33301 -4 -10.666 -6 -15.999 -6l-10 1
l-3 15c0 -4 3 9 9 39c6.66699 5.33301 11.334 15 14.001 29l9 45c14.667 42 31 86.333 49 133l105 266l-3 1l-68 -22c-21.333 -6.66699 -44.666 -12.334 -69.999 -17.001l-4 -34l6 -8l-10 -9c-16.667 -56 -42.334 -84 -77.001 -84zM246.997 203.005c8 0 12 -3.33301 12 -10
c-2 -5.33301 -3.33301 -9 -4 -11l-5 -10c-1.33301 -5.33301 -10.333 -8 -27 -8c4.66699 14 7.33398 21.667 8.00098 23c5.33301 10.667 10.666 16 15.999 16zM248.997 50.0049c-26 0 -38.999 15.9971 -38.999 47.9971c0 26 2.66699 46 8 60c0.666992 3.33301 8 8 22 14
l3 -20c0 -5.33301 -1.16699 -13.666 -3.5 -24.999s-3.5 -19.666 -3.5 -24.999c0 -9.33301 4 -16.666 12 -21.999c32.667 20.667 49 58.667 49 114l4 5c-6.66699 7.33301 -13 15 -19 23c0 10 6.66699 15 20 15c16 0 24 -13.333 24 -40c0 -10.667 -3.66699 -26.167 -11 -46.5
s-11 -35.833 -11 -46.5c0 -5.33301 0.333008 -9.33301 1 -12c-24.667 -28 -43.334 -42 -56.001 -42zM79.998 479.002l-21.001 -45c-8.66699 -20 -13 -35.667 -13 -47l5 -5c14.667 0 26.334 11.667 35.001 35c7.33301 18 11 35.667 11 53z" />
    <glyph glyph-name="ampersand" unicode="&#x26;" horiz-adv-x="255" 
d="M163 230c0 -25.333 10.002 -55.668 30.002 -91.001c22.667 -40 44.667 -60 66 -60l25 28c3.33301 -4.66699 5 -9.66699 5 -15c0 -15.333 -9.33301 -30.333 -28 -45c-14.667 4 -28.667 11.667 -42 23c-37.333 32 -57.333 48.667 -60 50
c-7.33301 -4.66699 -11.333 -10.334 -12 -17.001l5 -3c-20.667 -37.333 -34 -59.666 -40 -66.999c-20 -26 -41 -39 -63 -39c-26 0 -39 23 -39 69c0 65.333 13.333 130.333 40 195c-28.667 45.333 -43 94.333 -43 147c0 86 35.333 137 106 153
c16 -5.33301 26.667 -10.666 32 -15.999c7.33301 -7.33301 11 -18.666 11 -33.999c0 1.33301 -2.33301 -14.334 -7 -47.001l-24 -4c-3.33301 6.66699 -5 16 -5 28v21l-1 14l-6 6c-26.667 0 -47.334 -15 -62.001 -45c-12 -24 -18 -51 -18 -81c0 -38 9.33301 -70.667 28 -98
c14.667 14.667 22 30.334 22 47.001c4.66699 5.33301 10 12 16 20c3.33301 4 7.66602 11.667 12.999 23l-3 9c10 11.333 16.333 21.666 19 30.999l11 -3c-7.33301 -28 -16 -54.333 -26 -79l-33 -78c16 -30 36.667 -56.667 62 -80l1 12l12 -1l-1 -5zM75.002 218.998
c-8 -8.66699 -15.667 -31.001 -23 -67.001c-6.66699 -32 -10 -56.667 -10 -74c0 -15.333 2.33301 -29.666 7 -42.999c23.333 0 43.333 21 60 63c2.66699 7.33301 8.66699 25 18 53c-9.33301 4 -13 11.333 -11 22z" />
    <glyph glyph-name="quotesingle" unicode="'" horiz-adv-x="247" 
d="M40 387c29.333 6.66699 54.333 24.001 75 52.001c9.33301 13.333 20.333 33 33 59c14 30 21 51.333 21 64c0 6.66699 -5.66699 25 -17 55c-6 16 -9 28.333 -9 37c28 -8.66699 45.5 -17.334 52.5 -26.001s10.5 -27 10.5 -55c0 -74.667 -32 -134.667 -96 -180l-25 -17
c-6.66699 -3.33301 -13 -5 -19 -5c-8 0 -16.667 5.33301 -26 16z" />
    <glyph glyph-name="parenleft" unicode="(" horiz-adv-x="143" 
d="M94 -6c-32.667 0 -59.332 36.334 -79.999 109.001c-15.333 54 -23 105 -23 153c0 101.333 24.667 184.666 74 249.999c0 27.333 7.66699 43 23 47l6 -14l-5 9c5.33301 2.66699 10.666 5 15.999 7c9.33301 4 15.333 7 18 9c-63.333 -125.333 -95 -236.333 -95 -333
c0 -50.667 6 -91 18 -121s35.667 -62.667 71 -98l-4 -15z" />
    <glyph glyph-name="parenright" unicode=")" horiz-adv-x="213" 
d="M36 -6l-21 1.99902c78 68 117 155.333 117 262c0 76.667 -16.333 134.334 -49 173.001l-98 115l9 14c112 -64 168 -176.333 168 -337c0 -20 -4.5 -45.167 -13.5 -75.5s-18.833 -53.833 -29.5 -70.5c-2 -0.666992 -17.667 -20.667 -47 -60
c-11.333 -15.333 -23.333 -23 -36 -23z" />
    <glyph glyph-name="asterisk" unicode="*" horiz-adv-x="161" 
d="M138 383c0 -8 -6.33594 -12 -19.0029 -12l-14 32c-6 -13.333 -9 -30.333 -9 -51l7 -18c-3.33301 -6.66699 -8 -10 -14 -10c-3.33301 0 -9.16602 3.83301 -17.499 11.5s-13.166 13.167 -14.499 16.5c6.66699 8.66699 10 18.667 10 30c0 5.33301 -0.333008 12.833 -1 22.5
s-1 17.167 -1 22.5v12l-9 1c-5.33301 0 -15.333 -2.33301 -30 -7c-8.66699 -2.66699 -15 -4 -19 -4l-9 1v13l64 26c-1.33301 3.33301 -7.83301 10 -19.5 20s-17.5 19 -17.5 27l2 16c8.66699 -4 15 -7.66699 19 -11c2 -1.33301 8.33301 -6 19 -14l-1 25
c-0.666992 16 8 24 26 24c0.666992 -2 1 -6.66699 1 -14v-26c0 -8.66699 1 -18 3 -28c6 20.667 11.333 33.667 16 39c6 8 18 15 36 21c-5.33301 -11.333 -10 -23.333 -14 -36l-12 -38c3.33301 -2.66699 8.33301 -4 15 -4c6 0 14.333 1.66699 25 5
c14.667 4 23.334 6.33301 26.001 7c-2 -14.667 -14.667 -25.667 -38 -33c-12.667 -4 -23 -6.66699 -31 -8c14 -24.667 21 -44 21 -58z" />
    <glyph glyph-name="plus" unicode="+" horiz-adv-x="376" 
d="M223 70c0 -35.333 -11.334 -61.334 -34.001 -78.001c-18.667 24 -28 58.667 -28 104v30v15c0.666992 7.33301 1 12.666 1 15.999c0.666992 24.667 -4.66602 41.667 -15.999 51c-6 4.66699 -18.5 8.33398 -37.5 11.001s-32.5 8 -40.5 16c-22 -13.333 -35.667 -20 -41 -20
c-8.66699 2 -15 3.33301 -19 4c12.667 14 28.667 26 48 36c12.667 6.66699 44.334 18 95.001 34c0 91.333 9.33301 180.333 28 267l17 2c15.333 0 29.666 -6.66699 42.999 -20l3 -12c-4.66699 -7.33301 -13 -15.666 -25 -24.999c1.33301 -8 2 -16 2 -24v-26
c0 -18 -0.333008 -37.333 -1 -58l-1 -36c0 -29.333 4.66699 -55.666 14 -78.999c11.333 -2.66699 25 -4 41 -4c17.333 0 43.333 2.66699 78 8s60.667 8 78 8c-13.333 -24.667 -39.333 -43 -78 -55l-96 -24c-30.667 -10 -46 -26.667 -46 -50
c0 -8.66699 3.33301 -27.334 10 -56.001c3.33301 -14 5 -25.667 5 -35z" />
    <glyph glyph-name="comma" unicode="," horiz-adv-x="158" 
d="M-8 -53l67 147h65l-67 -147h-65z" />
    <glyph glyph-name="hyphen" unicode="-" horiz-adv-x="249" 
d="M1 241h202v-59h-202v59z" />
    <glyph glyph-name="period" unicode="." horiz-adv-x="106" 
d="M0 94h64v-100h-64v100z" />
    <glyph glyph-name="slash" unicode="/" horiz-adv-x="261" 
d="M-25 -96l207 621h60l-208 -621h-59z" />
    <glyph glyph-name="zero" unicode="0" horiz-adv-x="402" 
d="M34 92c0 62.667 26.6689 127.002 80.002 193.002c55.333 69.333 113.666 104 174.999 104c52.667 0 79 -28.333 79 -85c0 -64.667 -26.667 -131.334 -80 -200.001c-56.667 -73.333 -116.334 -110 -179.001 -110c-26 0 -45.333 10.333 -58 31
c-11.333 17.333 -17 39.666 -17 66.999zM85.002 34.002c5.33301 -10.667 14.001 -16.001 26.001 -16.001c34 0 76.333 42.333 127 127c48 80.667 72 141 72 181c0 29.333 -7.33301 44 -22 44c-38 0 -81 -46.667 -129 -140
c-40.667 -79.333 -65.334 -144.666 -74.001 -195.999z" />
    <glyph glyph-name="one" unicode="1" horiz-adv-x="402" 
d="M139 221c26 28 54.334 56.667 85.001 86l90 82l31 1l-83 -115c-35.333 -50 -60 -90.667 -74 -122c-3.33301 -6.66699 -19 -46.334 -47 -119.001c-6.66699 -11.333 -17 -16.666 -31 -15.999c-18 0.666992 -25.333 1 -22 1c-12 0 -18.667 -6.66699 -20 -20l-11 3
c20 73.333 73 164 159 272c-6.66699 -6.66699 -15.834 -15.167 -27.501 -25.5s-28.167 -19.5 -49.5 -27.5z" />
    <glyph glyph-name="two" unicode="2" horiz-adv-x="402" 
d="M114 69c12 0 34.001 -3.00195 66.001 -9.00195c18 -3.33301 31.667 -5 41 -5c24 0 47 15.333 69 46c0 -28 -10.167 -52.833 -30.5 -74.5s-44.5 -32.5 -72.5 -32.5c-12.667 0 -27 1.66699 -43 5c-38 8 -62 12 -72 12c-17.333 0 -35 -5.66699 -53 -17
c-5.33301 5.33301 -8 9.33301 -8 12c0 28 27.667 59.333 83 94l154 96c56 38.667 84 81.334 84 128.001c0 10 -6.83301 19.5 -20.5 28.5s-25.834 13.5 -36.501 13.5c-14.667 0 -30.167 -6.66699 -46.5 -20s-24.166 -27 -23.499 -41l1 -22
c5.33301 -4 11.666 -6.66699 18.999 -8l9 10l-7 21l15 8c23.333 -5.33301 35 -18.666 35 -39.999c0 -12 -4.33301 -21.333 -13 -28c-4 -3.33301 -14.333 -8 -31 -14c-34.667 6 -52 24 -52 54c0 32 12.667 57.667 38 77c23.333 17.333 51.666 26 84.999 26
c58 0 87 -33.333 87 -100c0 -36.667 -21.333 -68.667 -64 -96c-21.333 -14 -65.666 -35 -132.999 -63c-57.333 -24 -95 -46 -113 -66c10.667 1.33301 21.667 3 33 5z" />
    <glyph glyph-name="three" unicode="3" horiz-adv-x="402" 
d="M269 151c0 -46 -18.668 -84.001 -56.001 -114.001c-34.667 -28 -75.667 -42 -123 -42c-57.333 0 -86 26.667 -86 80c0 22 5.33301 41 16 57c12 18.667 28.333 28 49 28c11.333 0 22.666 -4.5 33.999 -13.5s17 -19.167 17 -30.5s-3.33301 -22.166 -10 -32.499
s-15.334 -15.5 -26.001 -15.5c-13.333 0 -27 7.66699 -41 23c12 2.66699 19 4.66699 21 6c6.66699 4 10 10 10 18c-8 4.66699 -14.333 7 -19 7c-11.333 0 -20.166 -5.5 -26.499 -16.5s-9.5 -22.5 -9.5 -34.5c0 -8.66699 5.33301 -18.167 16 -28.5s20.334 -15.5 29.001 -15.5
c36 0 69.167 15.333 99.5 46s45.5 64 45.5 100c0 16 -6 26.333 -18 31c-6.66699 2.66699 -20 4 -40 4c-6.66699 -2.66699 -18.334 -10.667 -35.001 -24l-1 27c41.333 24.667 96 61 164 109c-31.333 8.66699 -55.666 13 -72.999 13c-22 0 -49.333 -11.333 -82 -34
c8 21.333 21.667 41 41 59c21.333 20.667 42.333 31 63 31c12.667 0 27.334 -2 44.001 -6c38.667 -9.33301 63 -14 73 -14c16 0 31.333 4.66699 46 14l7 -9c-18 -16 -42 -33.333 -72 -52c-74 -46.667 -116.333 -74 -127 -82c46.667 -11.333 70 -41 70 -89z" />
    <glyph glyph-name="four" unicode="4" horiz-adv-x="402" 
d="M158 121c16 18 40 46.666 72 85.999c50 61.333 92.667 107.333 128 138c-53.333 -70 -97.333 -141.667 -132 -215l25 -2c8 -0.666992 25 2.66602 51 9.99902c-5.33301 -10.667 -9.33301 -18.334 -12 -23.001c-8 -12.667 -19.333 -19 -34 -19l-2 2
c-34.667 -5.33301 -54.334 -14.666 -59.001 -27.999c-10 -28.667 -19.667 -48 -29 -58l-29 1c-14 0.666992 -30.667 -21.333 -50 -66c11.333 48.667 31 97.334 59 146.001c-8 6 -23 9 -45 9c-19.333 0 -32.333 1.66699 -39 5c-12 6 -18 18.667 -18 38l132 107
c48 40 87.333 81 118 123h13c20.667 0 33.667 4 39 12l10 -6c-18.667 -36 -46.667 -67.333 -84 -94l-108 -71c-41.333 -27.333 -72.666 -55.666 -93.999 -84.999c12 -6.66699 32 -10 60 -10h28z" />
    <glyph glyph-name="five" unicode="5" horiz-adv-x="402" 
d="M190 263c62.667 0 94.001 -35.333 94.001 -106c0 -42.667 -19.5 -80.5 -58.5 -113.5s-80.167 -49.5 -123.5 -49.5c-21.333 0 -41.333 7.66699 -60 23s-28 33.333 -28 54c0 16 7.33301 31.333 22 46s30 22 46 22c30 0 45 -15.667 45 -47c0 -6 -2.83301 -13.5 -8.5 -22.5
s-11.5 -13.167 -17.5 -12.5l-35 3l-1 25l12 -2l8 8l-12 18c-25.333 -5.33301 -38 -19.333 -38 -42c0 -14 5 -25.5 15 -34.5s22 -13.5 36 -13.5c32 0 63.667 19.667 95 59c29.333 38 44 73.333 44 106c0 36 -15.667 54 -47 54c-10 0 -19.333 -3 -28 -9
c-4 -2.66699 -16.667 -15.334 -38 -38.001v28h7c8.66699 10 21.667 34.667 39 74c26 57.333 58.667 86 98 86c6.66699 0 14.667 -1.33301 24 -4c22 -6 35.333 -9 40 -9c11.333 0 26 6 44 18c2.66699 1.33301 6.5 3.83301 11.5 7.5l11.5 8.5c-14.667 -30 -27 -49.333 -37 -58
c-14 -12.667 -35 -19 -63 -19h-23h-13c-6 0.666992 -10.333 1 -13 1c-18.667 0.666992 -36.334 -5.66602 -53.001 -18.999s-25 -29.333 -25 -48c10 4 20 6 30 6z" />
    <glyph glyph-name="six" unicode="6" horiz-adv-x="402" 
d="M283 328l13.0029 20.001c7.33301 -6.66699 14.666 -13 21.999 -19c7.33301 0 11 7.66699 11 23v8c-6.66699 6.66699 -22.334 10 -47.001 10c-16.667 0 -39 -17.667 -67 -53c-22.667 -28 -39.667 -53.333 -51 -76c6 0 14.667 2 26 6s19.333 6 24 6
c18.667 0 35 -8.5 49 -25.5s21 -34.833 21 -53.5c0 -46.667 -15.333 -87.667 -46 -123c-32 -38 -70.667 -57 -116 -57c-25.333 0 -44 8 -56 24c-2 2.66699 -11 22 -27 58c8.66699 79.333 34 148.666 76 207.999c49.333 70 110.666 105 183.999 105
c42.667 0 64 -15.667 64 -47c0 -35.333 -17 -53 -51 -53c-6 0 -12 5 -18 15c-6 12.667 -9.66699 20.667 -11 24zM212.003 224.001c-42 0 -70.332 -20.999 -84.999 -62.999l-34 -112c4 -20.667 10.333 -31 19 -31c25.333 0 51.166 23.167 77.499 69.5
s38.833 82.166 37.5 107.499l-1 16z" />
    <glyph glyph-name="seven" unicode="7" horiz-adv-x="402" 
d="M295 328c-9.33301 0 -23.1631 1.33105 -41.4961 3.99805s-32.166 4 -41.499 4c-22.667 0 -41.667 -8.66699 -57 -26h-23c19.333 28 31.666 45 36.999 51c17.333 18.667 35.333 28 54 28c10 0 28 -3 54 -9c14.667 -3.33301 25.667 -5 33 -5
c27.333 0 52.666 7.33301 75.999 22c-8.66699 -28 -33.334 -64.333 -74.001 -109l-120 -131c-46.667 -51.333 -79.334 -97.666 -98.001 -138.999c-3.33301 -1.33301 -15.333 -3 -36 -5c-16.667 -2 -27.667 -7.33301 -33 -16l-10 5c32.667 76.667 97.667 155.334 195 236.001
l120 98c-6.66699 -5.33301 -18.334 -8 -35.001 -8z" />
    <glyph glyph-name="eight" unicode="8" horiz-adv-x="402" 
d="M288 154l2.00098 -28.001c2.66699 -39.333 -10.833 -71.166 -40.5 -95.499s-65.834 -36.5 -108.501 -36.5c-32.667 0 -59.667 8 -81 24c-24 18 -36 42.667 -36 74c0 35.333 14.667 63.333 44 84c24.667 17.333 56 28 94 32l6 9c-10 18 -15 29.333 -15 34
c0 92 44 138 132 138c23.333 0 44 -5.33301 62 -16c20.667 -12.667 31 -30 31 -52c0 -35.333 -10.333 -60.333 -31 -75l-75 -36c-10.667 -5.33301 -16 -10 -16 -14c0 -6.66699 4 -14.334 12 -23.001c1.33301 -1.33301 8 -7.66602 20 -18.999zM211.001 292.999
c0 -20 10.667 -40 32 -60c54.667 16.667 82 49.667 82 99c0 24.667 -14.333 37 -43 37c-18 0 -34.333 -8.16699 -49 -24.5s-22 -33.5 -22 -51.5zM87.001 99.999c0 -57.333 19.667 -86 59 -86c20 0 38.5 10.667 55.5 32s25.5 42 25.5 62c0 8 -3.33301 18 -10 30
c-3.33301 6 -14.333 22.667 -33 50c-26 -4.66699 -47.667 -13.667 -65 -27c-21.333 -16.667 -32 -37 -32 -61z" />
    <glyph glyph-name="nine" unicode="9" horiz-adv-x="402" 
d="M191 132c-18.667 0 -35.167 8.83301 -49.5 26.5s-21.5 36.167 -21.5 55.5c0 45.333 17 85.833 51 121.5s73.333 53.5 118 53.5c54.667 0 82 -33 82 -99c0 -64 -27.667 -128.667 -83 -194c-57.333 -68 -117.333 -102 -180 -102c-22 0 -38.167 3.33301 -48.5 10
s-19.833 20 -28.5 40c2 20 11.333 36.667 28 50c27.333 0 46 -6.66699 56 -20c0 -18 -5.33301 -29.333 -16 -34c-4 4 -10 8.33301 -18 13c-10 0 -15 -6 -15 -18c0 -17.333 13 -26 39 -26c20.667 0 45.334 17 74.001 51c5.33301 6 24 32.333 56 79
c-14.667 -2.66699 -29.334 -5 -44.001 -7zM175 182c0 -16 13 -23 39 -21l13 1c58.667 40 88 105 88 195c0 6.66699 -6.66699 10 -20 10h-11c-72.667 -58 -109 -119.667 -109 -185z" />
    <glyph glyph-name="colon" unicode=":" horiz-adv-x="106" 
d="M0 364h64v-100h-64v100zM0 94h64v-100h-64v100z" />
    <glyph glyph-name="semicolon" unicode=";" horiz-adv-x="158" 
d="M57 364h63v-100h-63v100zM-8 -53l67 147h65l-67 -147h-65z" />
    <glyph glyph-name="less" unicode="&#x3c;" horiz-adv-x="344" 
d="M384 10c-2.66699 -9.33301 -4.33301 -15.333 -5 -18c-21.333 8 -48.333 28 -81 60c-38.667 38 -69 64.667 -91 80c-42 28.667 -89.333 47.334 -142 56.001c-4.66699 0.666992 -11.334 2.66699 -20.001 6c-16 6 -27.333 9 -34 9c4 16 31.667 49.667 83 101
c20.667 20.667 72.334 69 155.001 145c58 53.333 97 90.333 117 111c9.33301 -8 17 -17.667 23 -29c-32 -36 -66.333 -70.333 -103 -103c-49.333 -42 -121.333 -107 -216 -195c28 -10.667 64.333 -28.334 109 -53.001c136.667 -74 205 -130.667 205 -170z" />
    <glyph glyph-name="equal" unicode="=" horiz-adv-x="882" 
d="M942 389c-50 22 -80.667 35.332 -92 39.999c-38 14 -69.667 21 -95 21c-57.333 0 -122 -9 -194 -27l-218 -54c-73.333 -18.667 -137.666 -28 -192.999 -28c-32 0 -68.333 3.33301 -109 10c0 32 56.333 65.667 169 101c89.333 28 199.333 53.333 330 76
c115.333 20 191.333 30 228 30c143.333 0 215 -20 215 -60c0 -25.333 -1.33301 -44.333 -4 -57c-4.66699 -21.333 -13.334 -38.666 -26.001 -51.999h-11zM823 145.999l-217.998 -42.001c-84 -16.667 -156 -32.667 -216 -48c-66.667 -17.333 -138 -38.666 -214 -63.999l-3 22
c0 44 51 85.333 153 124c79.333 30 181.666 55.667 306.999 77c101.333 17.333 176.666 26 225.999 26c42.667 -32.667 65.334 -50.334 68.001 -53.001c25.333 -24 38 -65 38 -123c-12 -16 -30.667 -24 -56 -24c-18.667 28.667 -31.334 47 -38.001 55
c-16 20.667 -31.667 37.334 -47 50.001z" />
    <glyph glyph-name="greater" unicode="&#x3e;" horiz-adv-x="390" 
d="M87 -6l-15.001 -0.000976562l-5 13c17.333 28 41.333 54 72 78l153 95c14.667 9.33301 47.334 35 98.001 77l-2 8l-197 132c-70.667 48.667 -131 99.667 -181 153c14 4.66699 22.667 7 26 7l19 -2c24 -32.667 110 -100.334 258 -203.001l126 -87l-4 -19
c-28 -21.333 -67.333 -48.666 -118 -81.999c-58 -37.333 -97.667 -63.666 -119 -78.999c-45.333 -32.667 -82.333 -63 -111 -91z" />
    <glyph glyph-name="question" unicode="?" horiz-adv-x="261" 
d="M178 151c-14.667 5.33301 -26.667 11.333 -36 18c-2 1.33301 -12.667 10 -32 26l-1 26c-1.33301 32.667 8 71.667 28 117c50 114.667 76 176.667 78 186l-3 3c-78.667 -14.667 -136 -40 -172 -76l16 -9c-6 -4.66699 -16.333 -10.5 -31 -17.5s-24.667 -10.5 -30 -10.5
c-10.667 0 -16 5 -16 15c0 27.333 32.333 56.333 97 87c58.667 28 104.667 42 138 42c21.333 0 32 -13.667 32 -41s-17.5 -76.333 -52.5 -147s-52.5 -119.667 -52.5 -147c0 -11.333 4.33301 -24.333 13 -39c4 -6.66699 12 -17.667 24 -33zM89 11l2 10
c2 1.33301 12 4.66602 30 9.99902c12.667 4 21 10 25 18c5.33301 -1.33301 9.33301 -4.66602 12 -9.99902l6 -15c-6.66699 -12.667 -13 -20.667 -19 -24s-16.333 -5 -31 -5c-16.667 0 -25 5.33301 -25 16z" />
    <glyph glyph-name="at" unicode="@" horiz-adv-x="558" 
d="M276 125c-23.333 -21.333 -51 -32 -83 -32c-31.333 0 -56.5 10.667 -75.5 32s-28.5 48 -28.5 80c0 54.667 16.333 104.334 49 149.001c35.333 48 79.666 72 132.999 72c34 0 60 -12.667 78 -38l7 24h61c-56 -152 -84 -237.667 -84 -257
c0 -2.66699 1.83301 -5.66699 5.5 -9s7.16699 -5 10.5 -5c33.333 0 61.666 20 84.999 60c20 35.333 30 70.666 30 105.999c0 54 -20.167 97.667 -60.5 131s-87.833 50 -142.5 50c-63.333 0 -116.666 -22.5 -159.999 -67.5s-65 -99.5 -65 -163.5s21.667 -117.5 65 -160.5
s97 -64.5 161 -64.5c78 0 139.667 32.333 185 97l55 1c-23.333 -44 -56.666 -79 -99.999 -105s-90 -39 -140 -39c-78 0 -143.167 26.5 -195.5 79.5s-78.5 118.5 -78.5 196.5c0 76.667 26.667 141.167 80 193.5s118.333 78.5 195 78.5c67.333 0 125.333 -21.667 174 -65
s73 -98.333 73 -165c0 -50.667 -15.667 -97.667 -47 -141c-34 -47.333 -75.333 -71 -124 -71c-30.667 0 -51.667 11 -63 33zM155 209c0 -39.333 16.333 -59.001 49 -59.001c30.667 0 57.667 22.333 81 67c20 38 30 74.667 30 110c0 12.667 -4 23.334 -12 32.001
s-18.333 13 -31 13c-34 0 -62.667 -19.333 -86 -58c-20.667 -33.333 -31 -68.333 -31 -105z" />
    <glyph glyph-name="A" unicode="A" horiz-adv-x="1147" 
d="M713 -67l-177.003 -68.0059c-68.667 -25.333 -130.667 -38 -186 -38c-107.333 0 -197.666 29.667 -270.999 89c-79.333 63.333 -119 147.666 -119 252.999c0 88.667 25.667 168.334 77 239.001c56.667 78 128 117 214 117c30.667 0 70.334 -5.33301 119.001 -16l1 -20
c-37.333 9.33301 -71.333 14 -102 14c-86.667 0 -157.667 -33.333 -213 -100c-51.333 -62.667 -77 -138.334 -77 -227.001c0 -96.667 35 -177.334 105 -242.001c68 -62.667 150.667 -94 248 -94c108.667 0 223 38.333 343 115c-5.33301 4.66699 -30.333 13.334 -75 26.001
c-18 5.33301 -30.333 13.333 -37 24l5 24l28 6c39.333 -15.333 61.333 -23 66 -23c34.667 0 67 37.333 97 112c18 44.667 33.333 98.334 46 161.001c-20.667 8.66699 -39 13 -55 13c-22 0 -55 -28 -99 -84c-65.333 -83.333 -109 -135.333 -131 -156
c-58.667 -56 -116.667 -84 -174 -84c-41.333 0 -77 12.5 -107 37.5s-45 57.833 -45 98.5c0 81.333 42 137 126 167c54.667 19.333 136 29 244 29h75c12 0 42.667 24.667 92 74c74.667 74.667 126 124 154 148c66 56.667 122.667 91.334 170 104.001
c-1.33301 -6 -33.333 -52 -96 -138c-26 -36 -39 -75 -39 -117c0 -6 2.66699 -17 8 -33c47.333 14.667 86.666 42.5 117.999 83.5s47 85.833 47 134.5c0 70.667 -34 128.334 -102 173.001c-60 39.333 -127.667 59 -203 59c-82 0 -153.333 -21 -214 -63
c-69.333 -48 -104 -111 -104 -189c0 -35.333 8.33301 -66.666 25 -93.999c18 -29.333 43 -49.666 75 -60.999v-18c-36.667 4.66699 -66.667 23.334 -90 56.001c-22.667 30.667 -34 65 -34 103c0 88.667 34.333 160.334 103 215.001c63.333 50 140.666 75 231.999 75
c86 0 160.667 -22 224 -66c71.333 -50 107 -116.333 107 -199c0 -82 -28.333 -139 -85 -171c-46 -26 -80 -50 -102 -72c-8 -8 -20.667 -37 -38 -87c-19.333 -54 -35 -89.667 -47 -107c-33.333 -48.667 -83.666 -91.667 -150.999 -129l20 -15
c14.667 5.33301 62.334 31.333 143.001 78c56.667 32.667 108.334 49 155.001 49c35.333 0 66 -9.33301 92 -28c28 -20.667 42 -48 42 -82c0 -48.667 -22.667 -87 -68 -115c-38 -23.333 -83 -35 -135 -35c-72.667 0 -147.667 31.333 -225 94zM765.997 311.994
c17.333 0 30.334 3.66699 39.001 11c16 86 60.333 163.333 133 232c-84.667 -52.667 -155.334 -133.667 -212.001 -243h40zM741.998 -47.0059c59.333 -55.333 126 -83 200 -83c44 0 81.333 8.66699 112 26c37.333 21.333 56 52.333 56 93c0 24.667 -13 45.667 -39 63
c-22.667 15.333 -47 23 -73 23c-44.667 0 -100 -21 -166 -63zM252.998 90.9941c0 -19.333 8.00098 -37.667 24.001 -55s33.667 -26 53 -26c85.333 0 166.666 49.333 243.999 148c24 30.667 51.333 71 82 121c-14.667 0 -39 0.666992 -73 2l-56 2
c-182.667 0 -274 -64 -274 -192z" />
    <glyph glyph-name="B" unicode="B" horiz-adv-x="1099" 
d="M1218 558c0 31.333 -19.999 55.6641 -59.999 72.9971c-32 14 -66 21 -102 21c-54.667 0 -98 -10.333 -130 -31c41.333 -50 62 -94 62 -132c0 -47.333 -16 -80.666 -48 -99.999c-43.333 -26.667 -69.333 -47.667 -78 -63c3.33301 -10.667 13 -27 29 -49
c10.667 -14.667 16 -38 16 -70l16 -5c8.66699 3.33301 22.334 14 41.001 32c15.333 14.667 30.666 22 45.999 22c-40 -66 -90 -122.667 -150 -170c-71.333 -56 -139.666 -84 -204.999 -84c-57.333 0 -86 15.333 -86 46c0 50 43.333 85 130 105l107 22c10 46 15 80 15 102
c0 4 -2.33301 20 -7 48l-36 6l-22 25l5 17l47 10l24 -21c24 0 45.333 19.667 64 59c16 34 24 65 24 93c0 18 -8.33301 47.333 -25 88c-67.333 -30 -122 -99.667 -164 -209c-54 -139.333 -96 -227.333 -126 -264c-72 -86.667 -184 -130 -336 -130
c-91.333 0 -165.333 24 -222 72c-60.667 50.667 -91 121 -91 211c0 92.667 33.667 177.334 101 254.001c70 78.667 151 118 243 118c15.333 0 33.666 -3.33301 54.999 -10c49.333 -15.333 80 -23 92 -23c107.333 49.333 184 74 230 74c75.333 0 144.666 -15.667 207.999 -47
c51.333 15.333 102.333 23 153 23c46 0 87.667 -7.33301 125 -22c51.333 -20 77 -48.667 77 -86c0 -25.333 -11.167 -43.666 -33.5 -54.999s-46.5 -16.333 -72.5 -15l-35 2c30.667 5.33301 54 11 70 17c32.667 12 49 27.333 49 46zM597.001 385.998l-2.99902 10.001
c2 7.33301 3 14.333 3 21c0 8.66699 -1.83301 22 -5.5 40s-5.5 31 -5.5 39c30.667 -10.667 46 -39.334 46 -86.001c58 104 125.333 174.667 202 212c9.33301 4.66699 14.666 10 15.999 16c-44 22.667 -96.333 34 -157 34c-88 0 -162 -20.667 -222 -62
c78 -73.333 117 -151 117 -233zM354.002 442.999c0 -20 4.33301 -42.334 13 -67.001c10 -28 22 -46 36 -54c11.333 -6.66699 33 -10 65 -10c26 0 51.333 4.66699 76 14c8 16 12 35.333 12 58c0 40.667 -9.5 78.834 -28.5 114.501s-45.5 64.167 -79.5 85.5
c-28.667 0 -52 -17 -70 -51c-16 -28.667 -24 -58.667 -24 -90zM595.002 52.998c0.666992 -4.66699 5.83105 -10 15.498 -16s16.834 -9 21.501 -9c28 0 55.667 11 83 33c24.667 20 43 43.667 55 71l-25 2c-29.333 2.66699 -59.666 -3.33301 -90.999 -18
c-26 -12.667 -45.667 -33.667 -59 -63zM367.999 187.998l17.998 11l21 -1c22 -1.33301 45 7.33398 69 26.001c21.333 16 38 34.667 50 56c-20 -4 -40 -6 -60 -6c-38 0 -72.333 15.167 -103 45.5s-46 64.5 -46 102.5c0 67.333 27.333 129 82 185
c-19.333 12 -50.333 18 -93 18c-93.333 0 -171.166 -33.833 -233.499 -101.5s-93.5 -148.834 -93.5 -243.501c0 -72.667 23.5 -132.5 70.5 -179.5s106.833 -70.5 179.5 -70.5c84.667 0 158.667 26.333 222 79c56.667 48 101 114 133 198c-40 -53.333 -65 -85 -75 -95
c-34 -34 -69.667 -51 -107 -51c-17.333 0 -28.666 9 -33.999 27z" />
    <glyph glyph-name="C" unicode="C" horiz-adv-x="912" 
d="M679 405c22.667 0 41.1641 -8.5 55.4971 -25.5s21.5 -37.167 21.5 -60.5c0 -77.333 -28 -143.333 -84 -198c-50.667 -50 -115.667 -83.667 -195 -101c15.333 -14 33.666 -21 54.999 -21c29.333 0 64 16.667 104 50l88 84l9 -8c-34 -44 -64.333 -77 -91 -99
c-39.333 -32 -80.333 -48 -123 -48c-40 0 -82 28.333 -126 85c-41.333 54 -62 102 -62 144c0 106.667 69.333 216.667 208 330c-22.667 12.667 -53.667 19 -93 19c-140.667 0 -255 -36 -343 -108c-94 -77.333 -141 -185 -141 -323c0 -82.667 23.333 -152.667 70 -210
c50 -62 115.333 -93 196 -93c52.667 0 116.334 11.667 191.001 35l185 64c70.667 23.333 134 35 190 35c62 0 118.667 -12.667 170 -38c64.667 -32 97 -75.667 97 -131c0 -18.667 -9 -35.667 -27 -51l-8 8c7.33301 14.667 11 26.334 11 35.001
c0 57.333 -32.333 99.666 -97 126.999c-48.667 20.667 -106 31 -172 31c-49.333 0 -108 -12 -176 -36l-170 -66c-64 -24 -123 -36 -177 -36c-90 0 -163 33.333 -219 100c-53.333 62.667 -80 139.667 -80 231c0 106.667 32 199.5 96 278.5s148 130.5 252 154.5
c23.333 5.33301 51.333 8 84 8c18 0 45.167 -1.33301 81.5 -4s63.5 -4 81.5 -4c33.333 0 87.333 15.667 162 47s131.334 47 170.001 47c83.333 0 125 -21.333 125 -64c0 -29.333 -18.667 -53.333 -56 -72c-30 -15.333 -61.333 -23 -94 -23c-20 0 -49.333 4.16699 -88 12.5
s-68 12.5 -88 12.5c-53.333 0 -112.166 -50.167 -176.499 -150.5s-95.166 -177.833 -92.499 -232.5l1 -22c19.333 76.667 50.333 140.667 93 192c52 63.333 112.667 95 182 95zM895.997 630c-30.667 0 -65.332 -9.99902 -103.999 -29.999c-12 -6 -43.333 -25.333 -94 -58
c24.667 -8.66699 56 -13 94 -13c47.333 0 84 3 110 9c49.333 11.333 74 31.666 74 60.999c-22.667 20.667 -49.334 31 -80.001 31zM441.999 102.001c0 -18.667 1 -30.333 3 -35c4 -8 14 -12 30 -12c48.667 0 99.167 30 151.5 90s78.5 114.667 78.5 164
c0 38.667 -21 58 -63 58c-47.333 0 -93.333 -32.667 -138 -98c-41.333 -60 -62 -115.667 -62 -167z" />
    <glyph glyph-name="D" unicode="D" horiz-adv-x="684" 
d="M198 246c-79.333 0 -136.666 45.999 -171.999 137.999c-22.667 -29.333 -34 -65 -34 -107c0 -32.667 9.66699 -76.667 29 -132c-34 34 -51 74 -51 120c0 25.333 6 52.333 18 81l31 76c5.33301 16 8 31.667 8 47c0 69.333 31.333 124.333 94 165
c54.667 35.333 118.667 53 192 53c110 0 199 -37.333 267 -112c31.333 4.66699 56.333 7 75 7c60 0 109.667 -14.667 149 -44l-7 -10c-36 24.667 -84.667 37 -146 37c-24 0 -44 -3.33301 -60 -10c36.667 -57.333 55 -121.666 55 -192.999
c0 -89.333 -25.667 -170.666 -77 -243.999c-57.333 -82 -129 -123 -215 -123c-18 0 -58.333 12.667 -121 38c-52 -24 -100.333 -36 -145 -36c-61.333 0 -92 27.333 -92 82c0 11.333 8.33301 25.5 25 42.5s30.667 25.5 42 25.5c24 0 49 -6 75 -18
c14 -6.66699 36.333 -19.667 67 -39c39.333 49.333 72.666 114.666 99.999 195.999c-24 -26.667 -59.667 -40 -107 -40zM47 444.999c34 34 80.668 51 140.001 51c32 0 64.667 -11.333 98 -34c37.333 -24 56 -51.333 56 -82c0 -36 -7.66699 -56.333 -23 -61
c65.333 126 139.666 209.667 222.999 251c-49.333 65.333 -122 98 -218 98c-66 0 -125.333 -16.333 -178 -49c-60.667 -38 -91 -88 -91 -150c0 -8.66699 1 -17.667 3 -27zM273.001 50.999c14.667 -10.667 34.668 -15.999 60.001 -15.999c74 0 136.667 51.333 188 154
c43.333 86.667 65 172 65 256c0 25.333 -1 43 -3 53c-4.66699 23.333 -15.334 35 -32.001 35c-48 -38 -84.667 -90.667 -110 -158l-62 -178c-24 -64.667 -59.333 -113.334 -106 -146.001zM57.002 415c0 -42.667 14.499 -77.668 43.499 -105.001s65.167 -41 108.5 -41
c24 0 46.333 10.833 67 32.5s31 44.834 31 69.501c0 28 -15.333 51.667 -46 71c-27.333 16.667 -55.666 25 -84.999 25c-36 0 -75.667 -17.333 -119 -52zM27.001 77.999c0 -33.333 21.666 -50 64.999 -50c46 0 74.667 13.667 86 41
c-29.333 21.333 -48.666 34.333 -57.999 39c-15.333 7.33301 -29.333 11 -42 11c-34 0 -51 -13.667 -51 -41z" />
    <glyph glyph-name="E" unicode="E" horiz-adv-x="868" 
d="M632 483l-3 -18.002c0 -33.333 18.667 -59 56 -77l-4 -15h11c86.667 0 130 -47.333 130 -142c0 -73.333 -25.333 -131 -76 -173c-47.333 -39.333 -108.333 -59 -183 -59c-65.333 0 -121 19.667 -167 59c-49.333 41.333 -74 94 -74 158c0 82 22.667 140.333 68 175l174 64
c0 53.333 -61.667 80 -185 80h-26c-79.333 0 -155.333 -13.333 -228 -40c-96.667 -35.333 -145 -85.666 -145 -150.999c0 -16 4.33301 -34.667 13 -56l22 -55c-38 12.667 -57 43 -57 91c0 116.667 84.333 187.334 253 212.001c54.667 8 123 12 205 12h57
c26 -0.666992 45.333 -1 58 -1c30 98.667 96 148 198 148c36.667 0 68.5 -11.667 95.5 -35s40.5 -53 40.5 -89c0 -34.667 -14.333 -62 -43 -82c-25.333 -18 -56.333 -27 -93 -27c-28 0 -60.333 7 -97 21zM631 531.998l2 -16c10 0 21.333 -2.33301 34 -7
c30.667 -11.333 50 -17 58 -17c27.333 0 51.333 5.66699 72 17c24.667 14.667 37 34.667 37 60c0 22 -7 39.5 -21 52.5s-32 19.5 -54 19.5c-30.667 0 -59.667 -10.667 -87 -32s-41 -47 -41 -77zM563 181.998c0 -18 5.99902 -32.998 17.999 -44.998s27 -18 45 -18
c28 0 49.667 13 65 39c8.66699 15.333 17 40.333 25 75c6.66699 29.333 13 45.666 19 48.999c12.667 -14 19 -30 19 -48c0 -40 -13 -75.333 -39 -106s-58.667 -46 -98 -46c-30 0 -53.333 12 -70 36c-15.333 21.333 -23 47.666 -23 78.999c0 28.667 14.667 60 44 94
c26 30.667 53.667 53.334 83 68.001c-12.667 16.667 -33.667 25 -63 25c-49.333 0 -88.166 -16 -116.499 -48s-42.5 -73 -42.5 -123s12.667 -92 38 -126c28 -38 66.333 -57 115 -57c60.667 0 111.334 21.5 152.001 64.5s61 94.833 61 155.5c0 52.667 -28.333 79 -85 79
c-38.667 0 -72.834 -14.833 -102.501 -44.5s-44.5 -63.834 -44.5 -102.501z" />
    <glyph glyph-name="F" unicode="F" horiz-adv-x="849" 
d="M424 596l71.0029 -102.995c8.66699 -21.333 13 -50.666 13 -87.999c0 -58.667 -18.333 -115.334 -55 -170.001c-41.333 -61.333 -89.666 -92 -144.999 -92c-38 0 -72 10.667 -102 32c-33.333 23.333 -50 53.333 -50 90c0 11.333 3.33301 37.666 10 78.999h25
c-9.33301 -22.667 -14 -44.334 -14 -65.001c0 -33.333 10.333 -60.333 31 -81s47.667 -31 81 -31c54 0 101.333 24 142 72c38 46 57 96.667 57 152c0 92 -27.333 155.333 -82 190c-29.333 -17.333 -53.166 -42.666 -71.499 -75.999s-27.5 -67.333 -27.5 -102
c0 -63.333 44.667 -95 134 -95c-20.667 -13.333 -41 -20 -61 -20c-20.667 0 -41 11.167 -61 33.5s-30 43.833 -30 64.5c0 64 27 135.667 81 215c-34.667 20 -75 30 -121 30c-82.667 0 -150 -33 -202 -99c-47.333 -60.667 -71 -133.667 -71 -219c0 -82 24.333 -151 73 -207
c51.333 -58.667 117.333 -88 198 -88c119.333 0 211.333 75 276 225c1.33301 4 23.333 64.333 66 181l-36 15l-1 20c13.333 -8.66699 26.666 -15 39.999 -19c11.333 6 42.333 33 93 81c27.333 26 77.666 39 150.999 39l1 -11
c-96.667 -14.667 -152.334 -52.667 -167.001 -114c6.66699 -10 11.667 -14 15 -12c9.33301 4.66699 25.333 16.667 48 36c12 10 22 16.667 30 20l31 -11c0 -30.667 -14 -71 -42 -121c-31.333 -56 -62.333 -84 -93 -84h-11l-14 26l19 -2
c18.667 9.33301 30.834 19.166 36.501 29.499s8.5 26.166 8.5 47.499v22c0 4.66699 -3.83301 9.33398 -11.5 14.001s-13.834 7 -18.501 7c-48 -126.667 -74.667 -195.334 -80 -206.001c-34 -72 -76.833 -123.333 -128.5 -154s-118.834 -46 -201.501 -46
c-96 0 -172.833 29.333 -230.5 88s-86.5 136 -86.5 232c0 95.333 29.667 173.166 89 233.499s136.666 90.5 231.999 90.5c48 0 89 -10.333 123 -31l102 54c36 18 73.333 27 112 27c44 0 90.667 -13.333 140 -40l130 -74c50 -27.333 95.667 -41 137 -41c18.667 0 38 3 58 9
c18 13.333 29.667 30.666 35 51.999l25 1c-24 -56 -63 -84 -117 -84c-31.333 0 -76.333 11.333 -135 34l-133 56c-55.333 22 -102.333 33 -141 33c-71.333 0 -129.333 -15 -174 -45z" />
    <glyph glyph-name="G" unicode="G" horiz-adv-x="637" 
d="M491 138c-28 -18 -56.665 -52.6709 -85.998 -104.004c-34 -59.333 -61 -98.666 -81 -117.999c-39.333 -38 -89.666 -57 -150.999 -57c-59.333 0 -96.333 17.667 -111 53c-2.66699 6.66699 -15.667 42.334 -39 107.001l-57 88c-14.667 28 -22 63 -22 105
c0 100 32.333 178.667 97 236c61.333 54.667 142.333 82 243 82c39.333 0 77.333 -4.33301 114 -13c101.333 71.333 188 107 260 107c65.333 0 98 -13.667 98 -41c0 -41.333 -42.333 -70.666 -127 -87.999c-48 -9.33301 -105 -14 -171 -14l-103.5 -117.5
c-45 -52.333 -66.833 -97.5 -65.5 -135.5l1 -26l130 -17l55 103c21.333 40 42 73.667 62 101h17l7 -12l8 -1c6 0 12 2.33301 18 7c18.667 14.667 28.667 22.334 30 23.001c-35.333 -52.667 -60 -90.334 -74 -113.001c-26.667 -43.333 -48.334 -83 -65.001 -119l16 -3
c33.333 33.333 74.333 50 123 50l1 -12c-46.667 -6.66699 -82.667 -24 -108 -52c17.333 -7.33301 70.333 -41.666 159 -102.999c65.333 -45.333 122.666 -68 171.999 -68c42 0 73.333 12.833 94 38.5l61 78.5c-4.66699 -40 -20.334 -72.333 -47.001 -97s-60 -37 -100 -37
c-40.667 0 -83 11.333 -127 34c-13.333 6.66699 -51 30.667 -113 72c-46 30.667 -85.333 51.667 -118 63zM510.002 503.996c50 0 94 4.33301 132 13c61.333 14 92 36.667 92 68l-12 11c-85.333 0 -159.333 -30.667 -222 -92h10zM379.002 152.996
c4 1.33301 8.66699 4.66699 14 10c-37.333 6 -62 8.66699 -74 8l-18 -1c2.66699 -19.333 14.667 -29 36 -29zM246.002 162.997c-16 -2.66699 -33.6689 -8.66895 -53.002 -18.002c-14 -6.66699 -41 -23 -81 -49l-13 13c32.667 32.667 77 59 133 79c-4.66699 18 -7 37 -7 57
c0 84.667 43.667 168.667 131 252c-38 8 -71.667 12 -101 12c-82 0 -151.333 -28.5 -208 -85.5s-85 -126.5 -85 -208.5c0 -69.333 26.333 -129.666 79 -180.999c2.66699 6.66699 7.33398 16.334 14.001 29.001c8.66699 16.667 21.667 28 39 34c0 -11.333 -4 -25.333 -12 -42
c-10 -20.667 -16 -34.334 -18 -41.001c31.333 -27.333 71.333 -41 120 -41c54.667 0 103.667 14.667 147 44c46 31.333 74 73 84 125c-33.333 -18 -62.666 -27 -87.999 -27c-14 0 -29 4.83301 -45 14.5s-28 20.834 -36 33.501zM61 -20.0049v-21c0 -16 3 -28 9 -36
c4.66699 -5.33301 15.334 -13.333 32.001 -24c24.667 -15.333 45.667 -23 63 -23c81.333 0 146.333 42 195 126c-54.667 -34 -113.334 -51 -176.001 -51c-45.333 0 -86.333 9.66699 -123 29z" />
    <glyph glyph-name="H" unicode="H" horiz-adv-x="948" 
d="M684 149c-10 -16 -27.3301 -33.332 -51.9971 -51.999c-58.667 -44.667 -90 -69 -94 -73c18.667 -11.333 37 -17 55 -17c19.333 0 45 9.66699 77 29l70 49c-54.667 -65.333 -106.667 -98 -156 -98c-24.667 0 -46.334 9.66699 -65.001 29c-25.333 -6 -49.333 -9 -72 -9
c-28 0 -42 6 -42 18c0 9.33301 7.33301 17 22 23c12 4.66699 23.333 7 34 7c17.333 0 34 -4.66699 50 -14c42 26.667 75 69.667 99 129c9.33301 22.667 28.666 75.667 57.999 159l-30 4c-13.333 0 -31 -2 -53 -6c-27.333 -5.33301 -44.666 -8.33301 -51.999 -9
c-54.667 -127.333 -118.334 -216.333 -191.001 -267c-48 -33.333 -100 -50 -156 -50c-42.667 0 -78.334 6.66699 -107.001 20c-21.333 -36 -32 -79.667 -32 -131c0 -68 21.667 -128.667 65 -182c46 -56 102.333 -84 169 -84c100.667 0 165 53.667 193 161l12 -2
c0 -54 -21.667 -97 -65 -129c-38.667 -28 -86 -42 -142 -42c-71.333 0 -131.666 29 -180.999 87c-47.333 54.667 -71 118.334 -71 191.001c0 27.333 7.66699 74.666 23 141.999c-78 56.667 -117 122.334 -117 197.001c0 56.667 21.833 110.5 65.5 161.5
s93.5 80.5 149.5 88.5c10 68 38.667 125.667 86 173c50 49.333 108.667 74 176 74c35.333 0 73 -12 113 -36c15.333 -8.66699 69.333 -53 162 -133c28.667 0 62.667 3 102 9c8.66699 0 13 -4 13 -12c0 -11.333 -2.33301 -23.333 -7 -36c-6 -16.667 -13.333 -25 -22 -25
c-2.66699 0 -18 7.66699 -46 23c-14.667 8 -27.667 12 -39 12c-36.667 0 -70.334 -22.333 -101.001 -67c-26.667 -38.667 -43 -78.334 -49 -119.001h4c70 0 122 9 156 27c30 66 76.333 120 139 162s129.667 63 201 63c42 0 63 -18 63 -54
c0 -38.667 -39.333 -77.334 -118 -116.001c-36 -18 -93.667 -40 -173 -66zM827.003 397.001c76.667 20.667 127 36.667 151 48c64 29.333 96 66 96 110l-4 14c-98.667 0 -179.667 -57.333 -243 -172zM750.003 529.001l5 -2l3 -1l7 2c-4 6 -12.667 9 -26 9h-7z
M179.003 485.001c95.333 -9.33301 155 -36.998 179 -82.998c10.667 2 25 10.667 43 26c22.667 19.333 37 30.666 43 33.999l9 -22c-3.33301 -12 -17.666 -26.667 -42.999 -44c-6.66699 -4.66699 -19 -12.334 -37 -23.001c0 -6 3 -15.667 9 -29s8.33301 -24 7 -32
c9.33301 3.33301 18.333 7.66602 27 12.999c20 48.667 50.667 94.5 92 137.5s85.666 73.167 132.999 90.5c-62.667 69.333 -148.667 104 -258 104c-56.667 0 -104 -14 -142 -42c-41.333 -31.333 -62 -74.666 -62 -129.999zM446.003 28.0029l2.99902 -3l25 6
c-5.33301 3.33301 -10.666 5 -15.999 5c-8 0 -12 -2.66699 -12 -8zM147.002 125.003l12.001 -0.998047c7.33301 -0.666992 17.666 0 30.999 2c16 2 26.667 3 32 3c37.333 22.667 63 40.667 77 54c25.333 23.333 40.333 50.333 45 81
c-14.667 -8.66699 -26.667 -12.334 -36 -11.001l-89 -54c-31.333 -20.667 -55.333 -45.334 -72 -74.001zM-44.9971 217.005c0 -34.667 9.5 -65.833 28.5 -93.5s44.833 -48.167 77.5 -61.5l34 51c-20 38.667 -30 66.667 -30 84c0 36.667 14.333 69.334 43 98.001
c5.33301 -13.333 8 -21 8 -23c0 -8.66699 -2 -18.667 -6 -30c-9.33301 -26.667 -14 -44 -14 -52c0 -18.667 7 -33 21 -43c60 70 138.667 120 236 150c4.66699 12.667 7 24.334 7 35.001c0 18 -14.333 27 -43 27c-7.33301 0 -17.5 -0.833008 -30.5 -2.5
s-22.5 -2.5 -28.5 -2.5c-19.333 -0.666992 -40.333 11.333 -63 36c-17.333 19.333 -32 40.666 -44 63.999c-60 -14 -107.667 -41.833 -143 -83.5s-53 -92.834 -53 -153.501zM326.003 390.006c-14.667 17.333 -32.6689 32.333 -54.002 45c-24 14.667 -46 22 -66 22
c-8 0 -16.333 -1.66699 -25 -5c15.333 -30 29.333 -48.5 42 -55.5s36.334 -10.5 71.001 -10.5c12.667 0 23.334 1.33301 32.001 4zM122.001 100.006l-31.998 -54c23.333 -10.667 48.666 -16 75.999 -16c53.333 0 99.333 26.667 138 80c16 22 42 72 78 150l-35 -68
c-15.333 -30 -39.833 -54.667 -73.5 -74s-67.834 -29 -102.501 -29c-16.667 0 -33 3.66699 -49 11zM109.003 288.006c5.33301 15.333 17 28.667 35 40c7.33301 4.66699 24 12.667 50 24l5 -10l-44 -26c-18.667 -12 -30.667 -23 -36 -33z" />
    <glyph glyph-name="I" unicode="I" horiz-adv-x="744" 
d="M785 481c2.66699 -45.333 4 -67.668 4 -67.001c0 -57.333 -23 -98 -69 -122c-64 -33.333 -111.333 -80.333 -142 -141c-53.333 -106 -159 -159 -317 -159c-118.667 0 -201.667 41.333 -249 124c-36 63.333 -54 161 -54 293c0 85.333 34.667 155 104 209
c64 50 140 75 228 75c26 0 54.333 -11 85 -33c-42.667 6 -85 12.333 -127 19c-74 0 -136.333 -28.667 -187 -86c-53.333 -60.667 -79 -127 -77 -199l1 -33c24.667 54 64 97 118 129c52 31.333 108.333 47 169 47c24 0 50.667 -5.66699 80 -17
c2.66699 -1.33301 27.667 -12.666 75 -33.999c14 60.667 60.667 108.667 140 144c66 29.333 135.333 44 208 44c74 0 144.667 -15 212 -45v-15c-88 0 -168.667 -33.333 -242 -100c-74.667 -68.667 -112 -146.667 -112 -234c79.333 14.667 130 81.667 152 201zM455 466.998
c0 -12 10.1689 -45.168 30.502 -99.501s33.166 -82.166 38.499 -83.499c73.333 230.667 209.666 346 408.999 346c-16 0 -35 2.66699 -57 8c-50 12 -83.333 18 -100 18c-64 0 -130 -16 -198 -48c-82 -38.667 -123 -85.667 -123 -141zM444.002 395.997
c0 -10 4 -21.333 12 -34c10.667 -16.667 16.667 -27.667 18 -33l-11 -4c-2 4.66699 -4.66699 18.667 -8 42c-3.33301 20 -7 32 -11 36v-7zM260.002 509.997c-68 0 -127.667 -21.667 -179 -65c-53.333 -45.333 -80 -101.666 -80 -168.999
c0 -46.667 25.333 -88.334 76 -125.001c46 -33.333 93.333 -50 142 -50c46 0 95.667 14.667 149 44c60.667 33.333 91 70.666 91 111.999c0 17.333 -8.83301 43.333 -26.5 78s-26.5 61.334 -26.5 80.001c0 12 2.33301 24 7 36c-38 39.333 -89 59 -153 59zM221.002 65.9971
c-44 0 -86.332 11.667 -126.999 35s-72.667 54 -96 92c9.33301 -48 37.666 -89 84.999 -123s96 -51 146 -51c68 0 126.333 23.667 175 71c36.667 36 71.334 90.667 104.001 164l-21 7c-12.667 -59.333 -45.334 -107 -98.001 -143c-49.333 -34.667 -105.333 -52 -168 -52z
" />
    <glyph glyph-name="J" unicode="J" horiz-adv-x="706" 
d="M523 220l16.002 -2.00098c30 0 55.833 13.333 77.5 40s32.5 55 32.5 85l12 1l7 -34c-20 -46 -40.667 -75.333 -62 -88c-6.66699 -4 -41 -14.667 -103 -32c-74 -131.333 -173.667 -197 -299 -197c-72 0 -131.333 25 -178 75s-70 111.333 -70 184
c0 88.667 30 176.334 90 263.001c66 95.333 141 143 225 143c59.333 0 110.666 -19 153.999 -57c59.333 59.333 142.666 89 249.999 89c86.667 0 163 -20 229 -60v-27c-20 4.66699 -38.333 7 -55 7c-61.333 0 -114.666 -22.333 -159.999 -67
c-36.667 -36 -69.334 -87.667 -98.001 -155zM448.002 586.999c9.33301 -14 15.667 -24 19 -30c7.33301 -13.333 11 -24.666 11 -33.999l-5 -15c-10 2 -19 8.66699 -27 20l-18 31c-10 -5.33301 -21.333 -16.5 -34 -33.5s-19 -30.5 -19 -40.5c42 -54 63 -105 63 -153
c0 -24.667 -2.66699 -50.334 -8 -77.001l5 -1l86 182c32 63.333 69.667 111.333 113 144c50.667 38 114.667 57 192 57c-51.333 20 -105 30 -161 30c-92.667 0 -165 -26.667 -217 -80zM53.0029 471.999l79 44.999c26 12 56 18 90 18c46.667 0 89 -12 127 -36
c6.66699 18.667 24 49.334 52 92.001c-62 33.333 -108.333 50 -139 50c-46 0 -89.167 -16.833 -129.5 -50.5s-66.833 -73.167 -79.5 -118.5zM361.003 392.998c0 -51.333 14.333 -88.334 43 -111.001c4.66699 12 7 25.333 7 40c0 38.667 -15.333 77.667 -46 117
c-2.66699 -13.333 -4 -28.666 -4 -45.999zM336.003 460.997c-8.66699 14 -25.3311 25.3359 -49.998 34.0029c-20.667 7.33301 -41 11 -61 11c-77.333 0 -139.333 -28.667 -186 -86l-2 -34c-3.33301 -60.667 15.667 -114.334 57 -161.001c38 -42.667 89 -64 153 -64
c29.333 0 57.166 8.16699 83.499 24.5s46.166 37.5 59.499 63.5c-41.333 37.333 -62 87.666 -62 150.999c0 19.333 2.66699 39.666 8 60.999zM250.006 131c-73.333 0 -130.334 20.667 -171.001 62c-36 36.667 -60.667 92.667 -74 168c-16 -33.333 -24 -67 -24 -101
c0 -62.667 17.333 -116.667 52 -162c37.333 -50 86.333 -75 147 -75c94.667 0 168.334 52.333 221.001 157c8.66699 17.333 13 28.333 13 33l-1 6c-16 -27.333 -38.833 -48.833 -68.5 -64.5s-61.167 -23.5 -94.5 -23.5z" />
    <glyph glyph-name="K" unicode="K" horiz-adv-x="929" 
d="M526 335l-11.999 -4.00391c42.667 -12 70.334 -22 83.001 -30c24 -16 36 -40.667 36 -74c0 -11.333 -0.666992 -28.5 -2 -51.5s-2 -40.167 -2 -51.5c0 -28 5 -52.333 15 -73c12.667 -26.667 31.667 -40 57 -40c32 0 59.5 14 82.5 42s34.5 58 34.5 90
c0 18.667 -8.33301 35.334 -25 50.001s-34.334 22 -53.001 22c-8 0 -15 -1.33301 -21 -4c14.667 14.667 28 22 40 22c22 0 40.333 -8.16699 55 -24.5s22 -35.5 22 -57.5c0 -43.333 -14.333 -81.333 -43 -114s-64.334 -49 -107.001 -49
c-81.333 0 -126.666 34.333 -135.999 103c-2 12.667 -7.66699 77.334 -17 194.001l-30 24l-117 -211c-49.333 -66.667 -120.666 -100 -213.999 -100c-58.667 0 -108.667 18 -150 54c-44 37.333 -66 85 -66 143c0 56.667 16.333 104.334 49 143.001l91 81
c33.333 30 50 62.333 50 97c0 44 26.333 84.667 79 122c48.667 34.667 96 52 142 52c46.667 0 102.667 -19.5 168 -58.5s120 -58.5 164 -58.5c22.667 0 34 -4.33301 34 -13c0 -7.33301 -10.333 -21.333 -31 -42h-7c-9.33301 0 -22.5 3.66699 -39.5 11s-29.167 11 -36.5 11
c-24 0 -48.667 -22.667 -74 -68c-22 -39.333 -34.333 -73.666 -37 -102.999l22 -1c50.667 -2 97 22.333 139 73l105 137c41.333 49.333 89.666 74 144.999 74c23.333 0 43.666 -4.66699 60.999 -14c12 -6.66699 29 -20.667 51 -42c-48.667 29.333 -84.667 44 -108 44
c-62 0 -105.333 -26.333 -130 -79l-66 -147c-39.333 -52.667 -106.333 -79 -201 -79zM672.001 546.996c6.66699 -4 12.333 -6 17 -6c7.33301 0 10.333 1.66699 9 5c-0.666992 2 -5 2.66699 -13 2zM268 361.996c16.667 0 28.334 4.33398 35.001 13.001
c-40.667 31.333 -84.334 47 -131.001 47c0 -20.667 11.333 -36.334 34 -47.001c18 -8.66699 38.667 -13 62 -13zM149 471.997c0 -10 14.3311 -16.667 42.998 -20c46 -6 74 -10.333 84 -13c32 -9.33301 50.667 -25.666 56 -48.999c14.667 4 33.334 17.333 56.001 40
c10 10 19.333 20 28 30v-23c0 -18 -11 -36.333 -33 -55c-6.66699 -6 -17 -14.667 -31 -26c6.66699 -26.667 10 -52.667 10 -78c0 -52.667 -16.333 -98.667 -49 -138c-35.333 -42 -78.666 -63 -129.999 -63c-32 0 -56.833 9.66699 -74.5 29s-26.5 45.333 -26.5 78
s10.5 62.667 31.5 90s47.167 47 78.5 59v-22c-1.33301 -2 -19.333 -19.667 -54 -53c-16.667 -16 -25 -41 -25 -75c0 -49.333 22 -74 66 -74c44.667 0 82 20.667 112 62c27.333 37.333 41 79 41 125c0 20 -5.33301 36.667 -16 50c-18 -9.33301 -39 -14 -63 -14
s-47.5 7.83301 -70.5 23.5s-37.833 34.834 -44.5 57.501c-48 -8 -86.667 -34.333 -116 -79c-26.667 -41.333 -40 -87.333 -40 -138c0 -52.667 17.333 -94.5 52 -125.5s78.667 -46.5 132 -46.5c65.333 0 117.333 38.333 156 115l93 233c40 93.333 94.667 153.666 164 180.999
c-64.667 51.333 -129 77 -193 77c-49.333 0 -99 -14 -149 -42c-58.667 -32.667 -88 -71.334 -88 -116.001z" />
    <glyph glyph-name="L" unicode="L" horiz-adv-x="758" 
d="M213 64c-32 -28.667 -79.002 -43.002 -141.002 -43.002c-68 0 -102 22.667 -102 68c0 24.667 10.667 44.334 32 59.001c18 12.667 40 19 66 19c18.667 0 39.667 -4.66699 63 -14l67 -27c38.667 48 64.667 102 78 162l-52 -1c-54.667 -1.33301 -99.5 14.667 -134.5 48
s-52.5 77 -52.5 131c0 58 21.167 110.167 63.5 156.5s92.166 69.5 149.499 69.5c14 0 29 -1.66699 45 -5l48 -10l-1 -12c-40 2.66699 -59.667 4 -59 4c-62.667 0 -113.834 -21.667 -153.501 -65s-59.5 -96.666 -59.5 -159.999c0 -40 15.333 -73 46 -99
c28.667 -24 63.334 -36 104.001 -36c14.667 0 32.334 2.33301 53.001 7c18.667 23.333 39.834 66.5 63.501 129.5s45.167 106.5 64.5 130.5c32.667 41.333 75 62 127 62c11.333 0 23.333 -4.33301 36 -13s19 -18.334 19 -29.001c0 -96.667 -70 -184.667 -210 -264
c0 -40 -11.667 -81.667 -35 -125c-9.33301 -17.333 -33.666 -54 -72.999 -110c75.333 -27.333 133.666 -41 174.999 -41c66.667 0 121.334 9.66699 164.001 29c58 26.667 87 69.334 87 128.001c0 46.667 -23.333 82.667 -70 108l29 13c42 -34.667 63 -73 63 -115
c0 -66 -30.333 -120.667 -91 -164c-54.667 -40 -116 -60 -184 -60c-69.333 0 -144.333 23 -225 69zM555.998 579.998c0 7.33301 -0.333008 12.332 -1 14.999c-2.66699 10.667 -9 16 -19 16c-54.667 0 -94 -28 -118 -84c-12.667 -29.333 -24 -81.666 -34 -156.999
c38.667 11.333 77 39.333 115 84s57 86.667 57 126zM-6.00195 89.9971c0 -26 23.667 -39.002 71 -39.002c25.333 0 44 1.66699 56 5c23.333 6.66699 36.666 19.334 39.999 38.001c-11.333 6.66699 -28.666 16.334 -51.999 29.001c-19.333 10 -38.333 15 -57 15
c-38.667 0 -58 -16 -58 -48z" />
    <glyph glyph-name="M" unicode="M" horiz-adv-x="1182" 
d="M1398 670l0.000976562 -12c-82.667 0 -167.667 -32.333 -255 -97c-81.333 -60 -149 -135.667 -203 -227c-55.333 -94 -83 -181.667 -83 -263c0 -6.66699 4.33301 -19.667 13 -39l14 -1c23.333 -2 48.666 17.333 75.999 58l33 51c-6 -33.333 -19 -63.333 -39 -90
c-24 -32 -51 -48 -81 -48c-26 0 -46 8.66699 -60 26s-21 39.333 -21 66c0 102.667 54 218 162 346c-46 -38.667 -92 -86.334 -138 -143.001c-18 -22.667 -58.667 -76.667 -122 -162c-52.667 -71.333 -94 -124 -124 -158c19.333 46.667 32.333 103.334 39 170.001
c4 43.333 10.333 107.333 19 192c8 64 26.667 120.333 56 169c-36.667 -34.667 -77 -100.334 -121 -197.001c-49.333 -108 -87.666 -179.667 -114.999 -215c-53.333 -68 -119 -102 -197 -102c-79.333 0 -148.333 21 -207 63c-66 46.667 -99 108 -99 184
c0 72 20.667 133 62 183c44 53.333 101.333 80 172 80c57.333 0 110 -18 158 -54c-3.33301 26.667 -5 42 -5 46c0 54.667 20.667 100.667 62 138s89.666 56 144.999 56c30 0 65.333 -4.33301 106 -13c94.667 -20 154 -30 178 -30l19 -12
c-5.33301 -9.33301 -16.5 -19.666 -33.5 -30.999s-27.833 -20 -32.5 -26c-15.333 -22 -25.333 -63.333 -30 -124c-10.667 -140.667 -22.334 -224 -35.001 -250c134.667 192 272 324.333 412 397c88.667 46 180.334 69 275.001 69zM382.001 518
c0 -33.333 5.99805 -57.001 17.998 -71.001s34 -21 66 -21c7.33301 0 18.5 0.333008 33.5 1s26.167 1 33.5 1c-17.333 -41.333 -43.666 -62 -78.999 -62c-24.667 0 -49 8.33301 -73 25c3.33301 -10.667 5.33301 -26 6 -46l1 -34v-25c0 -33.333 -20.333 -67.666 -61 -102.999
s-78 -53 -112 -53c-24 0 -55 14.667 -93 44c10 0 23 -1.33301 39 -4c35.333 -6 57.666 -9 66.999 -9c38 0 69.667 21.333 95 64c21.333 37.333 32 76.333 32 117s-18.333 75 -55 103c-34 26.667 -72 40 -114 40c-66 0 -120.333 -26.333 -163 -79
c-39.333 -49.333 -59 -107.666 -59 -174.999c0 -56.667 24.667 -105.334 74 -146.001c46.667 -38 99 -57 157 -57c78 0 151 40.667 219 122c29.333 34.667 84.333 119.334 165 254.001c65.333 108 123 179.333 173 214c-75.333 30 -145.666 45 -210.999 45
c-45.333 0 -82.666 -12.667 -111.999 -38c-31.333 -26.667 -47 -62.334 -47 -107.001zM121.999 381.999c-16.667 -48 -25 -84.667 -25 -110c0 -18 5 -35.333 15 -52c4 -7.33301 15 -22 33 -44l-9 -8c-24.667 26 -39.667 43.333 -45 52c-8.66699 16 -13 39 -13 69
c0 38.667 14.667 69.667 44 93z" />
    <glyph glyph-name="N" unicode="N" horiz-adv-x="1036" 
d="M185 -49c-68.667 0 -126.999 21.5029 -174.999 64.5029s-72 98.5 -72 166.5c0 98 36.333 174.333 109 229c66 48.667 149.333 73 250 73c47.333 91.333 75.666 143.333 84.999 156c38 51.333 118.333 77 241 77c39.333 0 81.666 -6.33301 126.999 -19
c10 -2.66699 51 -16 123 -40c52.667 -17.333 94.667 -28.666 126 -33.999l59 45c22 15.333 45.333 23 70 23c40 -6.66699 60 -21 60 -43c0 -41.333 -37.333 -62 -112 -62c-24 0 -48 2 -72 6c-30.667 -46.667 -67.667 -111.334 -111 -194.001
c-51.333 -97.333 -86.333 -162 -105 -194c-43.333 -72.667 -89 -136.667 -137 -192l-28 3c33.333 41.333 50 89.666 50 144.999c0 19.333 -4 62.666 -12 129.999c-4 33.333 -6 59.666 -6 78.999c0 36 4.66699 67.333 14 94l-110 -221
c-45.333 -86 -95.666 -153.667 -150.999 -203c-66.667 -59.333 -141 -89 -223 -89zM1124 674.003c-38 0 -70.001 -20 -96.001 -60c14.667 -6 32.334 -9 53.001 -9c55.333 0 83 16.333 83 49l-1 7c-10.667 8.66699 -23.667 13 -39 13zM634 696.003l-4.00586 -2.99902
c-60 0 -121.667 -19 -185 -57c-73.333 -44 -110 -94.667 -110 -152l1 -8c62.667 -25.333 100.334 -72 113.001 -140l12 -1c38.667 -3.33301 65.667 17 81 61c9.33301 26.667 14 65.667 14 117v33l23 -50c9.33301 -22 14 -39.333 14 -52c0 -34.667 -13.833 -65.667 -41.5 -93
s-59.167 -44.333 -94.5 -51c0 -70 -26.167 -133.167 -78.5 -189.5s-113.166 -84.5 -182.499 -84.5c-41.333 0 -75.666 12.667 -102.999 38l24 3c8 0 17 -1.66699 27 -5c24.667 -8 40.334 -12 47.001 -12c58.667 0 112.167 24.5 160.5 73.5s72.5 103.167 72.5 162.5
c0 14 -7 24.667 -21 32l-13 -2c-55.333 32.667 -87 81 -95 145c-16 2.66699 -33.667 4 -53 4c-77.333 0 -143.333 -27 -198 -81s-82 -119.667 -82 -197c0 -67.333 22.333 -120.666 67 -159.999c42.667 -38 98.334 -57 167.001 -57c90 0 171.333 45.667 244 137
c32 40 88.667 135.667 170 287c66.667 124 126.334 206.667 179.001 248c-28 14.667 -61 22 -99 22c-18.667 0 -43.667 -5.33301 -75 -16c-75.333 -25.333 -119.333 -38 -132 -38c-10 0 -18 2 -24 6c56 49.333 126 74 210 74c58.667 0 116.667 -14 174 -42
c-75.333 -34.667 -113 -87.334 -113 -158.001c0 -20.667 7 -68.334 21 -143.001c6.66699 -35.333 10 -64.333 10 -87c0 -20 -2.33301 -39 -7 -57c75.333 111.333 148.666 244.333 219.999 399c-41.333 18.667 -93 37.667 -155 57c-74.667 23.333 -129.667 35 -165 35
c-7.33301 0 -12.666 -0.333008 -15.999 -1zM468.994 511.004v-18.002c-28.667 8 -43 20.333 -43 37c0 36.667 20.333 67.334 61 92.001c-28 -37.333 -42 -65.666 -42 -84.999c0 -6 2.5 -11.667 7.5 -17s10.5 -8.33301 16.5 -9z" />
    <glyph glyph-name="O" unicode="O" horiz-adv-x="602" 
d="M-22 162c0 72.667 23 151.665 69 236.998c41.333 78 91.666 143.667 150.999 197c69.333 62.667 137.666 94 204.999 94c8 0 18 -1.33301 30 -4l33 -9c-66 -9.33301 -135 -54.666 -207 -135.999c-56.667 -64 -104 -134.667 -142 -212c-43.333 -88 -65 -162 -65 -222
c0 -25.333 8.33301 -48.333 25 -69s37.334 -31 62.001 -31c56 0 114.667 37.667 176 113c45.333 56 87.666 128 126.999 216c42.667 96.667 64 176.334 64 239.001c0 23.333 -3 40 -9 50c-8.66699 13.333 -24 19.666 -46 18.999l-36 -1
c-119.333 -93.333 -179 -185 -179 -275c0 -54.667 18.667 -82 56 -82c44 0 83.333 24.667 118 74c31.333 44.667 47 87.667 47 129c0 30.667 -10.667 46 -32 46c-12 0 -24.333 -4.33301 -37 -13c-9.33301 -6 -20.666 -14.333 -33.999 -25c0 36.667 26.333 55 79 55
c26.667 0 40 -22 40 -66c0 -49.333 -18 -97.666 -54 -144.999c-38.667 -50.667 -81.667 -76 -129 -76c-23.333 0 -42 10.333 -56 31c-12.667 18.667 -19 40.334 -19 65.001c0 57.333 24.667 121 74 191c52.667 75.333 106.334 113 161.001 113
c82.667 0 124 -59.333 124 -178c0 -106 -45 -213.333 -135 -322c-94 -114 -193 -171 -297 -171c-49.333 0 -89 15.667 -119 47s-45 71.666 -45 120.999z" />
    <glyph glyph-name="P" unicode="P" horiz-adv-x="995" 
d="M889 623c55.333 -45.333 83 -95.667 83 -151c0 -70.667 -35 -122 -105 -154c-52 -24 -118 -36 -198 -36c-27.333 -86 -83 -154.667 -167 -206c-78 -47.333 -164.333 -71 -259 -71c-92.667 0 -165 24.333 -217 73c-54 50 -81 121 -81 213c0 91.333 34 172.333 102 243
s147.667 106 239 106c12 0 29.333 -3 52 -9s40 -9 52 -9c8 0 39 13.333 93 40s101.333 40 142 40c78 0 154.333 -18.333 229 -55c57.333 17.333 114.333 26 171 26c50.667 0 98.667 -8.33301 144 -25v-19c-66 19.333 -124.333 29 -175 29
c-41.333 0 -76.333 -11.667 -105 -35zM684 318.999h11.999c56 0 102.5 18.333 139.5 55s55.5 83 55.5 139c0 12 -4.16699 27.333 -12.5 46s-16.833 32.667 -25.5 42c-77.333 -48.667 -133.666 -142.667 -168.999 -282zM415.999 580.999
c-11.333 0 -22.333 -14.335 -33 -43.002c-10 -24.667 -15 -44 -15 -58c0 -35.333 9.33301 -66.666 28 -93.999c20.667 -31.333 48 -47 82 -47c22.667 0 37 6.33301 43 19c4 8.66699 6 25.334 6 50.001c0 23.333 -13 57.333 -39 102c-28 47.333 -52 71 -72 71z
M431.999 604.997c88 -60 131.999 -132.331 131.999 -216.998l29 26l5 -21c-3.33301 -10.667 -11 -24.834 -23 -42.501s-19.333 -31.5 -22 -41.5c-18 -60.667 -53.333 -110.167 -106 -148.5s-111 -57.5 -175 -57.5c-62 0 -117 20.333 -165 61c-50.667 42 -76 93.667 -76 155
c0 39.333 11.333 76 34 110l14 -19l-17 -85c0 -56.667 22.667 -103.334 68 -140.001c42 -33.333 92.333 -50 151 -50c54 0 102 16 144 48s71 74 87 126l-24 -2h-15c-46 0 -81.333 20.333 -106 61c-20.667 34 -31 75.667 -31 125c0 16 4.33301 34.333 13 55
c8.66699 16.667 17 33.667 25 51l-1 4c-27.333 6.66699 -56.666 10 -87.999 10c-93.333 0 -169.5 -32.167 -228.5 -96.5s-88.5 -143.5 -88.5 -237.5c0 -76 22.5 -135.333 67.5 -178s105.5 -64 181.5 -64c102 0 185.667 42.333 251 127c6 7.33301 54.333 94.333 145 261
c58.667 108 125 178.667 199 212c-13.333 12 -41 21.667 -83 29c-32 6 -62 9 -90 9c-92.667 0 -161.667 -23.333 -207 -70z" />
    <glyph glyph-name="Q" unicode="Q" horiz-adv-x="611" 
d="M405 56c54 0 81 13.665 81 40.998c0 14 -7.66699 34 -23 60l-22 37c44 -17.333 66 -46.666 66 -87.999c0 -34 -18 -61.667 -54 -83c-31.333 -19.333 -65 -29 -101 -29c-18.667 0 -39.667 4.66699 -63 14c-54.667 22 -89 33 -103 33c-18.667 0 -46 -6.83301 -82 -20.5
s-63.333 -20.5 -82 -20.5c-15.333 0 -28.5 6.83301 -39.5 20.5s-16.5 28.5 -16.5 44.5c0 24 14.667 43 44 57c23.333 12 48.333 18 75 18c14 0 29.667 -3 47 -9c40.667 -14 66.667 -21 78 -21c30 0 72 34.333 126 103c38 48 77.333 108.333 118 181c50 90 75 155 75 195
c0 26.667 -11 49 -33 67c-20.667 16 -44.667 24 -72 24c-62 0 -115.667 -26.333 -161 -79c-42.667 -50 -64 -106.667 -64 -170c0 -42.667 16 -64 48 -64c38.667 0 70.334 20 95.001 60c21.333 34 32 71.667 32 113c0 32 -10.333 48 -31 48c-30 0 -56.333 -20.667 -79 -62
c-20.667 -36.667 -31 -71 -31 -103c-13.333 13.333 -20 25.666 -20 36.999c0 31.333 13.833 63 41.5 95s57.167 48 88.5 48c34 0 51 -23.667 51 -71c0 -36 -12.333 -74 -37 -114c-28 -45.333 -58.333 -68 -91 -68c-74 0 -111 34.667 -111 104c0 60 31.333 115.333 94 166
c59.333 48 119.666 72 180.999 72c114.667 0 172 -60 172 -180c0 -106 -59.333 -210 -178 -312c-32 -27.333 -81.667 -64.666 -149 -111.999c32 -11.333 53.333 -18.666 64 -21.999c23.333 -6.66699 45.333 -10 66 -10zM-8 60.998c0 -24 14.001 -35.6689 42.001 -35.002
c11.333 0.666992 28.333 1.33398 51 2.00098l37 21c9.33301 6.66699 14.666 12.334 15.999 17.001c-37.333 15.333 -74 23 -110 23c-24 0 -36 -9.33301 -36 -28z" />
    <glyph glyph-name="R" unicode="R" horiz-adv-x="981" 
d="M867 637c22 -14.667 41.333 -34.334 58 -59.001c18.667 -27.333 28 -53 28 -77c0 -64.667 -21 -111.667 -63 -141c-17.333 -12 -67 -32.333 -149 -61c20.667 -16 34 -48.667 40 -98l14 -120c10 -38.667 30.667 -58 62 -58c24 0 45 7.83301 63 23.5s27 35.167 27 58.5
c0 18 -15.333 50.667 -46 98c42.667 -23.333 64 -58 64 -104c0 -28.667 -11.333 -52.167 -34 -70.5s-48.667 -27.5 -78 -27.5c-55.333 0 -93.666 8 -114.999 24c-24 18.667 -36 54 -36 106c0 10.667 0.333008 26.834 1 48.501s1 37.834 1 48.501
c0 30.667 -10.667 53.667 -32 69c-51.333 -100.667 -105.333 -173.334 -162 -218.001c-68 -53.333 -153.667 -80 -257 -80c-86 0 -155.333 23.333 -208 70c-55.333 48.667 -83 115.667 -83 201c0 98 30.333 180.333 91 247c63.333 69.333 143.333 104 240 104
c34.667 0 67 -5.33301 97 -16c69.333 60 157 90 263 90c73.333 0 134.666 -15.667 183.999 -47c60.667 24 119.667 36 177 36c36.667 0 73.667 -5.66699 111 -17v-20c-37.333 16.667 -75.666 25 -114.999 25c-54.667 0 -102.334 -11.667 -143.001 -35zM684 335
l7.00098 -0.000976562c49.333 0 91.333 15 126 45c37.333 31.333 56 71 56 119c0 31.333 -12.667 68 -38 110c-53.333 -31.333 -92 -83.666 -116 -156.999c-8.66699 -30.667 -20.334 -69.667 -35.001 -117zM370.001 467.999c0 -84 39.667 -126 119 -126
c28 0 42 11.667 42 35c0 41.333 -12.333 80 -37 116c-23.333 33.333 -54.333 60 -93 80c-20.667 -37.333 -31 -72.333 -31 -105zM427.001 598.999c88.667 -61.333 133.001 -132.669 133.001 -214.002l30 31l2 -26c0.666992 -10.667 -4.33301 -23 -15 -37
c-4 -5.33301 -13.333 -15 -28 -29c0 -66 -29 -124.333 -87 -175c-55.333 -48 -116.666 -72 -183.999 -72c-53.333 0 -104.333 15.333 -153 46c-55.333 34.667 -83 77.334 -83 128.001c2 14 3.33301 24.333 4 31c58 -115.333 135.333 -173 232 -173c62 0 114.333 19 157 57
c40 36 67.333 85 82 147l-67 -2c-28.667 -0.666992 -55 17.333 -79 54c-21.333 34 -32 66 -32 96c0 41.333 10.667 84 32 128c-20 9.33301 -44.667 14 -74 14c-88 0 -163 -33 -225 -99s-93 -143.333 -93 -232c0 -67.333 22.167 -124.666 66.5 -171.999
s100.166 -71 167.499 -71c110.667 0 196.667 42.667 258 128c11.333 15.333 54.666 103.333 129.999 264c52 110 114.667 183 188 219c-78 25.333 -131 38 -159 38c-75.333 0 -143 -26.333 -203 -79z" />
    <glyph glyph-name="S" unicode="S" horiz-adv-x="656" 
d="M534 425c0 -20 3.99902 -49.335 11.999 -88.002s12 -68 12 -88c0 -63.333 -24.667 -118.333 -74 -165s-106 -70 -170 -70c-64.667 0 -118.167 23.333 -160.5 70s-63.5 102.667 -63.5 168c0 32.667 11.667 67.334 35 104.001c16.667 26 27.667 45.667 33 59
c-3.33301 12 -11.333 23 -24 33c-40.667 -10 -75 -45 -103 -105c-24 -52 -36 -102.333 -36 -151c0 -75.333 28.333 -143.666 85 -204.999c58 -63.333 124.333 -95 199 -95s148 27.333 220 82l7 -9c-62 -60.667 -133.667 -91 -215 -91c-91.333 0 -168 34 -230 102
c-59.333 65.333 -89 144.333 -89 237c0 90.667 52.333 178.667 157 264c0 78.667 36.667 139.667 110 183c62.667 36.667 137.334 55 224.001 55c28.667 0 54 -6.66699 76 -20l25 -22c28 4.66699 43.667 7 47 7c28 0 42 -16.667 42 -50c0 -40.667 -19.667 -82 -59 -124
l-60 -61v-20zM544.999 581.998c7.33301 0 11.001 11.333 11.001 34l7 -7c-0.666992 0 -1.83398 -3.83301 -3.50098 -11.5s-5.16699 -16.167 -10.5 -25.5zM601 650.998c-6 0 -10.667 -3.00195 -14 -9.00195c4 -9.33301 6 -18.333 6 -27
c0 -13.333 -10.833 -32.166 -32.5 -56.499s-32.5 -42.166 -32.5 -53.499c0 -6 1.33301 -12.667 4 -20c18.667 2 37.667 23 57 63c17.333 36 26 65 26 87l-1 10c-4 4 -8.33301 6 -13 6zM162 503.996c86.667 38 200.001 57 340.001 57l46 96c-28.667 26 -67 39 -115 39
c-68 0 -125.667 -15.333 -173 -46c-52.667 -34 -85.334 -82.667 -98.001 -146zM395.001 519.996c-100.667 2 -178.666 -15.667 -233.999 -53l17 -40c43.333 27.333 80.666 41 111.999 41c52 0 96.333 -21 133 -63c48 18 72 50.667 72 98v15zM202.002 400.996
c12.667 -17.333 51.001 -26 115.001 -26c32.667 0 56 6 70 18c-18 28.667 -52 43 -102 43c-10.667 0 -26.334 -3.66699 -47.001 -11c-24 -8 -36 -16 -36 -24zM441.003 378.996c7.33301 -17.333 11 -37.333 11 -60c0 -36.667 -14.5 -70 -43.5 -100s-61.833 -45 -98.5 -45
c-24.667 0 -45 9 -61 27s-24 39.333 -24 64c0 16 6.5 31 19.5 45s27.5 21 43.5 21c30 0 51.333 -14.667 64 -44c-4 -12.667 -14.333 -19 -31 -19c-10 0 -16.833 -1.16699 -20.5 -3.5s-5.5 -8.16602 -5.5 -17.499c0 -6.66699 4.83301 -12.5 14.5 -17.5s18.167 -7.5 25.5 -7.5
l24 1c38.667 27.333 58 61 58 101c0 16 -3.66699 27.667 -11 35c-40 -14 -75.667 -21 -107 -21c-32 0 -74 14 -126 42c-16 0 -29.667 -19.333 -41 -58c-8.66699 -30.667 -13 -57 -13 -79c0 -52 12 -94 36 -126c27.333 -36.667 66 -55 116 -55
c65.333 0 119.666 38.667 162.999 116c36.667 66 55 134.667 55 206c0 11.333 -3 19.666 -9 24.999c-7.33301 0 -16 -5.33301 -26 -16c-3.33301 -4 -7.66602 -8.66699 -12.999 -14z" />
    <glyph glyph-name="T" unicode="T" horiz-adv-x="761" 
d="M109 667c12 4.66699 29.333 7 52 7l1 -12l-50 -7zM525 569c-32.667 0 -64.667 -5.00098 -96 -15.001c17.333 -39.333 30.333 -70.333 39 -93c14.667 -37.333 22 -69.666 22 -96.999c0 -35.333 -24.333 -91.666 -73 -168.999c-50.667 -80.667 -92 -124.334 -124 -131.001
c55.333 50 93.666 103 114.999 159c-49.333 0 -87.333 14.333 -114 43s-40 67.667 -40 117c0 10 2.66699 22 8 36c13.333 34.667 20 55 20 61c0 18 -23 27 -69 27c-66.667 0 -125.5 -25.5 -176.5 -76.5s-76.5 -109.833 -76.5 -176.5c0 -72 24.333 -133 73 -183
s109 -75 181 -75c101.333 0 174 44.333 218 133l91 249c43.333 89.333 115 134 215 134l1 -12c-70.667 0 -122 -44.667 -154 -134c-57.333 -160 -88 -243.333 -92 -250c-56 -90 -148.333 -135 -277 -135c-76 0 -140.333 24.833 -193 74.5s-79 112.167 -79 187.5
c0 80 26.833 145.667 80.5 197s120.5 77 200.5 77c23.333 0 45.666 -2.33301 66.999 -7c12 6 40.333 29.333 85 70c-41.333 55.333 -101.666 83 -180.999 83v12l33 1c27.333 0.666992 58 -8.66602 92 -27.999c14.667 -8.66699 41.667 -28 81 -58
c36.667 22 78.334 33 125.001 33c43.333 0 92 -12 146 -36c120 -53.333 196.333 -80 229 -80c28.667 0 61 4.66699 97 14c-24 -12.667 -42 -21.334 -54 -26.001c-20.667 -8 -40 -12 -58 -12c-41.333 0 -101.5 14.333 -180.5 43s-139.5 43 -181.5 43zM58 644.999l35 17l5 -11
l-35 -16zM23 623.999l20 16l30 1l-44 -27zM334 492.999c74.667 -40 111.999 -107.333 111.999 -202c11.333 15.333 17 34.333 17 57c0 4.66699 -0.666992 11.667 -2 21l6 6c-3.33301 30 -10.666 61.333 -21.999 94c-15.333 44 -32.333 68 -51 72
c-17.333 -8.66699 -29 -15 -35 -19c-14 -9.33301 -22.333 -19 -25 -29zM275.999 369.999c0 -28.667 10.001 -55.998 30.001 -81.998s44 -39 72 -39c12 0 22.667 3 32 9l3 51c2 31.333 -6.83301 64.666 -26.5 99.999s-44.834 56.666 -75.501 63.999
c-23.333 -38.667 -35 -73 -35 -103z" />
    <glyph glyph-name="U" unicode="U" horiz-adv-x="840" 
d="M976 524c-53.333 -30.667 -111.33 -83 -173.997 -157c-53.333 -62 -99.333 -126.333 -138 -193c-40 -68.667 -60 -117.334 -60 -146.001c0 -14.667 5.33301 -22 16 -22c18.667 0 55 24.333 109 73l8 -8c-54.667 -62 -97 -93 -127 -93c-32 0 -56.667 34.667 -74 104
l-49 -45c-38.667 -34 -72 -51 -100 -51c-28.667 0 -51.334 13.667 -68.001 41c-14.667 23.333 -22 50.333 -22 81c0 47.333 18 95 54 143l101 127c36.667 48 55 93.333 55 136c0 45.333 -20 82.333 -60 111c-35.333 25.333 -76.666 38 -123.999 38
c-40.667 0 -89 -6.66699 -145 -20l-3 11c40.667 17.333 82.667 26 126 26c70.667 0 132.334 -20 185.001 -60c58 -43.333 87 -99.333 87 -168c0 -47.333 -19 -96 -57 -146l-105 -130c-38.667 -49.333 -58 -91 -58 -125c0 -24 7.33301 -36 22 -36
c27.333 0 82.666 42.667 165.999 128c33.333 34 108.666 116.667 225.999 248c85.333 96 139 150.333 161 163c-15.333 32.667 -48 59 -98 79c-42.667 16.667 -85.334 25 -128.001 25h-16c-6.66699 -1.33301 -11.667 -2 -15 -2l-4 11c26 9.33301 51.667 14 77 14
c72 0 152 -34 240 -102c86 42 176 63 270 63c73.333 0 137.333 -15 192 -45c68 -37.333 102 -89.666 102 -156.999c0 -44 -17 -76.667 -51 -98c-28.667 -18 -66.334 -27 -113.001 -27c-124.667 0 -260.667 69.667 -408 209zM-69.9971 360c0 66.667 23 126.332 69 178.999
c42 47.333 96.333 83 163 107l4 -11c-62.667 -28.667 -113.334 -63.667 -152.001 -105c-48 -50.667 -72 -105.667 -72 -165c0 -42 19.667 -78 59 -108c36.667 -27.333 76.667 -41 120 -41c48.667 0 100.334 13 155.001 39l6 -11c-42.667 -28.667 -93 -43 -151 -43
c-50.667 0 -95.667 13.333 -135 40c-44 30.667 -66 70.334 -66 119.001zM1020 552.998c68 -62 106.333 -96.668 115 -104.001c86.667 -70.667 177.334 -106 272.001 -106c33.333 0 60.833 9.83301 82.5 29.5s32.5 45.834 32.5 78.501c0 56 -36 99 -108 129
c-54.667 22.667 -115.334 34 -182.001 34c-86 0 -156.667 -20.333 -212 -61z" />
    <glyph glyph-name="V" unicode="V" horiz-adv-x="597" 
d="M884 654c66 0 123.666 -19.6689 172.999 -59.002c52 -42 78 -95.333 78 -160c0 -73.333 -24 -138.333 -72 -195c-50 -59.333 -111 -89 -183 -89c-50.667 0 -94.167 18.167 -130.5 54.5s-54.5 79.833 -54.5 130.5c0 45.333 13 86 39 122
c29.333 39.333 65.666 59 108.999 59l4 -20c-34.667 -9.33301 -63.167 -28.666 -85.5 -57.999s-33.5 -62 -33.5 -98c0 -50 16 -89 48 -117s73.333 -42 124 -42c48 0 94.667 26 140 78s68 102.333 68 151c0 60.667 -19.333 109.167 -58 145.5s-88.667 54.5 -150 54.5
c-90 0 -177.333 -44.667 -262 -134c-33.333 -35.333 -102.666 -128.333 -207.999 -279c-83.333 -119.333 -155 -199 -215 -239c-2.66699 8.66699 -5 17.334 -7 26.001c0 12.667 8.66699 39.667 26 81c16.667 39.333 26.334 99 29.001 179
c3.33301 96.667 7.66602 158.334 12.999 185.001c13.333 67.333 42 120 86 158c-16 18.667 -45.667 33 -89 43c-34.667 8.66699 -68.334 13 -101.001 13c-46.667 0 -87.334 -14.667 -122.001 -44c-36 -31.333 -54 -70 -54 -116c0 -40.667 15.333 -72 46 -94h22v-29
c-33.333 5.33301 -61.333 19.166 -84 41.499s-34 49.833 -34 82.5c0 58 23 104.333 69 139c42 32 92.667 48 152 48c24 0 53.333 -5 88 -15c76.667 -22 126.334 -33 149.001 -33l14 14l56 -11l-35 -45l-17 4c-5.33301 0.666992 -9.66602 1 -12.999 1
c-32 0 -48 -46.333 -48 -139c0 -46 3 -101 9 -165c0 -56 -9.33301 -104.667 -28 -146l144 209c64.667 92.667 124.334 163 179.001 211c74 64.667 147 97 219 97z" />
    <glyph glyph-name="W" unicode="W" horiz-adv-x="592" 
d="M780 357c0 45.333 15.333 86 46 122c32 38.667 70 58 114 58l11 -1c-44.667 -14 -80.667 -36.667 -108 -68c-30 -34.667 -45 -74.334 -45 -119.001c0 -41.333 19.667 -77.666 59 -108.999c37.333 -29.333 77.333 -44 120 -44c58 0 110.667 26.333 158 79
s71 108.334 71 167.001c0 62.667 -20.333 112.667 -61 150c-40 35.333 -91.667 53 -155 53c-100 0 -192.667 -44.333 -278 -133c-33.333 -34.667 -102.333 -127.667 -207 -279c-83.333 -120.667 -158.666 -202 -225.999 -244c0 31.333 10.167 78.166 30.5 140.499
s30.166 109.5 29.499 141.5l-3 135c-94 -137.333 -208 -273 -342 -407l-34 -1c31.333 49.333 51.666 121 60.999 215l23 232c16.667 84 50.334 146.667 101.001 188l-13 8c-2 6 -0.333008 9 5 9c4.66699 0 9 -1.33301 13 -4c4.66699 0 13.667 3.33301 27 10l29 14l30 -12
c-3.33301 -17.333 -18 -29 -44 -35c-28.667 -6.66699 -45.667 -15.334 -51 -26.001c-15.333 -31.333 -23 -65.333 -23 -102c0 -16 4.33301 -56.667 13 -122c4 -30 6 -54.667 6 -74c0 -31.333 -9 -66.333 -27 -105c-1.33301 -2.66699 -19 -34.667 -53 -96
c42.667 46 88.334 105 137.001 177l125 188c46 66.667 93.333 123.334 142 170.001l8 -8c-28.667 -32.667 -43 -73 -43 -121c0 -20 4.66699 -60.333 14 -121c4.66699 -30 7 -54.333 7 -73c0 -44 -15 -92.667 -45 -146l-23.5 -41.5l-23.5 -41.5
c127.333 149.333 238.666 303.333 333.999 462c25.333 42.667 68 76.667 128 102c52.667 22 106.667 33 162 33c72.667 0 132 -21 178 -63s69 -99 69 -171c0 -70 -26.167 -131.833 -78.5 -185.5s-113.5 -80.5 -183.5 -80.5c-49.333 0 -92.333 17.5 -129 52.5
s-55 77.167 -55 126.5zM62 676l27 -5l-3 -11l-26 4zM43 690l19 -23l-84 22zM39 84l5 -9c-2 -2 -3.33301 -3.66699 -4 -5c-4.66699 -6.66699 -11.167 -12.167 -19.5 -16.5s-15.5 -7.83301 -21.5 -10.5c10 9.33301 23.333 23 40 41z" />
    <glyph glyph-name="X" unicode="X" horiz-adv-x="761" 
d="M571 9l87.002 9.00098c-26.667 -20.667 -51.667 -31 -75 -31c-51.333 0 -89 24 -113 72c-18 36 -27 82.667 -27 140l-149 -131c-60.667 -49.333 -119.334 -74 -176.001 -74c-40.667 0 -76.334 10 -107.001 30c-36 22.667 -54 53.334 -54 92.001
c0 59.333 20.667 113.666 62 162.999c38.667 47.333 87.334 80.666 146.001 99.999c64.667 135.333 149 228 253 278c-26 8.66699 -38.333 13 -37 13c-32 0 -70.667 -17.333 -116 -52c-14 -10.667 -47 -40 -99 -88c68.667 103.333 142 155 220 155
c65.333 -6 114.333 -27 147 -63c30 -32 51 -81.667 63 -149c33.333 31.333 84.666 77 153.999 137c58 47.333 120 74 186 80l1 -11c-52.667 -7.33301 -118 -49.666 -196 -126.999c-63.333 -62.667 -115 -125.667 -155 -189c-12 -18.667 -23.333 -64.334 -34 -137.001
c-10 -64 -15 -112.667 -15 -146c0 -31.333 11.333 -55 34 -71zM204.002 395.001c56.667 -4.66699 91.998 -19.002 105.998 -43.002c39.333 21.333 72 56.333 98 105c24.667 46.667 37 93.334 37 140.001c0 11.333 -3.66699 22.333 -11 33
c-47.333 -9.33301 -93.666 -39.666 -138.999 -90.999c-35.333 -41.333 -65.666 -89.333 -90.999 -144zM196 349.999c0 -22.667 12.333 -33.999 37 -33.999c6 0 14.833 1.5 26.5 4.5s18.5 6.16699 20.5 9.5c-10.667 15.333 -35.667 26.666 -75 33.999
c-6 -3.33301 -9 -8 -9 -14zM328 323l1.99805 -19c0 -54 -24.167 -105.167 -72.5 -153.5s-99.5 -72.5 -153.5 -72.5c-44.667 0 -67 25.667 -67 77c0 20 9 41.333 27 64c7.33301 8.66699 24 25.667 50 51l2 -20c0 -6 -15 -34 -45 -84c0 -38.667 14 -58 42 -58
c34 0 72.667 21.333 116 64s65 80.667 65 114l-3 15c-26.667 -15.333 -48 -23 -64 -23c-17.333 0 -32.666 10.333 -45.999 31c-1.33301 2 -9.66602 17 -24.999 45c-112 -56 -168 -130.333 -168 -223c0 -33.333 10.667 -60.833 32 -82.5s48.666 -32.5 81.999 -32.5
s75 20.333 125 61c34.667 28 78.334 71.667 131.001 131l102 116c18 94 27 157.333 27 190c0 27.333 -2.66699 50 -8 68c-18.667 -116.667 -69 -203 -151 -259z" />
    <glyph glyph-name="Y" unicode="Y" horiz-adv-x="765" 
d="M515 -15c-32.667 -55.333 -75.998 -99.3359 -129.998 -132.003c-56 -34 -115.333 -51 -178 -51c-62 0 -117.333 16 -166 48c-56.667 37.333 -85 85 -85 143c0 63.333 24 112 72 146c42 30 96 45 162 45c58.667 0 115.167 -11.5 169.5 -34.5s100.833 -55.833 139.5 -98.5
c29.333 46 44 90.333 44 133c-22 -26 -35.667 -41 -41 -45c-18 -15.333 -36.667 -23 -56 -23c-25.333 0 -46 13.333 -62 40c-12.667 22.667 -19 47.667 -19 75c0 34 21.167 85.5 63.5 154.5s63.5 114.5 63.5 136.5c0 32 -11.667 57.667 -35 77s-51.333 29 -84 29
c-36.667 0 -71.334 -8.66699 -104.001 -26c0 -26.667 -6.33301 -54.334 -19 -83.001c-2 -5.33301 -10 -20.666 -24 -45.999l-20 9c6 10.667 13 25.667 21 45c10 24 15 39.667 15 47l-3 19l-53 -2c10 4 20.667 8.83301 32 14.5s17 13.167 17 22.5
c0 16.667 -13.333 34.667 -40 54c-22 16 -43.333 26.667 -64 32l5 21c61.333 -12.667 103.666 -48.667 126.999 -108l55 18c23.333 7.33301 41.666 11 54.999 11c48.667 0 91.667 -15.667 129 -47c39.333 -33.333 59 -73.666 59 -120.999
c0 -33.333 -21.333 -86.166 -64 -158.499s-64 -127.5 -64 -165.5c9.33301 -4 18 -6 26 -6c34.667 0 74.667 44 120 132c64.667 124 113 205.667 145 245c72.667 88.667 160 133 262 133c39.333 0 74 -9 104 -27c35.333 -21.333 53 -50.333 53 -87l-25 -26
c-3.33301 34.667 -15.666 62 -36.999 82s-49.333 30 -84 30c-120.667 0 -242.334 -127 -365.001 -381c-26 -54.667 -60.333 -134 -103 -238c51.333 -54.667 107 -99 167 -133c70 -40 137.333 -60 202 -60c68 0 127 19 177 57c54.667 41.333 82 95 82 161
c0 50.667 -16.667 95.667 -50 135c-35.333 41.333 -77.666 62 -126.999 62c-26.667 0 -52 -7.66699 -76 -23c-28 -17.333 -42 -38.333 -42 -63c0 -42 12 -70.667 36 -86c37.333 -15.333 68 -29.666 92 -42.999l-46 -5c-30.667 0 -58 10 -82 30s-36 45 -36 75
c0 42 14.333 76.833 43 104.5s64 41.5 106 41.5c60.667 0 110.667 -21.5 150 -64.5s59 -95.167 59 -156.5c0 -75.333 -28.667 -137 -86 -185c-54 -44.667 -119.333 -67 -196 -67c-123.333 0 -252.333 61.333 -387 184zM226.002 608.997l9.00098 -20
c-19.333 -9.33301 -49 -22.333 -89 -39c-12.667 -4 -28.334 -8.33301 -47.001 -13c36 29.333 78.333 53.333 127 72zM130.003 564.997l9.99902 -21c-32 -13.333 -75 -20 -129 -20c30.667 8 70.334 21.667 119.001 41zM188.002 -134.003c136.667 0 233 51.667 289 155
c-32.667 40.667 -75.5 73 -128.5 97s-106.5 36 -160.5 36c-52.667 0 -96.667 -10.667 -132 -32c-42 -26 -63 -63.667 -63 -113c0 -43.333 22.333 -79 67 -107c39.333 -24 82 -36 128 -36z" />
    <glyph glyph-name="Z" unicode="Z" horiz-adv-x="473" 
d="M336 682l33 -3l-87 -17c22 13.333 40 20 54 20zM277 660l-112 -93.002c-43.333 -43.333 -65 -86 -65 -128c0 -52 18.667 -78 56 -78c42.667 0 80.334 25 113.001 75c28.667 44.667 43 89.334 43 134.001c0 17.333 -3.33301 33.333 -10 48c-8.66699 18 -20.667 27 -36 27
c-12.667 0 -18 -5 -16 -15l-24 -1l18 20l-18 3c-10.667 0 -20.667 -2 -30 -6l-5 11c13.333 5.33301 36.333 8 69 8h21c32.667 -24 49 -60.667 49 -110c0 -47.333 -17.667 -92.666 -53 -135.999c-37.333 -46.667 -79 -70 -125 -70s-69 30.667 -69 92c0 40 23.333 83 70 129
c37.333 36.667 78.666 66.667 123.999 90zM343 182.998l-2.99902 -11.0029l-27 10c-34.667 -62 -65.667 -106 -93 -132c-40 -37.333 -88.333 -56 -145 -56c-22 0 -44 4.66699 -66 14c-28 12 -42 27.333 -42 46c0 58 35 99.333 105 124c34 12 93.667 22.333 179 31
c7.33301 12.667 11 23.334 11 32.001c0 19.333 -9 29 -27 29c-16 -8.66699 -28.333 -14.667 -37 -18c-27.333 -11.333 -51.666 -17.333 -72.999 -18c-0.666992 0 -5.33398 -0.333008 -14.001 -1c-2 0 -3.66699 5 -5 15c8 20.667 25.667 34.334 53 41.001l73 10
c132 120 198 227.333 198 322c0 18.667 -10.333 33.334 -31 44.001c-16.667 8.66699 -35.334 13 -56.001 13v11l31 1c39.333 1.33301 70.833 -8 94.5 -28s35.5 -49.333 35.5 -88c0 -70 -45 -141.667 -135 -215c-27.333 -22 -62 -46.333 -104 -73c8 -4 19 -23.333 33 -58
c12 -30 27 -45 45 -45zM132.001 251.995c29.333 4.66699 50 14.667 62 30l3 -9l-7 1c-22 0 -41.333 -7.33301 -58 -22zM45.001 142.995c-38 -27.333 -57 -56.999 -57 -88.999c0 -4.66699 5 -8.66699 15 -12c8 -2.66699 15 -4 21 -4c40 0 82.333 15.333 127 46
c41.333 29.333 72 62.666 92 99.999l-36 3h-33c-45.333 0 -88.333 -14.667 -129 -44z" />
    <glyph glyph-name="bracketleft" unicode="[" horiz-adv-x="198" 
d="M73 315c0 54 12.332 98.999 36.999 134.999c26.667 39.333 65.334 65 116.001 77v-65c-60.667 -26.667 -91 -75.667 -91 -147v-194c0 -41.333 6 -72.666 18 -93.999c12.667 -23.333 37 -43 73 -59v-65c-50 12 -88.333 37 -115 75c-25.333 36 -38 80.667 -38 134v203z" />
    <glyph glyph-name="backslash" unicode="\" horiz-adv-x="279" 
d="M-27 525h63l222 -531h-62z" />
    <glyph glyph-name="bracketright" unicode="]" horiz-adv-x="187" 
d="M-6 -32c60 24 90 72.668 90 146.001v194c0 39.333 -6 70.333 -18 93c-14 26 -38 46.333 -72 61v65c102 -27.333 153 -97.333 153 -210v-203c0 -50.667 -13 -95.334 -39 -134.001c-28 -42 -66 -67.333 -114 -76v64z" />
    <glyph glyph-name="asciicircum" unicode="^" horiz-adv-x="378" 
d="M212 452l-151 -331h-57l184 404h48l186 -404h-58z" />
    <glyph glyph-name="underscore" unicode="_" horiz-adv-x="316" 
d="M-6 -41h363v-53h-363v53z" />
    <glyph glyph-name="grave" unicode="`" horiz-adv-x="190" 
d="M44 498l27 51l149 -80l-29 -50z" />
    <glyph glyph-name="a" unicode="a" horiz-adv-x="344" 
d="M195 21c8 -2.66699 14.001 -4 18.001 -4c11.333 0 25.666 7.66699 42.999 23l36 36c-7.33301 -18.667 -18.333 -36 -33 -52c-17.333 -20 -34 -30 -50 -30c-36 0 -62.667 16.333 -80 49l-33 -32c-13.333 -10.667 -27.666 -16 -42.999 -16
c-17.333 0 -32.166 7.33301 -44.499 22s-18.5 30.667 -18.5 48c0 46 22.667 93.333 68 142s91 73 137 73c15.333 0 27.666 -4.66699 36.999 -14c6 4 13 6 21 6c3.33301 0 12.666 -1.66699 27.999 -5c6 -1.33301 11.667 -2 17 -2c10 0 17.333 7 22 21l10 -4
c-11.333 -32 -26.333 -64 -45 -96l-91 -157zM58.001 46c0 -10 2.33301 -18.334 7 -25.001c20 6 37 20.667 51 44l55 90c22.667 38 37 69 43 93l-11 2c-20.667 0 -50 -28.167 -88 -84.5s-57 -96.166 -57 -119.499z" />
    <glyph glyph-name="b" unicode="b" horiz-adv-x="326" 
d="M284 206c0 -53.333 -21 -102.001 -63 -146.001s-89.667 -66 -143 -66c-23.333 0 -39.333 9.66699 -48 29c-5.33301 12.667 -8 32.667 -8 60v30l-1 7l-52 -64c8 28.667 20.167 54 36.5 76l49.5 65l130 202c46 68.667 101.667 126.334 167 173.001c36 0 54 -7.66699 54 -23
c0 -52.667 -33.333 -113.667 -100 -183l-89 -88c44.667 -8.66699 67 -32.667 67 -72zM323 449.999c18.667 48 28 76.333 28 85c-52 -50.667 -105.667 -130.667 -161 -240c22 16 47 39.667 75 71c30 34 49.333 62 58 84zM183 207.999c0 -32 3.33301 -50.333 10 -55
c14 38.667 20.667 62 20 70l-1 17c-7.33301 0 -17 -10.667 -29 -32zM169 240.999c-16.667 -13.333 -35.667 -45.667 -57 -97c-22.667 -56 -33.334 -93.333 -32.001 -112l1 -12c38.667 6 71.334 37.667 98.001 95c-17.333 23.333 -26 42.333 -26 57c0 20 5.33301 43 16 69z
" />
    <glyph glyph-name="c" unicode="c" horiz-adv-x="280" 
d="M191 181c-11.333 0 -18.333 4.66602 -21 13.999c-1.33301 3.33301 -2 13 -2 29c0 12.667 4 19 12 19c4 0 10 -2 18 -6s13.667 -6 17 -6c2.66699 0.666992 6 2.33398 10 5.00098l6 27c-2 2.66699 -3.33301 4.33398 -4 5.00098c-3.33301 4 -5.66602 6.33301 -6.99902 7
c-34 -6.66699 -70 -36.334 -108 -89.001c-41.333 -57.333 -60.666 -102 -57.999 -134l2 -23c12 -6.66699 24 -10 36 -10c15.333 0 33 4.33301 53 13c9.33301 4 25.666 13 48.999 27l7 -9c-24.667 -18 -44.667 -30.667 -60 -38c-24.667 -12 -47.667 -18 -69 -18
c-55.333 0 -83 27.667 -83 83c0 44 28.167 91.833 84.5 143.5s106.5 77.5 150.5 77.5c28 0 42 -15.667 42 -47c0 -28 -11.333 -50.667 -34 -68c-2.66699 0.666992 -6.33398 1 -11.001 1c-6 0 -16 -1 -30 -3z" />
    <glyph glyph-name="d" unicode="d" horiz-adv-x="336" 
d="M188 25l13 -8.00098c19.333 0 40 15 62 45c-2.66699 -15.333 -10 -30 -22 -44c-12.667 -16 -26 -24 -40 -24c-35.333 0 -61.666 17 -78.999 51c-21.333 -32.667 -51 -49 -89 -49c-14 0 -25 5.66699 -33 17c-2.66699 4 -9.33398 24.667 -20.001 62l-10 -5l-15 11
c46 62.667 79.667 107 101 133c36.667 44.667 84.667 67 144 67h17l4 -11l8 -6l131 177c70 87.333 121.667 131 155 131c23.333 0 35 -12.667 35 -38c0 -48.667 -31.333 -105 -94 -169c-54.667 -56 -109 -96.333 -163 -121
c-34.667 -61.333 -54.334 -96.666 -59.001 -105.999c-21.333 -41.333 -36.666 -79 -45.999 -113zM494 528.999c-26 -20.667 -50 -46.333 -72 -77c-7.33301 -10 -38 -61.333 -92 -154c91.333 64.667 146 141.667 164 231zM52 37v-11.999c24 0 54.333 32 91 96
c22.667 39.333 43 81.666 61 126.999l-5 1c-27.333 0 -59 -28.667 -95 -86c-34.667 -54 -52 -96 -52 -126z" />
    <glyph glyph-name="e" unicode="e" horiz-adv-x="337" 
d="M116 49c0 -19.333 12.001 -28.999 36.001 -28.999c11.333 0 30.333 5 57 15l57 22c-68 -44 -117 -65.333 -147 -64l-23 1c-26.667 20.667 -44.334 48 -53.001 82l-58 -51c24 40 61.667 98.667 113 176c50 69.333 105.667 104 167 104c22 0 40.667 -7.33301 56 -22l2 -23
c4 -45.333 -18.333 -81.333 -67 -108c-58.667 -22 -101.667 -38.667 -129 -50c-7.33301 -26.667 -11 -44.334 -11 -53.001zM164.001 156.001c16.667 5.33301 36.333 20.833 59 46.5s34 46.5 34 62.5l-2 17c-16.667 -9.33301 -31 -22.333 -43 -39
c-8 -10.667 -24 -39.667 -48 -87z" />
    <glyph glyph-name="f" unicode="f" horiz-adv-x="268" 
d="M-4 9l148.995 224.999c-13.333 -2.66699 -26.666 1 -39.999 11c6 12.667 26.667 19 62 19c40.667 65.333 78 118.333 112 159c44.667 54 91.667 98 141 132c14.667 0.666992 25.667 1 33 1c5.33301 0 10.333 -2.66699 15 -8s7 -10.666 7 -15.999
c0 -49.333 -23 -101.333 -69 -156c-38 -45.333 -82.667 -83.333 -134 -114l77 -27c-8 0 -20 0.833008 -36 2.5s-28 2.5 -36 2.5c-39.333 0 -81.666 -45.333 -126.999 -136l-126 -254c-56.667 -92 -117.667 -138 -183 -138c-28 0 -51 6.33301 -69 19
c-21.333 14.667 -32 35.334 -32 62.001c0 26 8 49 24 69s36.667 30 62 30c33.333 0 50 -16.333 50 -49c0 -28 -19.333 -42 -58 -42h-15l-20 26c9.33301 2.66699 16.333 5 21 7c8.66699 4 14.334 8.66699 17.001 14l-10 10l-27 -9c-17.333 -36.667 -26 -56.334 -26 -59.001
c0 -18 8.33301 -32.667 25 -44c14.667 -10 31.334 -15 50.001 -15c70.667 0 145.334 111.667 224.001 335zM267.995 295.999c38 24.667 71 55 99 91c34.667 44 52 84.333 52 121l-1 11c-32 -31.333 -65 -76 -99 -134z" />
    <glyph glyph-name="g" unicode="g" horiz-adv-x="352" 
d="M224 35c0 -18.667 -8.66699 -32.666 -26 -41.999c-21.333 -12 -34 -23.333 -38 -34l-54 -148c-28.667 -54 -69.334 -81 -122.001 -81c-18.667 0 -36.334 6 -53.001 18s-25 27 -25 45c0 38 17.333 69.667 52 95l101 54c42.667 26.667 67.334 52.667 74.001 78
c-15.333 -13.333 -34.333 -20 -57 -20c-42 0 -63 25 -63 75c0 43.333 21.833 90.5 65.5 141.5s86.834 76.5 129.501 76.5c20 0 35.333 -4.66699 46 -14c4 3.33301 17.333 6 40 8c19.333 2 31 8 35 18l11 -6l-88 -138c-32.667 -52.667 -55 -102.667 -67 -150
c5.33301 4 11.333 8.16699 18 12.5s13.667 8.16602 21 11.499zM208 263.001c-32 -31.333 -59.666 -66.334 -82.999 -105.001c-28.667 -47.333 -43 -88.666 -43 -123.999c2 -3.33301 7.33301 -5 16 -5c58 62 101.667 138 131 228c-4.66699 4.66699 -10.334 7 -17.001 7z
M-46.999 -223l19.001 6.99902c17.333 6.66699 34.333 20.334 51 41.001c8 10.667 26.333 43.667 55 99c-70.667 -24 -120.334 -63 -149.001 -117c7.33301 -20 15.333 -30 24 -30z" />
    <glyph glyph-name="h" unicode="h" horiz-adv-x="361" 
d="M-38 -3c9.33301 27.333 22.999 51.0039 40.999 71.0039c27.333 31.333 44 51.666 50 60.999l100 162c124.667 196.667 218.334 295 281.001 295c22.667 0 34 -7.33301 34 -22c0 -57.333 -31.667 -119 -95 -185c-51.333 -53.333 -109 -97.333 -173 -132
c-1.33301 -2 -2.66602 -5 -3.99902 -9c-2.66699 -6 -5 -11.667 -7 -17l50 35c21.333 13.333 40 20 56 20c11.333 -2 19.666 -3.33301 24.999 -4c11.333 -14 17 -27.333 17 -40c0 -18 -19.167 -53.667 -57.5 -107s-56.833 -86.333 -55.5 -99l1 -12
c14 2.66699 32.333 15.667 55 39l15 -14c-17.333 -16.667 -31.333 -29.334 -42 -38.001c-18.667 -15.333 -34.667 -23 -48 -23l-24 4c-17.333 15.333 -26 33.666 -26 54.999c0 25.333 16 60.666 48 105.999l68 94l-10 2c-36 0 -73.333 -33 -112 -99l-73 -150
c-14 4 -25.667 6 -35 6c-16.667 0 -29.667 -8.33301 -39 -25c-4 -7.33301 -10 -23.333 -18 -48v27c0 22 4.66699 40.667 14 56c14 23.333 22.667 40 26 50zM409.999 540.004l-0.999023 12c-28 -24 -60.667 -64.333 -98 -121c-19.333 -29.333 -46.333 -75 -81 -137
c25.333 7.33301 61.666 43 108.999 107c49.333 66.667 73 113 71 139z" />
    <glyph glyph-name="i" unicode="i" horiz-adv-x="210" 
d="M200 385l24 -9.99805c7.33301 -4.66699 11 -12 11 -22l2 -13c0 -8.66699 -5.33301 -18 -16 -28s-20.334 -15 -29.001 -15c-24.667 0 -37 8.66699 -37 26c0 11.333 4.83301 23.166 14.5 35.499s19.834 21.166 30.501 26.499zM-8 61.002l-12.999 12.999
c42 44.667 83 104 123 178l46 -1c11.333 0 19 5.33301 23 16l11 -5l-47 -87c-34 -62 -55.667 -112.667 -65 -152l11 -7c6.66699 2.66699 11.667 5.66699 15 9l22 -11c-18 -16.667 -37.667 -25 -59 -25c-14.667 0 -26.834 5.83301 -36.501 17.5s-14.5 24.834 -14.5 39.501
c0 4 1.83301 10 5.5 18s5.5 12.333 5.5 13l-1 12z" />
    <glyph glyph-name="j" unicode="j" horiz-adv-x="237" 
d="M189 340c0 35.333 16 52.999 48 52.999c23.333 0 35 -11.667 35 -35s-11.333 -40.666 -34 -51.999c-5.33301 -2.66699 -9.33301 -4 -12 -4c-24.667 0 -37 12.667 -37 38zM-40 17.999c38 42 69.667 78.998 95 110.998c34 43.333 61 84.333 81 123l15 1
c1.33301 0 12.333 -3.33301 33 -10c15.333 16 32.333 27.333 51 34l-62 -95c-48.667 -76.667 -84.667 -144.334 -108 -203.001c6.66699 0 16 6.66699 28 20c6 6 14 15.667 24 29c-6.66699 -16 -23.667 -38.333 -51 -67c-12.667 -13.333 -21.334 -25.666 -26.001 -36.999
c-36.667 -90.667 -56.667 -138.667 -60 -144c-32 -55.333 -72.333 -83 -121 -83c-32 0 -58.333 16 -79 48c0 61.333 36 106.333 108 135c47.333 18.667 79 36.334 95 53.001c6.66699 6.66699 18.334 30 35.001 70c6.66699 15.333 17 41 31 77
c-18.667 -23.333 -31 -37.666 -37 -42.999c-14.667 -12.667 -32 -19 -52 -19zM-183 -251.003c40 0 74 24.3311 102 72.998l39 72c-40 -17.333 -70.333 -32.666 -91 -45.999c-39.333 -25.333 -59 -50.666 -59 -75.999c0 -11.333 3 -19 9 -23z" />
    <glyph glyph-name="k" unicode="k" horiz-adv-x="316" 
d="M-21 28l-12.999 12c41.333 38.667 87 96.334 137 173.001c62.667 95.333 104.334 156.333 125.001 183c52 66 106.667 114.333 164 145l35 -7l1 -23c1.33301 -32.667 -15 -70.667 -49 -114c-26.667 -34 -62.334 -69.333 -107.001 -106l-104 -83
c11.333 7.33301 26.833 16.666 46.5 27.999s35.167 17 46.5 17c18.667 0 30.667 -5.33301 36 -16c3.33301 -6.66699 5 -20.667 5 -42c0 -12.667 -6.83301 -23.834 -20.5 -33.501l-61.5 -42.5l12 -25c-1.33301 -10 -6.33301 -22.667 -15 -38
c-10.667 -16.667 -17 -28.667 -19 -36l5 -10l85 58c-10.667 -12 -27.5 -29.5 -50.5 -52.5s-42.833 -34.5 -59.5 -34.5c-28 0 -42 13.333 -42 40c0 12 4.33301 27 13 45c12 24.667 18.667 39.334 20 44.001l-12 5c-24 0 -42.333 -10.667 -55 -32l-23 -58
c-8 -21.333 -19.667 -32 -35 -32c-4.66699 0 -14 2.66699 -28 8c-8 -8 -16.333 -20.667 -25 -38h-16c0 10.667 4 23 12 37c19.333 34 29.666 55 30.999 63zM377.001 504c-29.333 -24.667 -58.667 -59.001 -88 -103.001c-10 -15.333 -33.667 -54.666 -71 -117.999
c106 87.333 159 161 159 221zM146 140.999l21 0.999023c4 2.66699 6.66699 4 8 4l35 19c16 8.66699 24 22.334 24 41.001c-16 0 -33 -7.66699 -51 -23c-10 -8.66699 -22.333 -22.667 -37 -42z" />
    <glyph glyph-name="l" unicode="l" horiz-adv-x="227" 
d="M-35 49c14.667 30.667 37.999 69.6689 69.999 117.002c43.333 63.333 69 101.666 77 114.999l66 108c53.333 80.667 110.333 141.667 171 183c34.667 -4 52 -18.333 52 -43c0 -31.333 -24.667 -76 -74 -134l-142 -160c-52 -58.667 -79.667 -99.334 -83 -122.001l-21 -71
c2.66699 -8.66699 4.33398 -15 5.00098 -19c16 0 31.333 9.33301 46 28c0 -17.333 -5.5 -31.5 -16.5 -42.5s-25.167 -16.5 -42.5 -16.5c-36 0 -54 25 -54 75v19c0 6 0.333008 12 1 18zM184.999 288.002c46 42.667 80.667 79.666 104 110.999c38 50.667 57 96.334 57 137.001
c-30 -27.333 -60.667 -66 -92 -116c-30 -46.667 -53 -90.667 -69 -132z" />
    <glyph glyph-name="m" unicode="m" horiz-adv-x="484" 
d="M286 259c26.667 0 41.999 -17.667 45.999 -53c27.333 23.333 46 37.666 56 42.999c14 7.33301 28.333 11 43 11c27.333 0 41 -15.333 41 -46c0 -14 -22 -56 -66 -126l-45 -71l10 -8c8 1.33301 13.333 3 16 5v9l16 1l9 -20l-28 -14c-12.667 -6 -22.667 -9 -30 -9
c-12 0 -22.5 5.5 -31.5 16.5s-13.5 22.833 -13.5 35.5c0 28 13 61 39 99c38 55.333 58.333 86 61 92l-10 6c-21.333 0 -55.666 -34.667 -102.999 -104c-12 -17.333 -41 -64 -87 -140c-10 10 -17.333 15 -22 15c-16 0 -29.333 -9.33301 -40 -28l-10 6l132 243l-12 5
c-22.667 0 -57 -33.333 -103 -100l-90 -132c-9.33301 4.66699 -16 7 -20 7c-15.333 0 -36.666 -17.667 -63.999 -53l36 93l-21 -11c15.333 28.667 42.333 70.334 81 125.001c46.667 66.667 75.667 100 87 100c7.33301 0 14.666 -2 21.999 -6l38 40v-15
c0 -9.33301 -4 -20 -12 -32c-10 -14.667 -15.667 -24.667 -17 -30l1 -3l42 31c16.667 12 33 18 49 18z" />
    <glyph glyph-name="n" unicode="n" horiz-adv-x="352" 
d="M299 267c11.333 0 20.832 -5.16406 28.499 -15.4971s11.5 -21.5 11.5 -33.5c0 -16 -9.33301 -39.333 -28 -70l-82 -136c5.33301 -4 11.333 -6 18 -6l23 20c7.33301 6.66699 13.333 15 18 25l3 -27c0 -8 -6.66699 -16.667 -20 -26s-24.333 -14 -33 -14
c-22 0 -37.5 4.16699 -46.5 12.5s-13.5 23.166 -13.5 44.499c0 27.333 18.667 66.666 56 117.999l46 62c-3.33301 6 -8.33301 9 -15 9c-33.333 0 -77.666 -45.667 -132.999 -137l-58 -98c-28.667 0 -47 -2.33301 -55 -7s-19.333 -19.667 -34 -45c4 20 15.333 53.667 34 101
l-33 -30l-1 26c41.333 47.333 69 80.333 83 99c31.333 41.333 53 78.333 65 111c10.667 0.666992 26.167 2.16699 46.5 4.5s32.5 10.166 36.5 23.499l11 -5l-34 -59c22.667 15.333 39.667 26.333 51 33c22 13.333 40.333 20 55 20z" />
    <glyph glyph-name="o" unicode="o" horiz-adv-x="359" 
d="M41 97l-41.999 -46l-15 15c47.333 60 86.666 108 117.999 144c55.333 63.333 104.333 95 147 95c23.333 0 43 -9 59 -27s24 -38.667 24 -62c0 -7.33301 -1.5 -17.5 -4.5 -30.5s-4.5 -22.5 -4.5 -28.5c0 -9.33301 7 -16 21 -20c-44 -40.667 -78.667 -71 -104 -91
c-42.667 -34.667 -83.667 -52 -123 -52c-26 0 -45 11.333 -57 34c-6.66699 12.667 -13 35.667 -19 69zM225.001 144c8.66699 8 17.333 26.002 26 54.002c8.66699 26 13 46 13 60c0 12 -4 18.333 -12 19c-92.667 -80 -139 -165.667 -139 -257c13.333 0 33.333 10.667 60 32
s40 38.666 40 51.999c0 2 -7.16699 11.167 -21.5 27.5s-21.5 30.5 -21.5 42.5c0 7.33301 7.33301 17.666 22 30.999c8 7.33301 14.333 11 19 11c16 0 24 -9.66699 24 -29c0 -18.667 -6.33301 -29 -19 -31z" />
    <glyph glyph-name="p" unicode="p" horiz-adv-x="318" 
d="M45 156c22.667 8.66699 42.667 31.334 60 68.001s34 58 50 64c10 -3.33301 19.667 -5 29 -5h10l22 23l9 -8l-4 -15l25 3c19.333 0 35.833 -6.33301 49.5 -19s20.5 -28.667 20.5 -48c0 -76 -45.333 -146.333 -136 -211l16 -10l69 22c-14 -25.333 -31 -38 -51 -38
c-7.33301 0 -18.166 1.66699 -32.499 5s-25.166 5 -32.499 5c-6.66699 0 -15.834 -1.83301 -27.501 -5.5s-19.834 -5.5 -24.501 -5.5c-14 0 -27.667 7.66699 -41 23c-42 -92.667 -67.667 -148.334 -77 -167.001c-46 -92 -79 -138 -99 -138c-10 0 -18.333 4.33301 -25 13
c18.667 38.667 42.667 86 72 142l62 120c24.667 50 50 106 76 168zM223 260c-20 -16 -38.334 -35.999 -55.001 -59.999c-3.33301 -4.66699 -26.666 -45.334 -69.999 -122.001c7.33301 0 15.666 -2.66699 24.999 -8c10.667 -8 18.334 -13.333 23.001 -16l66 95
c19.333 34 29 71 29 111h-18zM84.999 23.001c0 -6 2.33301 -9 7 -9h5c4.66699 2.66699 8 4.33398 10 5.00098c7.33301 4 11 6.66699 11 8c0 3.33301 -2.5 7.16602 -7.5 11.499s-9.16699 6.5 -12.5 6.5c-8.66699 0 -13 -7.33301 -13 -22z" />
    <glyph glyph-name="q" unicode="q" horiz-adv-x="412" 
d="M234 24c15.333 0 32.334 8.33496 51.001 25.002l44 42l12 -21c-6.66699 -10.667 -21 -22.334 -43 -35.001c-43.333 -24.667 -65 -43.334 -65 -56.001c0 -10 2.66699 -24.667 8 -44s8 -34 8 -44c0 -48 -14 -93.667 -42 -137c-32 -48.667 -70.667 -73 -116 -73
c-41.333 0 -62 27.333 -62 82c0 28.667 8.66699 60 26 94c8 15.333 40 62.333 96 141c-6 0 -14.833 -0.833008 -26.5 -2.5s-20.5 -2.5 -26.5 -2.5c-23.333 0 -38.333 9 -45 27c-2 4.66699 -5.33301 24 -10 58l-53 -44l-17 12c25.333 20 56.5 55.167 93.5 105.5
s66.833 85.166 89.5 104.499c38.667 33.333 80.667 50 126 50c3.33301 -8.66699 9.66602 -15 18.999 -19c17.333 3.33301 34.666 7 51.999 11c4.66699 0 8.33398 -0.333008 11.001 -1c12 11.333 24.667 17.333 38 18l-60 -96c-7.33301 -11.333 -27 -43.666 -59 -96.999
l-59 -97zM119.001 39.002c0 -7.33301 0.666992 -12.667 2 -16c63.333 38 113.333 120 150 246c-28 0 -61 -31.333 -99 -94c-35.333 -58.667 -53 -104 -53 -136zM117.001 -244.999c0 -12.667 6.66797 -19 20.001 -19c19.333 0 38.666 21.667 57.999 65
c17.333 38.667 26 70 26 94c0 28.667 -7 53 -21 73c-55.333 -86 -83 -157 -83 -213z" />
    <glyph glyph-name="r" unicode="r" horiz-adv-x="247" 
d="M207 310c17.333 0 26 -11.0029 26 -33.0029c0 -30.667 -11 -64.667 -33 -102l-73 -124c0 -16.667 4.66699 -30.667 14 -42c-2 -10 -16 -15 -42 -15c-11.333 0 -20.666 7.66699 -27.999 23c-6.66699 12.667 -10 25.334 -10 38.001c0 20.667 12.5 52 37.5 94
s37.5 71.667 37.5 89c-22.667 -7.33301 -43.667 -21.666 -63 -42.999c-5.33301 -5.33301 -30.333 -41.666 -75 -108.999c-4.66699 5.33301 -8 12 -10 20c4.66699 12 22.667 37 54 75l25.5 93.5c10.333 38.333 31.166 57.5 62.499 57.5c3.33301 -6.66699 5 -13 5 -19
c0 -5.33301 -1.33301 -13.5 -4 -24.5s-4 -18.833 -4 -23.5c28 30 54.667 45 80 45zM109 305.997l7 -5c-17.333 -4.66699 -26 -17.667 -26 -39l13 21c4 7.33301 6 15 6 23z" />
    <glyph glyph-name="s" unicode="s" horiz-adv-x="390" 
d="M73 -6c-15.333 0 -27.667 4.00391 -37 12.0039c-13.333 11.333 -21.666 17.666 -24.999 18.999c-6 -2.66699 -11 -8.33398 -15 -17.001l-17 -1c0 9.33301 4.16699 20.5 12.5 33.5s12.5 22.5 12.5 28.5c0 2 -0.666992 5.33301 -2 10c10.667 22 27.667 33 51 33l53 76
l36 86l19.5 31.5c9 14.333 19.833 21.5 32.5 21.5c7.33301 0 17.333 -2.66699 30 -8l1 -11c0 -10.667 -8.66699 -24.334 -26 -41.001c-10.667 -10 -17 -18.333 -19 -25c18.667 -40.667 28 -98.334 28 -173.001c23.333 9.33301 46.333 25.333 69 48c8 8 38 46.333 90 115
l10 -7c-60 -107.333 -123.667 -166.333 -191 -177c-34.667 -36 -72.334 -54 -113.001 -54zM182.999 278.004c6 4.66699 10.667 11.667 14 21c-10 -4 -16 -11 -18 -21h4zM87.999 104.004l21.999 -14.998c20 21.333 30 50.666 30 87.999v13
c-25.333 -30.667 -42.666 -59.334 -51.999 -86.001zM51.998 65.0059l17 -3c8 0 13.667 2 17 6c-7.33301 6 -13 9 -17 9c-8 0 -13.667 -4 -17 -12z" />
    <glyph glyph-name="t" unicode="t" horiz-adv-x="215" 
d="M310 360l1.00391 -26c-16.667 -2 -46.334 -3 -89.001 -3c-42 -61.333 -71 -106 -87 -134c-28.667 -49.333 -51.334 -98 -68.001 -146c5.33301 -12 13.666 -18 24.999 -18c12 0 26 6 42 18c8 5.33301 20.333 16.333 37 33c-9.33301 -26.667 -25.5 -48.334 -48.5 -65.001
s-48.5 -25 -76.5 -25c-16 0 -29 8.33301 -39 25c-9.33301 14.667 -14 30.334 -14 47.001c0 27.333 7.33301 59.333 22 96c4 9.33301 30.667 60.666 80 153.999c-6 10.667 -24.333 16 -55 16h-17v12l36 -1c53.333 -1.33301 105.333 25.334 156 80.001l112 148l21 1l-114 -211
c9.33301 -1.33301 18.666 -2 27.999 -2h24c8 0 16 0.333008 24 1z" />
    <glyph glyph-name="u" unicode="u" horiz-adv-x="391" 
d="M283 23c5.33301 0 13.667 4.33301 25 13l52 40c-23.333 -54.667 -63.666 -82 -120.999 -82c-16.667 0 -28.667 12.333 -36 37l-10 34l-48 -46c-20 -16 -40 -24 -60 -24c-12.667 0 -24.667 6.5 -36 19.5s-17 25.833 -17 38.5c0 5.33301 1.33301 11.333 4 18
c6.66699 16.667 10 26.334 10 29.001l-2 8l-53 -58c9.33301 32 35.666 77.333 78.999 136c49.333 66.667 88.666 100 117.999 100c2.66699 0 6.5 -0.333008 11.5 -1s7.5 -3.33398 7.5 -8.00098c-36.667 -73.333 -56.667 -114 -60 -122c-24 -51.333 -38.333 -93.333 -43 -126
l9 -3c28.667 0 78 56.667 148 170l55 90l11 1c6.66699 0 18 -4 34 -12c4.66699 0 7 -2 7 -6c0 -7.33301 -14.667 -37.333 -44 -90c-32.667 -59.333 -53 -108 -61 -146c6.66699 -6.66699 13.334 -10 20.001 -10z" />
    <glyph glyph-name="v" unicode="v" horiz-adv-x="359" 
d="M89 -6c-42.667 0 -64.002 16.001 -64.002 48.001c0 4.66699 1.66699 17 5 37c1.33301 8 2 15.667 2 23l-1 7l-44 -47l-1 36l80 94c24.667 31.333 49 64.666 73 99.999c14.667 -6 28.334 -10.667 41.001 -14c0.666992 4.66699 3.66699 8.66699 9 12c8 5.33301 13 9 15 11
l11 -4l-127 -266c9.33301 -9.33301 19.666 -14 30.999 -14c10.667 0 31.5 14.667 62.5 44s46.5 49 46.5 59c0 5.33301 -7.33301 22 -22 50c-7.33301 14 -11 26 -11 36c0 17.333 7.66699 37.333 23 60s31 34 47 34c16.667 0 32.334 -8.5 47.001 -25.5s22 -34.167 22 -51.5
c0 -10 -6.66699 -32.667 -20 -68c2.66699 -1.33301 6.66699 -2 12 -2c4.66699 0 10.334 0.666992 17.001 2l1 -17c-5.33301 -8 -14.333 -11.333 -27 -10l-104 -85c-40.667 -32.667 -82 -49 -124 -49zM244.998 175.001l9.99902 38c2.66699 11.333 4 20 4 26
c0 9.33301 -2 18 -6 26c-19.333 -18 -29 -36.667 -29 -56c0 -12.667 4.33301 -25.667 13 -39c0.666992 2 3.33398 3.66699 8.00098 5z" />
    <glyph glyph-name="w" unicode="w" horiz-adv-x="497" 
d="M152 67c-46.667 -44 -84.665 -66 -113.998 -66c-34.667 0 -52 15.667 -52 47c0 17.333 3 34.666 9 51.999l19 51l-2 4l-22 -9c0 12 18.5 39.833 55.5 83.5s61.167 65.5 72.5 65.5c9.33301 0 20 -3 32 -9l-16 -52c-52 -91.333 -78 -161 -78 -209
c32 8.66699 61.667 30.667 89 66c12 15.333 34.333 51.333 67 108c26.667 46 49.334 78 68.001 96c23.333 -10 38 -14.333 44 -13l-14 -33c-14 -32.667 -28 -61.667 -42 -87c-28 -50 -42 -96.667 -42 -140l12 -6c36 0 66.333 18.667 91 56c9.33301 16 21.666 36 36.999 60
c-17.333 16 -26 40.333 -26 73c0 24.667 5 45.334 15 62.001c11.333 20.667 28.666 31 51.999 31c20 0 36.167 -6 48.5 -18s18.5 -28 18.5 -48c0 -8 -2.5 -20 -7.5 -36s-7.5 -27.667 -7.5 -35l5 -14c9.33301 7.33301 18 19.333 26 36c0 -31.333 -9.33301 -50 -28 -56
c-21.333 -7.33301 -57 -33.333 -107 -78c-40.667 -36.667 -86.334 -55 -137.001 -55c-21.333 0 -37 6.66699 -47 20c-6.66699 9.33301 -13 27 -19 53zM375.002 167l23 78c0 12.667 -2 19 -6 19c-6 0 -12.333 -10.333 -19 -31c-6 -17.333 -9 -30.333 -9 -39
c0 -14 3.66699 -23 11 -27z" />
    <glyph glyph-name="x" unicode="x" horiz-adv-x="403" 
d="M303 236c-14.667 0 -29.667 -5.33301 -45 -16c-4.66699 -3.33301 -25.334 -23.333 -62.001 -60c0 -35.333 1.33301 -61 4 -77c6 -36.667 19 -55 39 -55c24 0 58.667 20 104 60l17 -12l-68 -53c-28.667 -19.333 -55.334 -29 -80.001 -29c-23.333 0 -41.333 8.66699 -54 26
c-3.33301 4.66699 -12.666 24 -27.999 58l-51 -50c-22.667 -18.667 -43.667 -28 -63 -28c-11.333 -0 -22.333 2.33301 -33 7v34c0 16.667 5.66699 25 17 25c3.33301 0 10.333 -4 21 -12s19.667 -12 27 -12c16 0 33.667 13 53 39l24 33v18c0 26.667 -1.66699 56 -5 88
c-28.667 -32 -63.667 -56.667 -105 -74c8.66699 8.66699 25.667 24 51 46c40.667 35.333 66 64.666 76 87.999c21.333 0 35 3 41 9l-2 8l11 5c6.66699 -14.667 10 -37.667 10 -69v-31l65 50.5c29.333 22.333 53 33.5 71 33.5c29.333 0 44 -15.333 44 -46
c0 -9.33301 -4 -15.666 -12 -18.999c-31.333 10 -53.666 15 -66.999 15z" />
    <glyph glyph-name="y" unicode="y" horiz-adv-x="407" 
d="M-4 85l-1.00098 20.998l150 177c7.33301 0.666992 15.666 0.333984 24.999 -0.999023l26 -4l9 5c0 5.33301 3.33301 8 10 8c2.66699 0 5.66699 -1 9 -3l-78 -126c-29.333 -49.333 -49 -94.333 -59 -135l18 -6c45.333 16 85 54.667 119 116
c44.667 80 75.334 128.333 92.001 145c4 -0.666992 9.66699 -1 17 -1h27c6.66699 0 14.334 4.33301 23.001 13l10 -6l-106 -147c-54.667 -77.333 -82 -124.666 -82 -141.999c15.333 7.33301 34.333 19.333 57 36c32 24 50.667 37.667 56 41
c-11.333 -25.333 -30 -46.666 -56 -63.999c-53.333 -34.667 -84.333 -64 -93 -88c-50 -136.667 -113 -205 -189 -205c-21.333 0 -40 6.66699 -56 20c-18 14 -27 31.333 -27 52c0 39.333 22 72.666 66 99.999c7.33301 4.66699 48 23.667 122 57c44.667 20 67 40.333 67 61
l-2 9c-20.667 -10 -34 -16 -40 -18c-16 -6 -30.333 -9 -43 -9c-30 0 -45 17.667 -45 53c0 33.333 4.66699 57.333 14 72l-16 -20c-6 -5.33301 -14 -9 -24 -11zM-68.001 -227.002l5 -0.000976562c39.333 0 77 25.667 113 77l48 71
c-119.333 -33.333 -179 -74.666 -179 -123.999c0 -9.33301 4.33301 -17.333 13 -24z" />
    <glyph glyph-name="z" unicode="z" horiz-adv-x="300" 
d="M-126 -233c0 50 21.666 90 64.999 120c18 12 58.333 29.667 121 53c43.333 16 65 31.667 65 47l-11 11c-4.66699 0.666992 -11 1 -19 1h-14c-5.33301 0 -10.666 -0.333008 -15.999 -1c-18 0 -27 6.66699 -27 20c0 18.667 11 28 33 28c3.33301 0 22 -3.66699 56 -11
c13.333 10 30 30.667 50 62c22.667 36 34 65 34 87c0 21.333 -12 32 -36 32c-9.33301 0 -38.333 -26.667 -87 -80l-87 -98c24 42.667 56.667 88.667 98 138c54 64 95 96 123 96c40.667 0 61 -24.333 61 -73c0 -52.667 -16 -91.334 -48 -116.001
c-53.333 -41.333 -82 -64.666 -86 -69.999l19 -28c46.667 22 93.334 55.333 140.001 100c44 42 80.333 86.667 109 134l10 -6c-80.667 -122.667 -162 -204.667 -244 -246l-49 -178c-29.333 -62.667 -86.333 -94 -171 -94c-34.667 0 -57.334 3.33301 -68.001 10
c-14 9.33301 -21 30 -21 62zM-75.001 -280c49.333 0 90.667 24.001 124 72.001c22 32 42.667 78.667 62 140c-87.333 -23.333 -152.333 -74.333 -195 -153c-2 -4 -3 -9.66699 -3 -17c0.666992 -14.667 1 -22.334 1 -23.001c1.33301 -8.66699 5 -15 11 -19z" />
    <glyph glyph-name="braceleft" unicode="{" horiz-adv-x="171" 
d="M77 413c0 44 15.667 74.666 47 91.999c23.333 13.333 59 20 107 20c-32 -10 -54.667 -21 -68 -33c-18 -16 -27 -38.667 -27 -68c0 -12 1 -29.667 3 -53s3 -41 3 -53c0 -53.333 -17.333 -87.666 -52 -102.999c34.667 -12.667 52 -49.667 52 -111
c0 -15.333 -0.666992 -34.666 -2 -57.999l-3 -38c0 -30.667 8.33301 -54 25 -70c13.333 -12 36.333 -23 69 -33c-49.333 0 -86.333 7.33301 -111 22c-31.333 18.667 -47 51 -47 97c0 12 1.16699 29.667 3.5 53s3.5 40.666 3.5 51.999c0 28 -7.33301 48.333 -22 61
c-12 11.333 -32.667 19 -62 23c30 7.33301 52 18.333 66 33s21 36.667 21 66c0 14.667 -0.333008 26 -1 34c-3.33301 40.667 -5 63 -5 67z" />
    <glyph glyph-name="bar" unicode="|" horiz-adv-x="245" 
d="M208 525h56v-531h-56v531z" />
    <glyph glyph-name="braceright" unicode="}" horiz-adv-x="170" 
d="M-11 -95c30.667 9.33301 52.999 20.999 66.999 34.999c15.333 16.667 23 40 23 70c0 14.667 -0.333008 26.334 -1 35.001c-3.33301 42 -5 65.667 -5 71c0 52.667 17 85.667 51 99c-34 15.333 -51 53 -51 113c0 10 0.666992 24.833 2 44.5s2 34.5 2 44.5
c0 32.667 -7 56.667 -21 72c-12 13.333 -34.667 25.333 -68 36c47.333 0 82.333 -6.33301 105 -19c30.667 -17.333 46 -48 46 -92c0 -11.333 -1.16699 -28 -3.5 -50s-3.5 -38.667 -3.5 -50c0 -30 7.33301 -52.667 22 -68c12.667 -13.333 34.334 -24.333 65.001 -33
c-56 -6.66699 -84 -35.667 -84 -87c0 -11.333 1.16699 -28.333 3.5 -51s3.5 -39.667 3.5 -51c0 -45.333 -15 -77.333 -45 -96c-24 -15.333 -60 -23 -108 -23z" />
    <glyph glyph-name="asciitilde" unicode="~" horiz-adv-x="351" 
d="M136 206c-16 0 -30.334 -7.66602 -43.001 -22.999c-6 -6.66699 -15 -21.334 -27 -44.001l-37 43c34 59.333 69.667 89 107 89c16.667 0 37 -5 61 -15c54 -22.667 85.333 -34 94 -34c22.667 0 45.334 21 68.001 63l38 -43c-31.333 -56 -67 -84 -107 -84
c-16 0 -35.667 5 -59 15c-51.333 22 -83 33 -95 33z" />
    <glyph glyph-name="quotesinglbase" horiz-adv-x="159" 
d="M53 -53l68 147h64l-67 -147h-65z" />
    <glyph glyph-name="florin" horiz-adv-x="345" 
d="M363 474c-38.667 0 -65.333 -34 -80 -102h79l-11 -59h-78l-54 -289c-11.333 -62 -26.333 -105 -45 -129c-26 -34 -67 -51 -123 -51c-14.667 0 -29.667 2 -45 6l11 56c18.667 -3.33301 36 -5 52 -5c28.667 0 50.667 15.333 66 46c8.66699 17.333 16.667 45.333 24 84
l53 282h-80l11 59h79c12.667 107.333 69 161 169 161l-12 -63z" />
    <glyph glyph-name="quotedblbase" horiz-adv-x="262" 
d="M157 -53l68 147h64l-67 -147h-65zM53 -53l68 147h64l-67 -147h-65z" />
    <glyph glyph-name="ellipsis" unicode="&#x85;" horiz-adv-x="607" 
d="M553 94h64v-100h-64v100zM319 94h64v-100h-64v100zM85 94h64v-100h-64v100z" />
    <glyph glyph-name="dagger" horiz-adv-x="312" 
d="M226 -95h-64v421h-126v59h126v140h64v-140h127v-59h-127v-421z" />
    <glyph glyph-name="daggerdbl" horiz-adv-x="312" 
d="M226 -96h-63v324h-127v58h127v55h-127v60h127v124h63v-124h127v-60h-127v-55h127v-58h-127v-324z" />
    <glyph glyph-name="circumflex" horiz-adv-x="271" 
d="M176 474l-59 -49h-81l116 100h49l115 -100h-81z" />
    <glyph glyph-name="perthousand" horiz-adv-x="731" 
d="M558 112c0 37.333 12.1689 68.5 36.502 93.5s55.166 37.5 92.499 37.5s68 -12.5 92 -37.5s36 -56.167 36 -93.5c0 -36.667 -12.333 -67 -37 -91s-55.334 -36 -92.001 -36c-35.333 0 -65.5 12.333 -90.5 37s-37.5 54.667 -37.5 90zM3.00195 403
c0 37.333 12.332 68.333 36.999 93s55.667 37 93 37c36 0 66 -12.833 90 -38.5s36 -56.5 36 -92.5s-12.167 -66 -36.5 -90s-54.5 -36 -90.5 -36c-35.333 0 -65.666 12.333 -90.999 37s-38 54.667 -38 90zM118.001 -6l239 531h63l-238 -531h-64zM277.001 112
c0 37.333 12.332 68.5 36.999 93.5s55.667 37.5 93 37.5c36.667 0 67 -12.667 91 -38s36 -56.333 36 -93c0 -36 -12.333 -66.167 -37 -90.5s-55 -36.5 -91 -36.5c-35.333 0 -65.666 12.333 -90.999 37s-38 54.667 -38 90zM619 110c0 -19.333 6.33301 -34.667 19 -46
s28.667 -17 48 -17s35.333 6 48 18s19 27.667 19 47c0 18 -6.5 34.167 -19.5 48.5s-28.5 21.5 -46.5 21.5c-20 0 -36.333 -7 -49 -21s-19 -31 -19 -51zM65 402.999c0 -18.667 6.33203 -34.332 18.999 -46.999s28.334 -19 47.001 -19c20 0 36.167 6.33301 48.5 19
s18.5 29 18.5 49c0 18.667 -6.16699 34.5 -18.5 47.5s-27.833 19.5 -46.5 19.5c-20.667 0 -37.167 -6.33301 -49.5 -19s-18.5 -29.334 -18.5 -50.001zM338.999 109.001c0 -18 6.5 -32.833 19.5 -44.5s28.833 -17.5 47.5 -17.5c19.333 0 35.333 6 48 18s19 27.667 19 47
c0 18 -6.5 34.167 -19.5 48.5s-28.5 21.5 -46.5 21.5c-20.667 0 -37.167 -6.83301 -49.5 -20.5s-18.5 -31.167 -18.5 -52.5z" />
    <glyph glyph-name="Scaron" horiz-adv-x="515" 
d="M534 425c0 -20 3.99902 -49.335 11.999 -88.002s12 -68 12 -88c0 -63.333 -24.667 -118.333 -74 -165s-106 -70 -170 -70c-64.667 0 -118.167 23.333 -160.5 70s-63.5 102.667 -63.5 168c0 32.667 11.667 67.334 35 104.001c16.667 26 27.667 45.667 33 59
c-3.33301 12 -11.333 23 -24 33c-40.667 -10 -75 -45 -103 -105c-24 -52 -36 -102.333 -36 -151c0 -75.333 28.333 -143.666 85 -204.999c58 -63.333 124.333 -95 199 -95s148 27.333 220 82l7 -9c-62 -60.667 -133.667 -91 -215 -91c-91.333 0 -168 34 -230 102
c-59.333 65.333 -89 144.333 -89 237c0 90.667 52.333 178.667 157 264c0 78.667 36.667 139.667 110 183c62.667 36.667 137.334 55 224.001 55c28.667 0 54 -6.66699 76 -20l25 -22c28 4.66699 43.667 7 47 7c28 0 42 -16.667 42 -50c0 -40.667 -19.667 -82 -59 -124
l-60 -61v-20zM544.999 581.998c7.33301 0 11.001 11.333 11.001 34l7 -7c-0.666992 0 -1.83398 -3.83301 -3.50098 -11.5s-5.16699 -16.167 -10.5 -25.5zM601 650.998c-6 0 -10.667 -3.00195 -14 -9.00195c4 -9.33301 6 -18.333 6 -27
c0 -13.333 -10.833 -32.166 -32.5 -56.499s-32.5 -42.166 -32.5 -53.499c0 -6 1.33301 -12.667 4 -20c18.667 2 37.667 23 57 63c17.333 36 26 65 26 87l-1 10c-4 4 -8.33301 6 -13 6zM162 503.996c86.667 38 200.001 57 340.001 57l46 96c-28.667 26 -67 39 -115 39
c-68 0 -125.667 -15.333 -173 -46c-52.667 -34 -85.334 -82.667 -98.001 -146zM395.001 519.996c-100.667 2 -178.666 -15.667 -233.999 -53l17 -40c43.333 27.333 80.666 41 111.999 41c52 0 96.333 -21 133 -63c48 18 72 50.667 72 98v15zM202.002 400.996
c12.667 -17.333 51.001 -26 115.001 -26c32.667 0 56 6 70 18c-18 28.667 -52 43 -102 43c-10.667 0 -26.334 -3.66699 -47.001 -11c-24 -8 -36 -16 -36 -24zM441.003 378.996c7.33301 -17.333 11 -37.333 11 -60c0 -36.667 -14.5 -70 -43.5 -100s-61.833 -45 -98.5 -45
c-24.667 0 -45 9 -61 27s-24 39.333 -24 64c0 16 6.5 31 19.5 45s27.5 21 43.5 21c30 0 51.333 -14.667 64 -44c-4 -12.667 -14.333 -19 -31 -19c-10 0 -16.833 -1.16699 -20.5 -3.5s-5.5 -8.16602 -5.5 -17.499c0 -6.66699 4.83301 -12.5 14.5 -17.5s18.167 -7.5 25.5 -7.5
l24 1c38.667 27.333 58 61 58 101c0 16 -3.66699 27.667 -11 35c-40 -14 -75.667 -21 -107 -21c-32 0 -74 14 -126 42c-16 0 -29.667 -19.333 -41 -58c-8.66699 -30.667 -13 -57 -13 -79c0 -52 12 -94 36 -126c27.333 -36.667 66 -55 116 -55
c65.333 0 119.666 38.667 162.999 116c36.667 66 55 134.667 55 206c0 11.333 -3 19.666 -9 24.999c-7.33301 0 -16 -5.33301 -26 -16c-3.33301 -4 -7.66602 -8.66699 -12.999 -14zM460.003 721.996l-116 100h83l58 -50l59 50h80l-113 -100h-51z" />
    <glyph glyph-name="guilsinglleft" horiz-adv-x="133" 
d="M21 211l84 148l51 -27l-67 -121l67 -120l-51 -28z" />
    <glyph glyph-name="OE" horiz-adv-x="756" 
d="M520 84c-55.333 -66 -125.335 -99 -210.002 -99c-81.333 0 -148.666 25.333 -201.999 76c-55.333 51.333 -83 117.333 -83 198c0 80 26.5 145.667 79.5 197s119.5 77 199.5 77c90.667 0 162.334 -31.667 215.001 -95l1 87h285v-59h-222v-176h215v-58h-215v-179h222v-59
h-285v90zM88.998 258c0 -59.333 20.5 -109.333 61.5 -150s91.5 -61 151.5 -61c62 0 113.833 20.333 155.5 61s62.5 91.667 62.5 153c0 60 -20.5 110.333 -61.5 151s-91.833 61 -152.5 61c-62.667 0 -114.5 -20.333 -155.5 -61s-61.5 -92 -61.5 -154z" />
    <glyph glyph-name="quoteleft" horiz-adv-x="162" 
d="M-8 525h65l67 -147h-65z" />
    <glyph glyph-name="quoteright" 
d="M-8 378l67 147h65l-67 -147h-65z" />
    <glyph glyph-name="quotedblleft" horiz-adv-x="266" 
d="M96 525h65l67 -147h-65zM-8 525h65l67 -147h-64z" />
    <glyph glyph-name="quotedblright" horiz-adv-x="255" 
d="M94 378l67 147h65l-67 -147h-65zM-7 378l64 147h65l-67 -147h-62z" />
    <glyph glyph-name="bullet" horiz-adv-x="309" 
d="M77 211c0 38 13 70.167 39 96.5s58 39.5 96 39.5c38.667 0 71.167 -13 97.5 -39s39.5 -58.333 39.5 -97c0 -38 -13.333 -70 -40 -96s-59 -39 -97 -39s-70 13 -96 39s-39 58 -39 96z" />
    <glyph glyph-name="endash" horiz-adv-x="316" 
d="M-6 241h363v-59h-363v59z" />
    <glyph glyph-name="emdash" horiz-adv-x="656" 
d="M-6 241h714v-59h-714v59z" />
    <glyph glyph-name="tilde" horiz-adv-x="231" 
d="M112 453c-12 0 -25.332 -8 -39.999 -24l-27 45c22.667 22.667 46 34 70 34c10.667 0 22 -2.66699 34 -8c30.667 -13.333 47 -20 49 -20c8 0 21 6.66699 39 20l27 -43c-22.667 -21.333 -44.334 -32 -65.001 -32c-11.333 0 -27 4.66699 -47 14s-33.333 14 -40 14z" />
    <glyph glyph-name="trademark" horiz-adv-x="593" 
d="M607 447l-93 -229h-35l-90 228v-228h-59v307h86l81 -199l84 199h84v-307h-58v229zM196 218h-63v253h-95v54h252v-54h-94v-253z" />
    <glyph glyph-name="scaron" horiz-adv-x="348" 
d="M73 -6c-15.333 0 -27.667 4.00391 -37 12.0039c-13.333 11.333 -21.666 17.666 -24.999 18.999c-6 -2.66699 -11 -8.33398 -15 -17.001l-17 -1c0 9.33301 4.16699 20.5 12.5 33.5s12.5 22.5 12.5 28.5c0 2 -0.666992 5.33301 -2 10c10.667 22 27.667 33 51 33l53 76
l36 86l19.5 31.5c9 14.333 19.833 21.5 32.5 21.5c7.33301 0 17.333 -2.66699 30 -8l1 -11c0 -10.667 -8.66699 -24.334 -26 -41.001c-10.667 -10 -17 -18.333 -19 -25c18.667 -40.667 28 -98.334 28 -173.001c23.333 9.33301 46.333 25.333 69 48c8 8 38 46.333 90 115
l10 -7c-60 -107.333 -123.667 -166.333 -191 -177c-34.667 -36 -72.334 -54 -113.001 -54zM182.999 278.004c6 4.66699 10.667 11.667 14 21c-10 -4 -16 -11 -18 -21h4zM87.999 104.004l21.999 -14.998c20 21.333 30 50.666 30 87.999v13
c-25.333 -30.667 -42.666 -59.334 -51.999 -86.001zM51.998 65.0059l17 -3c8 0 13.667 2 17 6c-7.33301 6 -13 9 -17 9c-8 0 -13.667 -4 -17 -12zM174.998 325.006l-116 100h83l58 -50l59 50h80l-113 -100h-51z" />
    <glyph glyph-name="guilsinglright" horiz-adv-x="133" 
d="M20 91l67 120l-67 121l51 27l84 -148l-84 -148z" />
    <glyph glyph-name="oe" horiz-adv-x="740" 
d="M575 47c28 0 53.832 7.5 77.499 22.5s40.834 35.167 51.501 60.5h65c-12.667 -42 -37.167 -76.667 -73.5 -104s-76.5 -41 -120.5 -41c-34.667 0 -68 8.83301 -100 26.5s-56 41.5 -72 71.5c-42 -65.333 -99.667 -98 -173 -98c-58 0 -106.833 20.333 -146.5 61
s-59.5 90 -59.5 148c0 56.667 20 105 60 145s88.333 60 145 60c71.333 0 129.333 -32.667 174 -98c16.667 29.333 40.667 53 72 71s64 27 98 27c65.333 0 116.333 -23 153 -69c34 -42 51 -96.667 51 -164h-342c0 -34.667 15 -63.667 45 -87c28 -21.333 59.667 -32 95 -32z
M435.999 225h277c-6 32 -22.167 58.667 -48.5 80s-55.833 32 -88.5 32c-34 0 -63.833 -10.333 -89.5 -31s-42.5 -47.667 -50.5 -81zM86.999 195c0 -42 13.668 -77.166 41.001 -105.499s61.666 -42.5 102.999 -42.5c40 0 73.333 13.833 100 41.5s40 61.5 40 101.5
c0 41.333 -13.167 76.166 -39.5 104.499s-59.833 42.5 -100.5 42.5c-40 0 -74 -13.667 -102 -41s-42 -61 -42 -101z" />
    <glyph glyph-name="Ydieresis" horiz-adv-x="750" 
d="M515 -15c-32.667 -55.333 -75.998 -99.3359 -129.998 -132.003c-56 -34 -115.333 -51 -178 -51c-62 0 -117.333 16 -166 48c-56.667 37.333 -85 85 -85 143c0 63.333 24 112 72 146c42 30 96 45 162 45c58.667 0 115.167 -11.5 169.5 -34.5s100.833 -55.833 139.5 -98.5
c29.333 46 44 90.333 44 133c-22 -26 -35.667 -41 -41 -45c-18 -15.333 -36.667 -23 -56 -23c-25.333 0 -46 13.333 -62 40c-12.667 22.667 -19 47.667 -19 75c0 34 21.167 85.5 63.5 154.5s63.5 114.5 63.5 136.5c0 32 -11.667 57.667 -35 77s-51.333 29 -84 29
c-36.667 0 -71.334 -8.66699 -104.001 -26c0 -26.667 -6.33301 -54.334 -19 -83.001c-2 -5.33301 -10 -20.666 -24 -45.999l-20 9c6 10.667 13 25.667 21 45c10 24 15 39.667 15 47l-3 19l-53 -2c10 4 20.667 8.83301 32 14.5s17 13.167 17 22.5
c0 16.667 -13.333 34.667 -40 54c-22 16 -43.333 26.667 -64 32l5 21c61.333 -12.667 103.666 -48.667 126.999 -108l55 18c23.333 7.33301 41.666 11 54.999 11c48.667 0 91.667 -15.667 129 -47c39.333 -33.333 59 -73.666 59 -120.999
c0 -33.333 -21.333 -86.166 -64 -158.499s-64 -127.5 -64 -165.5c9.33301 -4 18 -6 26 -6c34.667 0 74.667 44 120 132c64.667 124 113 205.667 145 245c72.667 88.667 160 133 262 133c39.333 0 74 -9 104 -27c35.333 -21.333 53 -50.333 53 -87l-25 -26
c-3.33301 34.667 -15.666 62 -36.999 82s-49.333 30 -84 30c-120.667 0 -242.334 -127 -365.001 -381c-26 -54.667 -60.333 -134 -103 -238c51.333 -54.667 107 -99 167 -133c70 -40 137.333 -60 202 -60c68 0 127 19 177 57c54.667 41.333 82 95 82 161
c0 50.667 -16.667 95.667 -50 135c-35.333 41.333 -77.666 62 -126.999 62c-26.667 0 -52 -7.66699 -76 -23c-28 -17.333 -42 -38.333 -42 -63c0 -42 12 -70.667 36 -86c37.333 -15.333 68 -29.666 92 -42.999l-46 -5c-30.667 0 -58 10 -82 30s-36 45 -36 75
c0 42 14.333 76.833 43 104.5s64 41.5 106 41.5c60.667 0 110.667 -21.5 150 -64.5s59 -95.167 59 -156.5c0 -75.333 -28.667 -137 -86 -185c-54 -44.667 -119.333 -67 -196 -67c-123.333 0 -252.333 61.333 -387 184zM226.002 608.997l9.00098 -20
c-19.333 -9.33301 -49 -22.333 -89 -39c-12.667 -4 -28.334 -8.33301 -47.001 -13c36 29.333 78.333 53.333 127 72zM130.003 564.997l9.99902 -21c-32 -13.333 -75 -20 -129 -20c30.667 8 70.334 21.667 119.001 41zM188.002 -134.003c136.667 0 233 51.667 289 155
c-32.667 40.667 -75.5 73 -128.5 97s-106.5 36 -160.5 36c-52.667 0 -96.667 -10.667 -132 -32c-42 -26 -63 -63.667 -63 -113c0 -43.333 22.333 -79 67 -107c39.333 -24 82 -36 128 -36zM635.002 794.997h64v-100h-64v100zM532.002 794.997h64v-100h-64v100z" />
    <glyph glyph-name="nonbreakingspace" unicode="&#xa0;" 
 />
    <glyph glyph-name="exclamdown" unicode="&#xa1;" horiz-adv-x="117" 
d="M72 390h64v-100h-64v100zM72 256h64v-397h-64v397z" />
    <glyph glyph-name="cent" unicode="&#xa2;" horiz-adv-x="322" 
d="M199 374c-30.667 0 -56.6689 -9.83301 -78.002 -29.5s-32 -44.5 -32 -74.5s11 -55.5 33 -76.5s48 -31.5 78 -31.5c37.333 0 68.666 16 93.999 48h68c-21.333 -61.333 -63.666 -97.666 -126.999 -108.999v-63h-58v62c-43.333 0 -79.666 18 -108.999 54
c-28 34 -42 73 -42 117c0 42 14.833 80 44.5 114s65.167 51 106.5 51v65h58v-66c65.333 -10.667 109 -49.334 131 -116.001h-70c-19.333 36.667 -51.666 55 -96.999 55z" />
    <glyph glyph-name="sterling" unicode="&#xa3;" horiz-adv-x="374" 
d="M35 -6l0.000976562 59.001h101c18 18 27 42.333 27 73c0 36.667 -21.667 73.667 -65 111h-91v59h48c-8 24 -12 43.667 -12 59c0 49.333 17.333 91.333 52 126s76.667 52 126 52c45.333 0 84.666 -15.333 117.999 -46s52.333 -68.334 57 -113.001h-61
c-5.33301 28 -18.5 51.333 -39.5 70s-45.5 28 -73.5 28c-33.333 0 -60.833 -11 -82.5 -33s-32.5 -49.667 -32.5 -83c0 -25.333 5.66699 -45.333 17 -60h202v-59h-143c28.667 -35.333 43 -71.333 43 -108c0 -23.333 -5.66699 -48.666 -17 -75.999h8
c95.333 0 143 31.333 143 94c0 14.667 -2.66699 30 -8 46h63c4.66699 -17.333 7 -32.333 7 -45c0 -52.667 -19 -92.334 -57 -119.001c-33.333 -23.333 -77.333 -35 -132 -35h-198z" />
    <glyph glyph-name="currency" unicode="&#xa4;" horiz-adv-x="356" 
d="M376 77l-45 -44.999l-32 31c-32.667 -22.667 -68.667 -34 -108 -34c-35.333 0 -69 11.333 -101 34l-32 -31l-45 45l31 31c-21.333 33.333 -32 67.666 -32 102.999c0 38.667 10.667 73.667 32 105l-30 31l44 46l32 -31c31.333 21.333 67 32 107 32
c34.667 0 68.667 -10.667 102 -32l32 31l45 -46l-31 -31c21.333 -32.667 32 -69 32 -109c0 -34.667 -10.667 -67.667 -32 -99zM75 211.001c0 -33.333 11.333 -61.5 34 -84.5s50.667 -34.5 84 -34.5c34 0 62.833 11.667 86.5 35s35.5 52 35.5 86
c0 33.333 -11.333 61.5 -34 84.5s-50.667 34.5 -84 34.5c-35.333 0 -64.5 -11.333 -87.5 -34s-34.5 -51.667 -34.5 -87z" />
    <glyph glyph-name="yen" unicode="&#xa5;" horiz-adv-x="372" 
d="M387 328v-56h-95l-28 -56h118v-55h-142v-167h-64v167h-145v55h121l-30 56h-96v56h68l-104 197h70l149 -285l144 285h70l-101 -197h65z" />
    <glyph glyph-name="brokenbar" unicode="&#xa6;" horiz-adv-x="246" 
d="M208 525h56v-219h-56v219zM208 214h56v-220h-56v220z" />
    <glyph glyph-name="section" unicode="&#xa7;" horiz-adv-x="343" 
d="M357 27c0 -38.667 -13.499 -70.167 -40.499 -94.5s-60.167 -36.5 -99.5 -36.5c-43.333 0 -79 15.167 -107 45.5s-42 67.166 -42 110.499h61c0 -26.667 8 -49 24 -67s37.333 -27 64 -27c22 0 40.667 6 56 18s23 28.667 23 50c0 23.333 -20.667 45.333 -62 66l-116 57
c-42 26 -63 55.333 -63 88c0 44 19.667 80.333 59 109c-16.667 18 -25 41 -25 69c0 34.667 12.167 63 36.5 85s53.833 33 88.5 33c35.333 0 65.833 -10.333 91.5 -31s38.5 -48 38.5 -82h-60c0 17.333 -6.83301 30.333 -20.5 39s-29.834 13 -48.501 13s-34 -5.33301 -46 -16
s-18 -25 -18 -43c0 -19.333 19.667 -39.666 59 -60.999l109 -60c39.333 -26.667 59 -55.667 59 -87c0 -43.333 -18 -77.333 -54 -102c22 -20.667 33 -46 33 -76zM117.001 246c0 -20 14 -37 42 -51l122 -60c23.333 14 35 34 35 60c0 14.667 -7.33301 28.334 -22 41.001
c-8 7.33301 -17.333 13.666 -28 18.999l-113 57c-24 -15.333 -36 -37.333 -36 -66z" />
    <glyph glyph-name="dieresis" unicode="&#xa8;" horiz-adv-x="187" 
d="M149 525h64v-100h-64v100zM46 525h64v-100h-64v100z" />
    <glyph glyph-name="copyright" unicode="&#xa9;" horiz-adv-x="477" 
d="M-12 260c0 77.333 26.501 142.166 79.501 194.499s118.167 78.5 195.5 78.5s142.166 -26.167 194.499 -78.5s78.5 -117.166 78.5 -194.499c0 -78 -26 -143.333 -78 -196s-117 -79 -195 -79s-143.333 26.333 -196 79s-79 118 -79 196zM33.001 260
c0 -65.333 22 -120.166 66 -164.499s98.667 -66.5 164 -66.5s119.833 22.167 163.5 66.5s65.5 99.166 65.5 164.499c0 64.667 -22 119 -66 163s-98.333 66 -163 66s-119.167 -22 -163.5 -66s-66.5 -98.333 -66.5 -163zM120.001 262c0 48 13.667 86.668 41 116.001
s64.666 44 111.999 44c36 0 65.667 -10 89 -30s38 -47.667 44 -83h-50c-9.33301 46 -37 69 -83 69c-32 0 -57 -11 -75 -33s-27 -49.333 -27 -82s9 -60 27 -82c19.333 -24 45 -36 77 -36c21.333 0 39.333 6.66699 54 20s23.334 30.666 26.001 51.999h51
c-4 -34.667 -18 -62.667 -42 -84s-53.667 -32 -89 -32c-47.333 0 -85 14.833 -113 44.5s-42 68.5 -42 116.5z" />
    <glyph glyph-name="ordfeminine" unicode="&#xaa;" horiz-adv-x="214" 
d="M201 334c-18 -18 -40.999 -26.999 -68.999 -26.999c-32 0 -59.333 10.667 -82 32s-34 48 -34 80c0 33.333 10.833 60.666 32.5 81.999s49.167 32 82.5 32c29.333 0 52.666 -8.33301 69.999 -25l1 21h42v-217h-43v22zM16.001 265.001h228v-43h-228v43zM59.001 420.001
c0 -20 7.16602 -36.668 21.499 -50.001s31.5 -20 51.5 -20c18.667 0 34.834 6.83301 48.501 20.5s20.5 29.834 20.5 48.501c0 20.667 -6.5 38 -19.5 52s-29.833 21 -50.5 21c-20 0 -37 -7 -51 -21s-21 -31 -21 -51z" />
    <glyph glyph-name="guillemotleft" unicode="&#xab;" horiz-adv-x="247" 
d="M143 211l84 148l52 -27l-68 -121l68 -120l-52 -28zM21 211l84 148l51 -27l-67 -121l67 -120l-51 -28z" />
    <glyph glyph-name="logicalnot" unicode="&#xac;" horiz-adv-x="380" 
d="M331 247h-301v65h366v-201h-65v136z" />
    <glyph glyph-name="minus" unicode="&#xad;" horiz-adv-x="351" 
d="M30 244h366v-65h-366v65z" />
    <glyph glyph-name="registered" unicode="&#xae;" horiz-adv-x="477" 
d="M-12 260c0 77.333 26.501 142.166 79.501 194.499s118.167 78.5 195.5 78.5s142.166 -26.167 194.499 -78.5s78.5 -117.166 78.5 -194.499c0 -78 -26 -143.333 -78 -196s-117 -79 -195 -79s-143.333 26.333 -196 79s-79 118 -79 196zM33.001 260
c0 -65.333 22 -120.166 66 -164.499s98.667 -66.5 164 -66.5s119.833 22.167 163.5 66.5s65.5 99.166 65.5 164.499c0 64.667 -22 119 -66 163s-98.333 66 -163 66s-119.167 -22 -163.5 -66s-66.5 -98.333 -66.5 -163zM407.001 104h-58l-85 138h-59v-138h-48v311h141
c72 0 108 -28.333 108 -85c0 -58.667 -30 -88 -90 -88zM205.001 377v-94h73c25.333 0 43 2 53 6c17.333 6.66699 26 20.667 26 42c0 30.667 -24 46 -72 46h-80z" />
    <glyph glyph-name="macron" unicode="&#xaf;" horiz-adv-x="260" 
d="M46 484h249v-59h-249v59z" />
    <glyph glyph-name="degree" unicode="&#xb0;" horiz-adv-x="221" 
d="M29 414c0 32 10.667 58.499 32 79.499s48 31.5 80 31.5c31.333 0 57.666 -10.667 78.999 -32s32 -47.666 32 -78.999s-10.667 -57.666 -32 -78.999s-47.666 -32 -78.999 -32s-57.833 10.667 -79.5 32s-32.5 47.666 -32.5 78.999zM69 413.999
c0 -20.667 6.83203 -37.833 20.499 -51.5s30.834 -20.5 51.501 -20.5c20 0 36.833 7 50.5 21s20.5 31 20.5 51s-7 36.833 -21 50.5s-31 20.5 -51 20.5s-36.833 -6.83301 -50.5 -20.5s-20.5 -30.5 -20.5 -50.5z" />
    <glyph glyph-name="plusminus" unicode="&#xb1;" horiz-adv-x="351" 
d="M245 101h-65v115h-150v65h150v114h65v-114h151v-65h-151v-115zM30 59h366v-65h-366v65z" />
    <glyph glyph-name="twosuperior" unicode="&#xb2;" horiz-adv-x="202" 
d="M229 243l0.000976562 -40.9971h-226v37l97 82c54 48 81 84.333 81 109c0 17.333 -6.16699 31.5 -18.5 42.5s-27.5 16.5 -45.5 16.5c-41.333 0 -62 -25.333 -62 -76h-50c0 35.333 10.167 63.666 30.5 84.999s48.166 32 83.499 32c29.333 0 55.333 -9.33301 78 -28
s34 -42.334 34 -71.001c0 -30 -19.333 -65 -58 -105c-14 -14.667 -46 -42.334 -96 -83.001h152z" />
    <glyph glyph-name="threesuperior" unicode="&#xb3;" horiz-adv-x="202" 
d="M3 311l46 -0.000976562c0 -20.667 5.83301 -38 17.5 -52s27.834 -21 48.501 -21c18.667 0 34.5 6.16699 47.5 18.5s19.5 27.833 19.5 46.5c0 42 -31.333 63 -94 63v40c50 0 75 14 75 42c0 12.667 -4.83301 22.834 -14.5 30.501s-20.834 11.5 -33.501 11.5
c-29.333 0 -44 -18 -44 -54h-45c0 28.667 8.16699 51.667 24.5 69s38.833 26 67.5 26c24.667 0 46.167 -8.16699 64.5 -24.5s27.5 -36.833 27.5 -61.5c0 -22.667 -10.333 -41.667 -31 -57c34 -18.667 51 -47 51 -85c0 -31.333 -11.167 -56.833 -33.5 -76.5
s-49.5 -29.5 -81.5 -29.5s-58.667 11 -80 33s-32 49 -32 81z" />
    <glyph glyph-name="acute" unicode="&#xb4;" horiz-adv-x="190" 
d="M44 472l145 88l31 -51l-146 -86z" />
    <glyph glyph-name="mu" unicode="&#xb5;" horiz-adv-x="368" 
d="M328 39c-26.667 -36 -66.999 -54 -120.999 -54c-39.333 0 -74.333 12.333 -105 37v-163h-64v531h64v-209c0 -89.333 37.333 -134 112 -134c37.333 0 65.666 13.333 84.999 40c17.333 24 26 55.333 26 94v209h64v-396h-61v45z" />
    <glyph glyph-name="paragraph" unicode="&#xb6;" horiz-adv-x="333" 
d="M287 466h-67.999v-561h-64v339c-36.667 0 -68.334 13.833 -95.001 41.5s-40 60.167 -40 97.5c0 46.667 15.667 82.667 47 108c29.333 22.667 68 34 116 34h168v-620h-64v561z" />
    <glyph glyph-name="periodcentered" unicode="&#xb7;" horiz-adv-x="111" 
d="M65 262h64v-101h-64v101z" />
    <glyph glyph-name="cedilla" unicode="&#xb8;" horiz-adv-x="158" 
d="M45 -101l43 5c2 -16 11 -24 27 -24c16.667 0 25 9 25 27s-9.33301 27 -28 27c-10 0 -18.667 -5.66699 -26 -17l-32 17l32 72h39l-16 -37l12 1c16.667 1.33301 31 -4 43 -16s18 -27.333 18 -46c0 -19.333 -6.33301 -36 -19 -50s-28.667 -21 -48 -21
c-38 0 -61.333 20.667 -70 62z" />
    <glyph glyph-name="onesuperior" unicode="&#xb9;" horiz-adv-x="147" 
d="M120 485h-57v40h107v-323h-50v283z" />
    <glyph glyph-name="ordmasculine" unicode="&#xba;" horiz-adv-x="213" 
d="M17 419c0 32.667 10.667 59.833 32 81.5s48.333 32.5 81 32.5c32 0 58.833 -11 80.5 -33s32.5 -49 32.5 -81c0 -31.333 -11 -57.833 -33 -79.5s-48.667 -32.5 -80 -32.5c-32 0 -58.833 10.667 -80.5 32s-32.5 48 -32.5 80zM17 264.999h226v-43h-226v43zM61 420.999
c0 -20 6.50098 -36.833 19.501 -50.5s29.5 -20.5 49.5 -20.5c19.333 0 35.666 7 48.999 21s20 30.667 20 50c0 20 -6.5 36.667 -19.5 50s-29.5 20 -49.5 20s-36.5 -6.66699 -49.5 -20s-19.5 -30 -19.5 -50z" />
    <glyph glyph-name="guillemotright" unicode="&#xbb;" horiz-adv-x="243" 
d="M142 91l67 120l-67 121l51 27l84 -148l-84 -148zM20 91l67 120l-67 121l51 27l84 -148l-84 -148z" />
    <glyph glyph-name="onequarter" unicode="&#xbc;" horiz-adv-x="513" 
d="M539 -6h-48v57h-168v37l166 230h50v-226h31v-41h-31v-57zM143 -6l239 531h58l-239 -531h-58zM122 485h-57v40h107v-323h-50v283zM376 92h115v159z" />
    <glyph glyph-name="onehalf" unicode="&#xbd;" horiz-adv-x="544" 
d="M576 35l0.000976562 -40.9961h-226v37l97 82c54 48 81 84.333 81 109c0 17.333 -6.33301 31.666 -19 42.999s-27.667 17 -45 17c-41.333 0 -62 -25.667 -62 -77h-50c0 35.333 10.333 63.666 31 84.999s48.667 32 84 32c29.333 0 55.166 -9.33301 77.499 -28
s33.5 -42.334 33.5 -71.001c0 -30 -19.333 -65 -58 -105c-14 -14.667 -46 -42.334 -96 -83.001h152zM136.001 -5.99609l239 531h58l-239 -531h-58zM119.001 485.004h-57v40h106v-323h-49v283z" />
    <glyph glyph-name="threequarters" unicode="&#xbe;" horiz-adv-x="522" 
d="M539 -6h-48v57h-168v37l166 230h50v-226h31v-41h-31v-57zM154 -6l238 531h58l-238 -531h-58zM3 311l46 -0.000976562c0 -20.667 5.83301 -38 17.5 -52s27.834 -21 48.501 -21c18.667 0 34.5 6.16699 47.5 18.5s19.5 27.833 19.5 46.5c0 42 -31.333 63 -94 63v40
c50 0 75 14 75 42c0 12.667 -4.83301 22.834 -14.5 30.501s-20.834 11.5 -33.501 11.5c-29.333 0 -44 -18 -44 -54h-45c0 28.667 8.16699 51.667 24.5 69s38.833 26 67.5 26c24.667 0 46.167 -8.16699 64.5 -24.5s27.5 -36.833 27.5 -61.5
c0 -22.667 -10.333 -41.667 -31 -57c34 -18.667 51 -47 51 -85c0 -31.333 -11.167 -56.833 -33.5 -76.5s-49.5 -29.5 -81.5 -29.5s-58.667 11 -80 33s-32 49 -32 81zM376 91.999h115v159z" />
    <glyph glyph-name="questiondown" unicode="&#xbf;" horiz-adv-x="333" 
d="M173 390h63v-100h-63v100zM41 11c0 30.667 29.999 79.668 89.999 147.001c28 31.333 42 64 42 98h63c0 -34.667 -11.333 -69.334 -34 -104.001c-3.33301 -4.66699 -24.666 -31 -63.999 -79c-22.667 -28 -34 -51 -34 -69c0 -28 10.333 -51.5 31 -70.5s45 -28.5 73 -28.5
c32.667 0 59 13 79 39c18 24 27 52.667 27 86h61v-22c0 -46 -17 -84.833 -51 -116.5s-74.333 -47.5 -121 -47.5c-48 0 -87 15.833 -117 47.5s-45 71.5 -45 119.5z" />
    <glyph glyph-name="Agrave" unicode="&#xc0;" horiz-adv-x="841" 
d="M713 -67l-177.003 -68.0059c-68.667 -25.333 -130.667 -38 -186 -38c-107.333 0 -197.666 29.667 -270.999 89c-79.333 63.333 -119 147.666 -119 252.999c0 88.667 25.667 168.334 77 239.001c56.667 78 128 117 214 117c30.667 0 70.334 -5.33301 119.001 -16l1 -20
c-37.333 9.33301 -71.333 14 -102 14c-86.667 0 -157.667 -33.333 -213 -100c-51.333 -62.667 -77 -138.334 -77 -227.001c0 -96.667 35 -177.334 105 -242.001c68 -62.667 150.667 -94 248 -94c108.667 0 223 38.333 343 115c-5.33301 4.66699 -30.333 13.334 -75 26.001
c-18 5.33301 -30.333 13.333 -37 24l5 24l28 6c39.333 -15.333 61.333 -23 66 -23c34.667 0 67 37.333 97 112c18 44.667 33.333 98.334 46 161.001c-20.667 8.66699 -39 13 -55 13c-22 0 -55 -28 -99 -84c-65.333 -83.333 -109 -135.333 -131 -156
c-58.667 -56 -116.667 -84 -174 -84c-41.333 0 -77 12.5 -107 37.5s-45 57.833 -45 98.5c0 81.333 42 137 126 167c54.667 19.333 136 29 244 29h75c12 0 42.667 24.667 92 74c74.667 74.667 126 124 154 148c66 56.667 122.667 91.334 170 104.001
c-1.33301 -6 -33.333 -52 -96 -138c-26 -36 -39 -75 -39 -117c0 -6 2.66699 -17 8 -33c47.333 14.667 86.666 42.5 117.999 83.5s47 85.833 47 134.5c0 70.667 -34 128.334 -102 173.001c-60 39.333 -127.667 59 -203 59c-82 0 -153.333 -21 -214 -63
c-69.333 -48 -104 -111 -104 -189c0 -35.333 8.33301 -66.666 25 -93.999c18 -29.333 43 -49.666 75 -60.999v-18c-36.667 4.66699 -66.667 23.334 -90 56.001c-22.667 30.667 -34 65 -34 103c0 88.667 34.333 160.334 103 215.001c63.333 50 140.666 75 231.999 75
c86 0 160.667 -22 224 -66c71.333 -50 107 -116.333 107 -199c0 -82 -28.333 -139 -85 -171c-46 -26 -80 -50 -102 -72c-8 -8 -20.667 -37 -38 -87c-19.333 -54 -35 -89.667 -47 -107c-33.333 -48.667 -83.666 -91.667 -150.999 -129l20 -15
c14.667 5.33301 62.334 31.333 143.001 78c56.667 32.667 108.334 49 155.001 49c35.333 0 66 -9.33301 92 -28c28 -20.667 42 -48 42 -82c0 -48.667 -22.667 -87 -68 -115c-38 -23.333 -83 -35 -135 -35c-72.667 0 -147.667 31.333 -225 94zM765.997 311.994
c17.333 0 30.334 3.66699 39.001 11c16 86 60.333 163.333 133 232c-84.667 -52.667 -155.334 -133.667 -212.001 -243h40zM741.998 -47.0059c59.333 -55.333 126 -83 200 -83c44 0 81.333 8.66699 112 26c37.333 21.333 56 52.333 56 93c0 24.667 -13 45.667 -39 63
c-22.667 15.333 -47 23 -73 23c-44.667 0 -100 -21 -166 -63zM252.998 90.9941c0 -19.333 8.00098 -37.667 24.001 -55s33.667 -26 53 -26c85.333 0 166.666 49.333 243.999 148c24 30.667 51.333 71 82 121c-14.667 0 -39 0.666992 -73 2l-56 2
c-182.667 0 -274 -64 -274 -192zM721.999 679.993l27 51l149 -80l-29 -50z" />
    <glyph glyph-name="Aacute" unicode="&#xc1;" horiz-adv-x="841" 
d="M713 -67l-177.003 -68.0059c-68.667 -25.333 -130.667 -38 -186 -38c-107.333 0 -197.666 29.667 -270.999 89c-79.333 63.333 -119 147.666 -119 252.999c0 88.667 25.667 168.334 77 239.001c56.667 78 128 117 214 117c30.667 0 70.334 -5.33301 119.001 -16l1 -20
c-37.333 9.33301 -71.333 14 -102 14c-86.667 0 -157.667 -33.333 -213 -100c-51.333 -62.667 -77 -138.334 -77 -227.001c0 -96.667 35 -177.334 105 -242.001c68 -62.667 150.667 -94 248 -94c108.667 0 223 38.333 343 115c-5.33301 4.66699 -30.333 13.334 -75 26.001
c-18 5.33301 -30.333 13.333 -37 24l5 24l28 6c39.333 -15.333 61.333 -23 66 -23c34.667 0 67 37.333 97 112c18 44.667 33.333 98.334 46 161.001c-20.667 8.66699 -39 13 -55 13c-22 0 -55 -28 -99 -84c-65.333 -83.333 -109 -135.333 -131 -156
c-58.667 -56 -116.667 -84 -174 -84c-41.333 0 -77 12.5 -107 37.5s-45 57.833 -45 98.5c0 81.333 42 137 126 167c54.667 19.333 136 29 244 29h75c12 0 42.667 24.667 92 74c74.667 74.667 126 124 154 148c66 56.667 122.667 91.334 170 104.001
c-1.33301 -6 -33.333 -52 -96 -138c-26 -36 -39 -75 -39 -117c0 -6 2.66699 -17 8 -33c47.333 14.667 86.666 42.5 117.999 83.5s47 85.833 47 134.5c0 70.667 -34 128.334 -102 173.001c-60 39.333 -127.667 59 -203 59c-82 0 -153.333 -21 -214 -63
c-69.333 -48 -104 -111 -104 -189c0 -35.333 8.33301 -66.666 25 -93.999c18 -29.333 43 -49.666 75 -60.999v-18c-36.667 4.66699 -66.667 23.334 -90 56.001c-22.667 30.667 -34 65 -34 103c0 88.667 34.333 160.334 103 215.001c63.333 50 140.666 75 231.999 75
c86 0 160.667 -22 224 -66c71.333 -50 107 -116.333 107 -199c0 -82 -28.333 -139 -85 -171c-46 -26 -80 -50 -102 -72c-8 -8 -20.667 -37 -38 -87c-19.333 -54 -35 -89.667 -47 -107c-33.333 -48.667 -83.666 -91.667 -150.999 -129l20 -15
c14.667 5.33301 62.334 31.333 143.001 78c56.667 32.667 108.334 49 155.001 49c35.333 0 66 -9.33301 92 -28c28 -20.667 42 -48 42 -82c0 -48.667 -22.667 -87 -68 -115c-38 -23.333 -83 -35 -135 -35c-72.667 0 -147.667 31.333 -225 94zM765.997 311.994
c17.333 0 30.334 3.66699 39.001 11c16 86 60.333 163.333 133 232c-84.667 -52.667 -155.334 -133.667 -212.001 -243h40zM741.998 -47.0059c59.333 -55.333 126 -83 200 -83c44 0 81.333 8.66699 112 26c37.333 21.333 56 52.333 56 93c0 24.667 -13 45.667 -39 63
c-22.667 15.333 -47 23 -73 23c-44.667 0 -100 -21 -166 -63zM252.998 90.9941c0 -19.333 8.00098 -37.667 24.001 -55s33.667 -26 53 -26c85.333 0 166.666 49.333 243.999 148c24 30.667 51.333 71 82 121c-14.667 0 -39 0.666992 -73 2l-56 2
c-182.667 0 -274 -64 -274 -192zM575.999 701.993l145 88l31 -51l-146 -86z" />
    <glyph glyph-name="Acircumflex" unicode="&#xc2;" horiz-adv-x="841" 
d="M713 -67l-177.003 -68.0059c-68.667 -25.333 -130.667 -38 -186 -38c-107.333 0 -197.666 29.667 -270.999 89c-79.333 63.333 -119 147.666 -119 252.999c0 88.667 25.667 168.334 77 239.001c56.667 78 128 117 214 117c30.667 0 70.334 -5.33301 119.001 -16l1 -20
c-37.333 9.33301 -71.333 14 -102 14c-86.667 0 -157.667 -33.333 -213 -100c-51.333 -62.667 -77 -138.334 -77 -227.001c0 -96.667 35 -177.334 105 -242.001c68 -62.667 150.667 -94 248 -94c108.667 0 223 38.333 343 115c-5.33301 4.66699 -30.333 13.334 -75 26.001
c-18 5.33301 -30.333 13.333 -37 24l5 24l28 6c39.333 -15.333 61.333 -23 66 -23c34.667 0 67 37.333 97 112c18 44.667 33.333 98.334 46 161.001c-20.667 8.66699 -39 13 -55 13c-22 0 -55 -28 -99 -84c-65.333 -83.333 -109 -135.333 -131 -156
c-58.667 -56 -116.667 -84 -174 -84c-41.333 0 -77 12.5 -107 37.5s-45 57.833 -45 98.5c0 81.333 42 137 126 167c54.667 19.333 136 29 244 29h75c12 0 42.667 24.667 92 74c74.667 74.667 126 124 154 148c66 56.667 122.667 91.334 170 104.001
c-1.33301 -6 -33.333 -52 -96 -138c-26 -36 -39 -75 -39 -117c0 -6 2.66699 -17 8 -33c47.333 14.667 86.666 42.5 117.999 83.5s47 85.833 47 134.5c0 70.667 -34 128.334 -102 173.001c-60 39.333 -127.667 59 -203 59c-82 0 -153.333 -21 -214 -63
c-69.333 -48 -104 -111 -104 -189c0 -35.333 8.33301 -66.666 25 -93.999c18 -29.333 43 -49.666 75 -60.999v-18c-36.667 4.66699 -66.667 23.334 -90 56.001c-22.667 30.667 -34 65 -34 103c0 88.667 34.333 160.334 103 215.001c63.333 50 140.666 75 231.999 75
c86 0 160.667 -22 224 -66c71.333 -50 107 -116.333 107 -199c0 -82 -28.333 -139 -85 -171c-46 -26 -80 -50 -102 -72c-8 -8 -20.667 -37 -38 -87c-19.333 -54 -35 -89.667 -47 -107c-33.333 -48.667 -83.666 -91.667 -150.999 -129l20 -15
c14.667 5.33301 62.334 31.333 143.001 78c56.667 32.667 108.334 49 155.001 49c35.333 0 66 -9.33301 92 -28c28 -20.667 42 -48 42 -82c0 -48.667 -22.667 -87 -68 -115c-38 -23.333 -83 -35 -135 -35c-72.667 0 -147.667 31.333 -225 94zM765.997 311.994
c17.333 0 30.334 3.66699 39.001 11c16 86 60.333 163.333 133 232c-84.667 -52.667 -155.334 -133.667 -212.001 -243h40zM741.998 -47.0059c59.333 -55.333 126 -83 200 -83c44 0 81.333 8.66699 112 26c37.333 21.333 56 52.333 56 93c0 24.667 -13 45.667 -39 63
c-22.667 15.333 -47 23 -73 23c-44.667 0 -100 -21 -166 -63zM252.998 90.9941c0 -19.333 8.00098 -37.667 24.001 -55s33.667 -26 53 -26c85.333 0 166.666 49.333 243.999 148c24 30.667 51.333 71 82 121c-14.667 0 -39 0.666992 -73 2l-56 2
c-182.667 0 -274 -64 -274 -192zM690.999 872.993l-59 -49h-81l116 100h49l115 -100h-81z" />
    <glyph glyph-name="Atilde" unicode="&#xc3;" horiz-adv-x="841" 
d="M713 -67l-177.003 -68.0059c-68.667 -25.333 -130.667 -38 -186 -38c-107.333 0 -197.666 29.667 -270.999 89c-79.333 63.333 -119 147.666 -119 252.999c0 88.667 25.667 168.334 77 239.001c56.667 78 128 117 214 117c30.667 0 70.334 -5.33301 119.001 -16l1 -20
c-37.333 9.33301 -71.333 14 -102 14c-86.667 0 -157.667 -33.333 -213 -100c-51.333 -62.667 -77 -138.334 -77 -227.001c0 -96.667 35 -177.334 105 -242.001c68 -62.667 150.667 -94 248 -94c108.667 0 223 38.333 343 115c-5.33301 4.66699 -30.333 13.334 -75 26.001
c-18 5.33301 -30.333 13.333 -37 24l5 24l28 6c39.333 -15.333 61.333 -23 66 -23c34.667 0 67 37.333 97 112c18 44.667 33.333 98.334 46 161.001c-20.667 8.66699 -39 13 -55 13c-22 0 -55 -28 -99 -84c-65.333 -83.333 -109 -135.333 -131 -156
c-58.667 -56 -116.667 -84 -174 -84c-41.333 0 -77 12.5 -107 37.5s-45 57.833 -45 98.5c0 81.333 42 137 126 167c54.667 19.333 136 29 244 29h75c12 0 42.667 24.667 92 74c74.667 74.667 126 124 154 148c66 56.667 122.667 91.334 170 104.001
c-1.33301 -6 -33.333 -52 -96 -138c-26 -36 -39 -75 -39 -117c0 -6 2.66699 -17 8 -33c47.333 14.667 86.666 42.5 117.999 83.5s47 85.833 47 134.5c0 70.667 -34 128.334 -102 173.001c-60 39.333 -127.667 59 -203 59c-82 0 -153.333 -21 -214 -63
c-69.333 -48 -104 -111 -104 -189c0 -35.333 8.33301 -66.666 25 -93.999c18 -29.333 43 -49.666 75 -60.999v-18c-36.667 4.66699 -66.667 23.334 -90 56.001c-22.667 30.667 -34 65 -34 103c0 88.667 34.333 160.334 103 215.001c63.333 50 140.666 75 231.999 75
c86 0 160.667 -22 224 -66c71.333 -50 107 -116.333 107 -199c0 -82 -28.333 -139 -85 -171c-46 -26 -80 -50 -102 -72c-8 -8 -20.667 -37 -38 -87c-19.333 -54 -35 -89.667 -47 -107c-33.333 -48.667 -83.666 -91.667 -150.999 -129l20 -15
c14.667 5.33301 62.334 31.333 143.001 78c56.667 32.667 108.334 49 155.001 49c35.333 0 66 -9.33301 92 -28c28 -20.667 42 -48 42 -82c0 -48.667 -22.667 -87 -68 -115c-38 -23.333 -83 -35 -135 -35c-72.667 0 -147.667 31.333 -225 94zM765.997 311.994
c17.333 0 30.334 3.66699 39.001 11c16 86 60.333 163.333 133 232c-84.667 -52.667 -155.334 -133.667 -212.001 -243h40zM741.998 -47.0059c59.333 -55.333 126 -83 200 -83c44 0 81.333 8.66699 112 26c37.333 21.333 56 52.333 56 93c0 24.667 -13 45.667 -39 63
c-22.667 15.333 -47 23 -73 23c-44.667 0 -100 -21 -166 -63zM252.998 90.9941c0 -19.333 8.00098 -37.667 24.001 -55s33.667 -26 53 -26c85.333 0 166.666 49.333 243.999 148c24 30.667 51.333 71 82 121c-14.667 0 -39 0.666992 -73 2l-56 2
c-182.667 0 -274 -64 -274 -192zM739.999 662.993c-12 0 -25.332 -8 -39.999 -24l-27 45c22.667 22.667 46 34 70 34c10.667 0 22 -2.66699 34 -8c30.667 -13.333 47 -20 49 -20c8 0 21 6.66699 39 20l27 -43c-22.667 -21.333 -44.334 -32 -65.001 -32
c-11.333 0 -27 4.66699 -47 14s-33.333 14 -40 14z" />
    <glyph glyph-name="Adieresis" unicode="&#xc4;" horiz-adv-x="841" 
d="M713 -67l-177.003 -68.0059c-68.667 -25.333 -130.667 -38 -186 -38c-107.333 0 -197.666 29.667 -270.999 89c-79.333 63.333 -119 147.666 -119 252.999c0 88.667 25.667 168.334 77 239.001c56.667 78 128 117 214 117c30.667 0 70.334 -5.33301 119.001 -16l1 -20
c-37.333 9.33301 -71.333 14 -102 14c-86.667 0 -157.667 -33.333 -213 -100c-51.333 -62.667 -77 -138.334 -77 -227.001c0 -96.667 35 -177.334 105 -242.001c68 -62.667 150.667 -94 248 -94c108.667 0 223 38.333 343 115c-5.33301 4.66699 -30.333 13.334 -75 26.001
c-18 5.33301 -30.333 13.333 -37 24l5 24l28 6c39.333 -15.333 61.333 -23 66 -23c34.667 0 67 37.333 97 112c18 44.667 33.333 98.334 46 161.001c-20.667 8.66699 -39 13 -55 13c-22 0 -55 -28 -99 -84c-65.333 -83.333 -109 -135.333 -131 -156
c-58.667 -56 -116.667 -84 -174 -84c-41.333 0 -77 12.5 -107 37.5s-45 57.833 -45 98.5c0 81.333 42 137 126 167c54.667 19.333 136 29 244 29h75c12 0 42.667 24.667 92 74c74.667 74.667 126 124 154 148c66 56.667 122.667 91.334 170 104.001
c-1.33301 -6 -33.333 -52 -96 -138c-26 -36 -39 -75 -39 -117c0 -6 2.66699 -17 8 -33c47.333 14.667 86.666 42.5 117.999 83.5s47 85.833 47 134.5c0 70.667 -34 128.334 -102 173.001c-60 39.333 -127.667 59 -203 59c-82 0 -153.333 -21 -214 -63
c-69.333 -48 -104 -111 -104 -189c0 -35.333 8.33301 -66.666 25 -93.999c18 -29.333 43 -49.666 75 -60.999v-18c-36.667 4.66699 -66.667 23.334 -90 56.001c-22.667 30.667 -34 65 -34 103c0 88.667 34.333 160.334 103 215.001c63.333 50 140.666 75 231.999 75
c86 0 160.667 -22 224 -66c71.333 -50 107 -116.333 107 -199c0 -82 -28.333 -139 -85 -171c-46 -26 -80 -50 -102 -72c-8 -8 -20.667 -37 -38 -87c-19.333 -54 -35 -89.667 -47 -107c-33.333 -48.667 -83.666 -91.667 -150.999 -129l20 -15
c14.667 5.33301 62.334 31.333 143.001 78c56.667 32.667 108.334 49 155.001 49c35.333 0 66 -9.33301 92 -28c28 -20.667 42 -48 42 -82c0 -48.667 -22.667 -87 -68 -115c-38 -23.333 -83 -35 -135 -35c-72.667 0 -147.667 31.333 -225 94zM765.997 311.994
c17.333 0 30.334 3.66699 39.001 11c16 86 60.333 163.333 133 232c-84.667 -52.667 -155.334 -133.667 -212.001 -243h40zM741.998 -47.0059c59.333 -55.333 126 -83 200 -83c44 0 81.333 8.66699 112 26c37.333 21.333 56 52.333 56 93c0 24.667 -13 45.667 -39 63
c-22.667 15.333 -47 23 -73 23c-44.667 0 -100 -21 -166 -63zM252.998 90.9941c0 -19.333 8.00098 -37.667 24.001 -55s33.667 -26 53 -26c85.333 0 166.666 49.333 243.999 148c24 30.667 51.333 71 82 121c-14.667 0 -39 0.666992 -73 2l-56 2
c-182.667 0 -274 -64 -274 -192zM822.999 728.993h64v-100h-64v100zM719.999 728.993h64v-100h-64v100z" />
    <glyph glyph-name="Aring" unicode="&#xc5;" horiz-adv-x="841" 
d="M713 -67l-177.003 -68.0059c-68.667 -25.333 -130.667 -38 -186 -38c-107.333 0 -197.666 29.667 -270.999 89c-79.333 63.333 -119 147.666 -119 252.999c0 88.667 25.667 168.334 77 239.001c56.667 78 128 117 214 117c30.667 0 70.334 -5.33301 119.001 -16l1 -20
c-37.333 9.33301 -71.333 14 -102 14c-86.667 0 -157.667 -33.333 -213 -100c-51.333 -62.667 -77 -138.334 -77 -227.001c0 -96.667 35 -177.334 105 -242.001c68 -62.667 150.667 -94 248 -94c108.667 0 223 38.333 343 115c-5.33301 4.66699 -30.333 13.334 -75 26.001
c-18 5.33301 -30.333 13.333 -37 24l5 24l28 6c39.333 -15.333 61.333 -23 66 -23c34.667 0 67 37.333 97 112c18 44.667 33.333 98.334 46 161.001c-20.667 8.66699 -39 13 -55 13c-22 0 -55 -28 -99 -84c-65.333 -83.333 -109 -135.333 -131 -156
c-58.667 -56 -116.667 -84 -174 -84c-41.333 0 -77 12.5 -107 37.5s-45 57.833 -45 98.5c0 81.333 42 137 126 167c54.667 19.333 136 29 244 29h75c12 0 42.667 24.667 92 74c74.667 74.667 126 124 154 148c66 56.667 122.667 91.334 170 104.001
c-1.33301 -6 -33.333 -52 -96 -138c-26 -36 -39 -75 -39 -117c0 -6 2.66699 -17 8 -33c47.333 14.667 86.666 42.5 117.999 83.5s47 85.833 47 134.5c0 70.667 -34 128.334 -102 173.001c-60 39.333 -127.667 59 -203 59c-82 0 -153.333 -21 -214 -63
c-69.333 -48 -104 -111 -104 -189c0 -35.333 8.33301 -66.666 25 -93.999c18 -29.333 43 -49.666 75 -60.999v-18c-36.667 4.66699 -66.667 23.334 -90 56.001c-22.667 30.667 -34 65 -34 103c0 88.667 34.333 160.334 103 215.001c63.333 50 140.666 75 231.999 75
c86 0 160.667 -22 224 -66c71.333 -50 107 -116.333 107 -199c0 -82 -28.333 -139 -85 -171c-46 -26 -80 -50 -102 -72c-8 -8 -20.667 -37 -38 -87c-19.333 -54 -35 -89.667 -47 -107c-33.333 -48.667 -83.666 -91.667 -150.999 -129l20 -15
c14.667 5.33301 62.334 31.333 143.001 78c56.667 32.667 108.334 49 155.001 49c35.333 0 66 -9.33301 92 -28c28 -20.667 42 -48 42 -82c0 -48.667 -22.667 -87 -68 -115c-38 -23.333 -83 -35 -135 -35c-72.667 0 -147.667 31.333 -225 94zM765.997 311.994
c17.333 0 30.334 3.66699 39.001 11c16 86 60.333 163.333 133 232c-84.667 -52.667 -155.334 -133.667 -212.001 -243h40zM741.998 -47.0059c59.333 -55.333 126 -83 200 -83c44 0 81.333 8.66699 112 26c37.333 21.333 56 52.333 56 93c0 24.667 -13 45.667 -39 63
c-22.667 15.333 -47 23 -73 23c-44.667 0 -100 -21 -166 -63zM252.998 90.9941c0 -19.333 8.00098 -37.667 24.001 -55s33.667 -26 53 -26c85.333 0 166.666 49.333 243.999 148c24 30.667 51.333 71 82 121c-14.667 0 -39 0.666992 -73 2l-56 2
c-182.667 0 -274 -64 -274 -192zM754.999 670.993c0 20 6.83301 36.833 20.5 50.5s30.5 20.5 50.5 20.5s36.667 -6.83301 50 -20.5s20 -30.5 20 -50.5s-6.66699 -36.667 -20 -50s-30 -20 -50 -20s-36.833 6.66699 -50.5 20s-20.5 30 -20.5 50zM792.999 671.993
c0 -22 11 -33 33 -33c21.333 0 32 10.667 32 32c0 22 -10.667 33 -32 33c-22 0 -33 -10.667 -33 -32z" />
    <glyph glyph-name="AE" unicode="&#xc6;" horiz-adv-x="614" 
d="M377 169h-182l-122 -175h-76l369 531h297v-59h-222v-175h215v-59h-215v-179h222v-59h-286v175zM236 228h141v206z" />
    <glyph glyph-name="Ccedilla" unicode="&#xc7;" horiz-adv-x="646" 
d="M679 405c22.667 0 41.1641 -8.5 55.4971 -25.5s21.5 -37.167 21.5 -60.5c0 -77.333 -28 -143.333 -84 -198c-50.667 -50 -115.667 -83.667 -195 -101c15.333 -14 33.666 -21 54.999 -21c29.333 0 64 16.667 104 50l88 84l9 -8c-34 -44 -64.333 -77 -91 -99
c-39.333 -32 -80.333 -48 -123 -48c-40 0 -82 28.333 -126 85c-41.333 54 -62 102 -62 144c0 106.667 69.333 216.667 208 330c-22.667 12.667 -53.667 19 -93 19c-140.667 0 -255 -36 -343 -108c-94 -77.333 -141 -185 -141 -323c0 -82.667 23.333 -152.667 70 -210
c50 -62 115.333 -93 196 -93c52.667 0 116.334 11.667 191.001 35l185 64c70.667 23.333 134 35 190 35c62 0 118.667 -12.667 170 -38c64.667 -32 97 -75.667 97 -131c0 -18.667 -9 -35.667 -27 -51l-8 8c7.33301 14.667 11 26.334 11 35.001
c0 57.333 -32.333 99.666 -97 126.999c-48.667 20.667 -106 31 -172 31c-49.333 0 -108 -12 -176 -36l-170 -66c-64 -24 -123 -36 -177 -36c-90 0 -163 33.333 -219 100c-53.333 62.667 -80 139.667 -80 231c0 106.667 32 199.5 96 278.5s148 130.5 252 154.5
c23.333 5.33301 51.333 8 84 8c18 0 45.167 -1.33301 81.5 -4s63.5 -4 81.5 -4c33.333 0 87.333 15.667 162 47s131.334 47 170.001 47c83.333 0 125 -21.333 125 -64c0 -29.333 -18.667 -53.333 -56 -72c-30 -15.333 -61.333 -23 -94 -23c-20 0 -49.333 4.16699 -88 12.5
s-68 12.5 -88 12.5c-53.333 0 -112.166 -50.167 -176.499 -150.5s-95.166 -177.833 -92.499 -232.5l1 -22c19.333 76.667 50.333 140.667 93 192c52 63.333 112.667 95 182 95zM895.997 630c-30.667 0 -65.332 -9.99902 -103.999 -29.999c-12 -6 -43.333 -25.333 -94 -58
c24.667 -8.66699 56 -13 94 -13c47.333 0 84 3 110 9c49.333 11.333 74 31.666 74 60.999c-22.667 20.667 -49.334 31 -80.001 31zM441.999 102.001c0 -18.667 1 -30.333 3 -35c4 -8 14 -12 30 -12c48.667 0 99.167 30 151.5 90s78.5 114.667 78.5 164
c0 38.667 -21 58 -63 58c-47.333 0 -93.333 -32.667 -138 -98c-41.333 -60 -62 -115.667 -62 -167zM440.999 -100.998l43 5c2 -16 11 -24 27 -24c16.667 0 25 9 25 27s-9.33301 27 -28 27c-10 0 -18.667 -5.66699 -26 -17l-32 17l32 72h39l-16 -37l12 1
c16.667 1.33301 31 -4 43 -16s18 -27.333 18 -46c0 -19.333 -6.33301 -36 -19 -50s-28.667 -21 -48 -21c-38 0 -61.333 20.667 -70 62z" />
    <glyph glyph-name="Egrave" unicode="&#xc8;" horiz-adv-x="494" 
d="M632 483l-3 -18.002c0 -33.333 18.667 -59 56 -77l-4 -15h11c86.667 0 130 -47.333 130 -142c0 -73.333 -25.333 -131 -76 -173c-47.333 -39.333 -108.333 -59 -183 -59c-65.333 0 -121 19.667 -167 59c-49.333 41.333 -74 94 -74 158c0 82 22.667 140.333 68 175l174 64
c0 53.333 -61.667 80 -185 80h-26c-79.333 0 -155.333 -13.333 -228 -40c-96.667 -35.333 -145 -85.666 -145 -150.999c0 -16 4.33301 -34.667 13 -56l22 -55c-38 12.667 -57 43 -57 91c0 116.667 84.333 187.334 253 212.001c54.667 8 123 12 205 12h57
c26 -0.666992 45.333 -1 58 -1c30 98.667 96 148 198 148c36.667 0 68.5 -11.667 95.5 -35s40.5 -53 40.5 -89c0 -34.667 -14.333 -62 -43 -82c-25.333 -18 -56.333 -27 -93 -27c-28 0 -60.333 7 -97 21zM631 531.998l2 -16c10 0 21.333 -2.33301 34 -7
c30.667 -11.333 50 -17 58 -17c27.333 0 51.333 5.66699 72 17c24.667 14.667 37 34.667 37 60c0 22 -7 39.5 -21 52.5s-32 19.5 -54 19.5c-30.667 0 -59.667 -10.667 -87 -32s-41 -47 -41 -77zM563 181.998c0 -18 5.99902 -32.998 17.999 -44.998s27 -18 45 -18
c28 0 49.667 13 65 39c8.66699 15.333 17 40.333 25 75c6.66699 29.333 13 45.666 19 48.999c12.667 -14 19 -30 19 -48c0 -40 -13 -75.333 -39 -106s-58.667 -46 -98 -46c-30 0 -53.333 12 -70 36c-15.333 21.333 -23 47.666 -23 78.999c0 28.667 14.667 60 44 94
c26 30.667 53.667 53.334 83 68.001c-12.667 16.667 -33.667 25 -63 25c-49.333 0 -88.166 -16 -116.499 -48s-42.5 -73 -42.5 -123s12.667 -92 38 -126c28 -38 66.333 -57 115 -57c60.667 0 111.334 21.5 152.001 64.5s61 94.833 61 155.5c0 52.667 -28.333 79 -85 79
c-38.667 0 -72.834 -14.833 -102.501 -44.5s-44.5 -63.834 -44.5 -102.501zM410.999 747l27 51l149 -80l-29 -50z" />
    <glyph glyph-name="Eacute" unicode="&#xc9;" horiz-adv-x="494" 
d="M632 483l-3 -18.002c0 -33.333 18.667 -59 56 -77l-4 -15h11c86.667 0 130 -47.333 130 -142c0 -73.333 -25.333 -131 -76 -173c-47.333 -39.333 -108.333 -59 -183 -59c-65.333 0 -121 19.667 -167 59c-49.333 41.333 -74 94 -74 158c0 82 22.667 140.333 68 175l174 64
c0 53.333 -61.667 80 -185 80h-26c-79.333 0 -155.333 -13.333 -228 -40c-96.667 -35.333 -145 -85.666 -145 -150.999c0 -16 4.33301 -34.667 13 -56l22 -55c-38 12.667 -57 43 -57 91c0 116.667 84.333 187.334 253 212.001c54.667 8 123 12 205 12h57
c26 -0.666992 45.333 -1 58 -1c30 98.667 96 148 198 148c36.667 0 68.5 -11.667 95.5 -35s40.5 -53 40.5 -89c0 -34.667 -14.333 -62 -43 -82c-25.333 -18 -56.333 -27 -93 -27c-28 0 -60.333 7 -97 21zM631 531.998l2 -16c10 0 21.333 -2.33301 34 -7
c30.667 -11.333 50 -17 58 -17c27.333 0 51.333 5.66699 72 17c24.667 14.667 37 34.667 37 60c0 22 -7 39.5 -21 52.5s-32 19.5 -54 19.5c-30.667 0 -59.667 -10.667 -87 -32s-41 -47 -41 -77zM563 181.998c0 -18 5.99902 -32.998 17.999 -44.998s27 -18 45 -18
c28 0 49.667 13 65 39c8.66699 15.333 17 40.333 25 75c6.66699 29.333 13 45.666 19 48.999c12.667 -14 19 -30 19 -48c0 -40 -13 -75.333 -39 -106s-58.667 -46 -98 -46c-30 0 -53.333 12 -70 36c-15.333 21.333 -23 47.666 -23 78.999c0 28.667 14.667 60 44 94
c26 30.667 53.667 53.334 83 68.001c-12.667 16.667 -33.667 25 -63 25c-49.333 0 -88.166 -16 -116.499 -48s-42.5 -73 -42.5 -123s12.667 -92 38 -126c28 -38 66.333 -57 115 -57c60.667 0 111.334 21.5 152.001 64.5s61 94.833 61 155.5c0 52.667 -28.333 79 -85 79
c-38.667 0 -72.834 -14.833 -102.501 -44.5s-44.5 -63.834 -44.5 -102.501zM441.999 731l145 88l31 -51l-146 -86z" />
    <glyph glyph-name="Ecircumflex" unicode="&#xca;" horiz-adv-x="494" 
d="M632 483l-3 -18.002c0 -33.333 18.667 -59 56 -77l-4 -15h11c86.667 0 130 -47.333 130 -142c0 -73.333 -25.333 -131 -76 -173c-47.333 -39.333 -108.333 -59 -183 -59c-65.333 0 -121 19.667 -167 59c-49.333 41.333 -74 94 -74 158c0 82 22.667 140.333 68 175l174 64
c0 53.333 -61.667 80 -185 80h-26c-79.333 0 -155.333 -13.333 -228 -40c-96.667 -35.333 -145 -85.666 -145 -150.999c0 -16 4.33301 -34.667 13 -56l22 -55c-38 12.667 -57 43 -57 91c0 116.667 84.333 187.334 253 212.001c54.667 8 123 12 205 12h57
c26 -0.666992 45.333 -1 58 -1c30 98.667 96 148 198 148c36.667 0 68.5 -11.667 95.5 -35s40.5 -53 40.5 -89c0 -34.667 -14.333 -62 -43 -82c-25.333 -18 -56.333 -27 -93 -27c-28 0 -60.333 7 -97 21zM631 531.998l2 -16c10 0 21.333 -2.33301 34 -7
c30.667 -11.333 50 -17 58 -17c27.333 0 51.333 5.66699 72 17c24.667 14.667 37 34.667 37 60c0 22 -7 39.5 -21 52.5s-32 19.5 -54 19.5c-30.667 0 -59.667 -10.667 -87 -32s-41 -47 -41 -77zM563 181.998c0 -18 5.99902 -32.998 17.999 -44.998s27 -18 45 -18
c28 0 49.667 13 65 39c8.66699 15.333 17 40.333 25 75c6.66699 29.333 13 45.666 19 48.999c12.667 -14 19 -30 19 -48c0 -40 -13 -75.333 -39 -106s-58.667 -46 -98 -46c-30 0 -53.333 12 -70 36c-15.333 21.333 -23 47.666 -23 78.999c0 28.667 14.667 60 44 94
c26 30.667 53.667 53.334 83 68.001c-12.667 16.667 -33.667 25 -63 25c-49.333 0 -88.166 -16 -116.499 -48s-42.5 -73 -42.5 -123s12.667 -92 38 -126c28 -38 66.333 -57 115 -57c60.667 0 111.334 21.5 152.001 64.5s61 94.833 61 155.5c0 52.667 -28.333 79 -85 79
c-38.667 0 -72.834 -14.833 -102.501 -44.5s-44.5 -63.834 -44.5 -102.501zM577.999 746l-59 -49h-81l116 100h49l115 -100h-81z" />
    <glyph glyph-name="Edieresis" unicode="&#xcb;" horiz-adv-x="494" 
d="M632 483l-3 -18.002c0 -33.333 18.667 -59 56 -77l-4 -15h11c86.667 0 130 -47.333 130 -142c0 -73.333 -25.333 -131 -76 -173c-47.333 -39.333 -108.333 -59 -183 -59c-65.333 0 -121 19.667 -167 59c-49.333 41.333 -74 94 -74 158c0 82 22.667 140.333 68 175l174 64
c0 53.333 -61.667 80 -185 80h-26c-79.333 0 -155.333 -13.333 -228 -40c-96.667 -35.333 -145 -85.666 -145 -150.999c0 -16 4.33301 -34.667 13 -56l22 -55c-38 12.667 -57 43 -57 91c0 116.667 84.333 187.334 253 212.001c54.667 8 123 12 205 12h57
c26 -0.666992 45.333 -1 58 -1c30 98.667 96 148 198 148c36.667 0 68.5 -11.667 95.5 -35s40.5 -53 40.5 -89c0 -34.667 -14.333 -62 -43 -82c-25.333 -18 -56.333 -27 -93 -27c-28 0 -60.333 7 -97 21zM631 531.998l2 -16c10 0 21.333 -2.33301 34 -7
c30.667 -11.333 50 -17 58 -17c27.333 0 51.333 5.66699 72 17c24.667 14.667 37 34.667 37 60c0 22 -7 39.5 -21 52.5s-32 19.5 -54 19.5c-30.667 0 -59.667 -10.667 -87 -32s-41 -47 -41 -77zM563 181.998c0 -18 5.99902 -32.998 17.999 -44.998s27 -18 45 -18
c28 0 49.667 13 65 39c8.66699 15.333 17 40.333 25 75c6.66699 29.333 13 45.666 19 48.999c12.667 -14 19 -30 19 -48c0 -40 -13 -75.333 -39 -106s-58.667 -46 -98 -46c-30 0 -53.333 12 -70 36c-15.333 21.333 -23 47.666 -23 78.999c0 28.667 14.667 60 44 94
c26 30.667 53.667 53.334 83 68.001c-12.667 16.667 -33.667 25 -63 25c-49.333 0 -88.166 -16 -116.499 -48s-42.5 -73 -42.5 -123s12.667 -92 38 -126c28 -38 66.333 -57 115 -57c60.667 0 111.334 21.5 152.001 64.5s61 94.833 61 155.5c0 52.667 -28.333 79 -85 79
c-38.667 0 -72.834 -14.833 -102.501 -44.5s-44.5 -63.834 -44.5 -102.501zM521.999 799h64v-100h-64v100zM418.999 799h64v-100h-64v100z" />
    <glyph glyph-name="Igrave" unicode="&#xcc;" horiz-adv-x="805" 
d="M785 481c2.66699 -45.333 4 -67.668 4 -67.001c0 -57.333 -23 -98 -69 -122c-64 -33.333 -111.333 -80.333 -142 -141c-53.333 -106 -159 -159 -317 -159c-118.667 0 -201.667 41.333 -249 124c-36 63.333 -54 161 -54 293c0 85.333 34.667 155 104 209
c64 50 140 75 228 75c26 0 54.333 -11 85 -33c-42.667 6 -85 12.333 -127 19c-74 0 -136.333 -28.667 -187 -86c-53.333 -60.667 -79 -127 -77 -199l1 -33c24.667 54 64 97 118 129c52 31.333 108.333 47 169 47c24 0 50.667 -5.66699 80 -17
c2.66699 -1.33301 27.667 -12.666 75 -33.999c14 60.667 60.667 108.667 140 144c66 29.333 135.333 44 208 44c74 0 144.667 -15 212 -45v-15c-88 0 -168.667 -33.333 -242 -100c-74.667 -68.667 -112 -146.667 -112 -234c79.333 14.667 130 81.667 152 201zM455 466.998
c0 -12 10.1689 -45.168 30.502 -99.501s33.166 -82.166 38.499 -83.499c73.333 230.667 209.666 346 408.999 346c-16 0 -35 2.66699 -57 8c-50 12 -83.333 18 -100 18c-64 0 -130 -16 -198 -48c-82 -38.667 -123 -85.667 -123 -141zM444.002 395.997
c0 -10 4 -21.333 12 -34c10.667 -16.667 16.667 -27.667 18 -33l-11 -4c-2 4.66699 -4.66699 18.667 -8 42c-3.33301 20 -7 32 -11 36v-7zM260.002 509.997c-68 0 -127.667 -21.667 -179 -65c-53.333 -45.333 -80 -101.666 -80 -168.999
c0 -46.667 25.333 -88.334 76 -125.001c46 -33.333 93.333 -50 142 -50c46 0 95.667 14.667 149 44c60.667 33.333 91 70.666 91 111.999c0 17.333 -8.83301 43.333 -26.5 78s-26.5 61.334 -26.5 80.001c0 12 2.33301 24 7 36c-38 39.333 -89 59 -153 59zM221.002 65.9971
c-44 0 -86.332 11.667 -126.999 35s-72.667 54 -96 92c9.33301 -48 37.666 -89 84.999 -123s96 -51 146 -51c68 0 126.333 23.667 175 71c36.667 36 71.334 90.667 104.001 164l-21 7c-12.667 -59.333 -45.334 -107 -98.001 -143c-49.333 -34.667 -105.333 -52 -168 -52z
M521.003 752.997l27 51l149 -80l-29 -50z" />
    <glyph glyph-name="Iacute" unicode="&#xcd;" horiz-adv-x="805" 
d="M785 481c2.66699 -45.333 4 -67.668 4 -67.001c0 -57.333 -23 -98 -69 -122c-64 -33.333 -111.333 -80.333 -142 -141c-53.333 -106 -159 -159 -317 -159c-118.667 0 -201.667 41.333 -249 124c-36 63.333 -54 161 -54 293c0 85.333 34.667 155 104 209
c64 50 140 75 228 75c26 0 54.333 -11 85 -33c-42.667 6 -85 12.333 -127 19c-74 0 -136.333 -28.667 -187 -86c-53.333 -60.667 -79 -127 -77 -199l1 -33c24.667 54 64 97 118 129c52 31.333 108.333 47 169 47c24 0 50.667 -5.66699 80 -17
c2.66699 -1.33301 27.667 -12.666 75 -33.999c14 60.667 60.667 108.667 140 144c66 29.333 135.333 44 208 44c74 0 144.667 -15 212 -45v-15c-88 0 -168.667 -33.333 -242 -100c-74.667 -68.667 -112 -146.667 -112 -234c79.333 14.667 130 81.667 152 201zM455 466.998
c0 -12 10.1689 -45.168 30.502 -99.501s33.166 -82.166 38.499 -83.499c73.333 230.667 209.666 346 408.999 346c-16 0 -35 2.66699 -57 8c-50 12 -83.333 18 -100 18c-64 0 -130 -16 -198 -48c-82 -38.667 -123 -85.667 -123 -141zM444.002 395.997
c0 -10 4 -21.333 12 -34c10.667 -16.667 16.667 -27.667 18 -33l-11 -4c-2 4.66699 -4.66699 18.667 -8 42c-3.33301 20 -7 32 -11 36v-7zM260.002 509.997c-68 0 -127.667 -21.667 -179 -65c-53.333 -45.333 -80 -101.666 -80 -168.999
c0 -46.667 25.333 -88.334 76 -125.001c46 -33.333 93.333 -50 142 -50c46 0 95.667 14.667 149 44c60.667 33.333 91 70.666 91 111.999c0 17.333 -8.83301 43.333 -26.5 78s-26.5 61.334 -26.5 80.001c0 12 2.33301 24 7 36c-38 39.333 -89 59 -153 59zM221.002 65.9971
c-44 0 -86.332 11.667 -126.999 35s-72.667 54 -96 92c9.33301 -48 37.666 -89 84.999 -123s96 -51 146 -51c68 0 126.333 23.667 175 71c36.667 36 71.334 90.667 104.001 164l-21 7c-12.667 -59.333 -45.334 -107 -98.001 -143c-49.333 -34.667 -105.333 -52 -168 -52z
M484.003 724.997l145 88l31 -51l-146 -86z" />
    <glyph glyph-name="Icircumflex" unicode="&#xce;" horiz-adv-x="805" 
d="M785 481c2.66699 -45.333 4 -67.668 4 -67.001c0 -57.333 -23 -98 -69 -122c-64 -33.333 -111.333 -80.333 -142 -141c-53.333 -106 -159 -159 -317 -159c-118.667 0 -201.667 41.333 -249 124c-36 63.333 -54 161 -54 293c0 85.333 34.667 155 104 209
c64 50 140 75 228 75c26 0 54.333 -11 85 -33c-42.667 6 -85 12.333 -127 19c-74 0 -136.333 -28.667 -187 -86c-53.333 -60.667 -79 -127 -77 -199l1 -33c24.667 54 64 97 118 129c52 31.333 108.333 47 169 47c24 0 50.667 -5.66699 80 -17
c2.66699 -1.33301 27.667 -12.666 75 -33.999c14 60.667 60.667 108.667 140 144c66 29.333 135.333 44 208 44c74 0 144.667 -15 212 -45v-15c-88 0 -168.667 -33.333 -242 -100c-74.667 -68.667 -112 -146.667 -112 -234c79.333 14.667 130 81.667 152 201zM455 466.998
c0 -12 10.1689 -45.168 30.502 -99.501s33.166 -82.166 38.499 -83.499c73.333 230.667 209.666 346 408.999 346c-16 0 -35 2.66699 -57 8c-50 12 -83.333 18 -100 18c-64 0 -130 -16 -198 -48c-82 -38.667 -123 -85.667 -123 -141zM444.002 395.997
c0 -10 4 -21.333 12 -34c10.667 -16.667 16.667 -27.667 18 -33l-11 -4c-2 4.66699 -4.66699 18.667 -8 42c-3.33301 20 -7 32 -11 36v-7zM260.002 509.997c-68 0 -127.667 -21.667 -179 -65c-53.333 -45.333 -80 -101.666 -80 -168.999
c0 -46.667 25.333 -88.334 76 -125.001c46 -33.333 93.333 -50 142 -50c46 0 95.667 14.667 149 44c60.667 33.333 91 70.666 91 111.999c0 17.333 -8.83301 43.333 -26.5 78s-26.5 61.334 -26.5 80.001c0 12 2.33301 24 7 36c-38 39.333 -89 59 -153 59zM221.002 65.9971
c-44 0 -86.332 11.667 -126.999 35s-72.667 54 -96 92c9.33301 -48 37.666 -89 84.999 -123s96 -51 146 -51c68 0 126.333 23.667 175 71c36.667 36 71.334 90.667 104.001 164l-21 7c-12.667 -59.333 -45.334 -107 -98.001 -143c-49.333 -34.667 -105.333 -52 -168 -52z
M537.003 755.997l-59 -49h-81l116 100h49l115 -100h-81z" />
    <glyph glyph-name="Idieresis" unicode="&#xcf;" horiz-adv-x="805" 
d="M785 481c2.66699 -45.333 4 -67.668 4 -67.001c0 -57.333 -23 -98 -69 -122c-64 -33.333 -111.333 -80.333 -142 -141c-53.333 -106 -159 -159 -317 -159c-118.667 0 -201.667 41.333 -249 124c-36 63.333 -54 161 -54 293c0 85.333 34.667 155 104 209
c64 50 140 75 228 75c26 0 54.333 -11 85 -33c-42.667 6 -85 12.333 -127 19c-74 0 -136.333 -28.667 -187 -86c-53.333 -60.667 -79 -127 -77 -199l1 -33c24.667 54 64 97 118 129c52 31.333 108.333 47 169 47c24 0 50.667 -5.66699 80 -17
c2.66699 -1.33301 27.667 -12.666 75 -33.999c14 60.667 60.667 108.667 140 144c66 29.333 135.333 44 208 44c74 0 144.667 -15 212 -45v-15c-88 0 -168.667 -33.333 -242 -100c-74.667 -68.667 -112 -146.667 -112 -234c79.333 14.667 130 81.667 152 201zM455 466.998
c0 -12 10.1689 -45.168 30.502 -99.501s33.166 -82.166 38.499 -83.499c73.333 230.667 209.666 346 408.999 346c-16 0 -35 2.66699 -57 8c-50 12 -83.333 18 -100 18c-64 0 -130 -16 -198 -48c-82 -38.667 -123 -85.667 -123 -141zM444.002 395.997
c0 -10 4 -21.333 12 -34c10.667 -16.667 16.667 -27.667 18 -33l-11 -4c-2 4.66699 -4.66699 18.667 -8 42c-3.33301 20 -7 32 -11 36v-7zM260.002 509.997c-68 0 -127.667 -21.667 -179 -65c-53.333 -45.333 -80 -101.666 -80 -168.999
c0 -46.667 25.333 -88.334 76 -125.001c46 -33.333 93.333 -50 142 -50c46 0 95.667 14.667 149 44c60.667 33.333 91 70.666 91 111.999c0 17.333 -8.83301 43.333 -26.5 78s-26.5 61.334 -26.5 80.001c0 12 2.33301 24 7 36c-38 39.333 -89 59 -153 59zM221.002 65.9971
c-44 0 -86.332 11.667 -126.999 35s-72.667 54 -96 92c9.33301 -48 37.666 -89 84.999 -123s96 -51 146 -51c68 0 126.333 23.667 175 71c36.667 36 71.334 90.667 104.001 164l-21 7c-12.667 -59.333 -45.334 -107 -98.001 -143c-49.333 -34.667 -105.333 -52 -168 -52z
M634.003 799.997h64v-100h-64v100zM531.003 799.997h64v-100h-64v100z" />
    <glyph glyph-name="Eth" unicode="&#xd0;" horiz-adv-x="472" 
d="M80 -6v253h-68v59h68v219h146c86.667 0 157.667 -22 213 -66c60.667 -47.333 91 -113.333 91 -198s-29.667 -151 -89 -199c-55.333 -45.333 -126 -68 -212 -68h-149zM144 466l0.000976562 -160.001h91v-59h-91v-194h60c174.667 0 262 69.333 262 208
c0 72.667 -26.667 126.334 -80 161.001c-44.667 29.333 -105.334 44 -182.001 44h-60z" />
    <glyph glyph-name="Ntilde" unicode="&#xd1;" horiz-adv-x="746" 
d="M185 -49c-68.667 0 -126.999 21.5029 -174.999 64.5029s-72 98.5 -72 166.5c0 98 36.333 174.333 109 229c66 48.667 149.333 73 250 73c47.333 91.333 75.666 143.333 84.999 156c38 51.333 118.333 77 241 77c39.333 0 81.666 -6.33301 126.999 -19
c10 -2.66699 51 -16 123 -40c52.667 -17.333 94.667 -28.666 126 -33.999l59 45c22 15.333 45.333 23 70 23c40 -6.66699 60 -21 60 -43c0 -41.333 -37.333 -62 -112 -62c-24 0 -48 2 -72 6c-30.667 -46.667 -67.667 -111.334 -111 -194.001
c-51.333 -97.333 -86.333 -162 -105 -194c-43.333 -72.667 -89 -136.667 -137 -192l-28 3c33.333 41.333 50 89.666 50 144.999c0 19.333 -4 62.666 -12 129.999c-4 33.333 -6 59.666 -6 78.999c0 36 4.66699 67.333 14 94l-110 -221
c-45.333 -86 -95.666 -153.667 -150.999 -203c-66.667 -59.333 -141 -89 -223 -89zM1124 674.003c-38 0 -70.001 -20 -96.001 -60c14.667 -6 32.334 -9 53.001 -9c55.333 0 83 16.333 83 49l-1 7c-10.667 8.66699 -23.667 13 -39 13zM634 696.003l-4.00586 -2.99902
c-60 0 -121.667 -19 -185 -57c-73.333 -44 -110 -94.667 -110 -152l1 -8c62.667 -25.333 100.334 -72 113.001 -140l12 -1c38.667 -3.33301 65.667 17 81 61c9.33301 26.667 14 65.667 14 117v33l23 -50c9.33301 -22 14 -39.333 14 -52c0 -34.667 -13.833 -65.667 -41.5 -93
s-59.167 -44.333 -94.5 -51c0 -70 -26.167 -133.167 -78.5 -189.5s-113.166 -84.5 -182.499 -84.5c-41.333 0 -75.666 12.667 -102.999 38l24 3c8 0 17 -1.66699 27 -5c24.667 -8 40.334 -12 47.001 -12c58.667 0 112.167 24.5 160.5 73.5s72.5 103.167 72.5 162.5
c0 14 -7 24.667 -21 32l-13 -2c-55.333 32.667 -87 81 -95 145c-16 2.66699 -33.667 4 -53 4c-77.333 0 -143.333 -27 -198 -81s-82 -119.667 -82 -197c0 -67.333 22.333 -120.666 67 -159.999c42.667 -38 98.334 -57 167.001 -57c90 0 171.333 45.667 244 137
c32 40 88.667 135.667 170 287c66.667 124 126.334 206.667 179.001 248c-28 14.667 -61 22 -99 22c-18.667 0 -43.667 -5.33301 -75 -16c-75.333 -25.333 -119.333 -38 -132 -38c-10 0 -18 2 -24 6c56 49.333 126 74 210 74c58.667 0 116.667 -14 174 -42
c-75.333 -34.667 -113 -87.334 -113 -158.001c0 -20.667 7 -68.334 21 -143.001c6.66699 -35.333 10 -64.333 10 -87c0 -20 -2.33301 -39 -7 -57c75.333 111.333 148.666 244.333 219.999 399c-41.333 18.667 -93 37.667 -155 57c-74.667 23.333 -129.667 35 -165 35
c-7.33301 0 -12.666 -0.333008 -15.999 -1zM468.994 511.004v-18.002c-28.667 8 -43 20.333 -43 37c0 36.667 20.333 67.334 61 92.001c-28 -37.333 -42 -65.666 -42 -84.999c0 -6 2.5 -11.667 7.5 -17s10.5 -8.33301 16.5 -9zM642.994 761.002
c-12 0 -25.332 -8 -39.999 -24l-27 45c22.667 22.667 46 34 70 34c10.667 0 22 -2.66699 34 -8c30.667 -13.333 47 -20 49 -20c8 0 21 6.66699 39 20l27 -43c-22.667 -21.333 -44.334 -32 -65.001 -32c-11.333 0 -27 4.66699 -47 14s-33.333 14 -40 14z" />
    <glyph glyph-name="Ograve" unicode="&#xd2;" horiz-adv-x="526" 
d="M-22 162c0 72.667 23 151.665 69 236.998c41.333 78 91.666 143.667 150.999 197c69.333 62.667 137.666 94 204.999 94c8 0 18 -1.33301 30 -4l33 -9c-66 -9.33301 -135 -54.666 -207 -135.999c-56.667 -64 -104 -134.667 -142 -212c-43.333 -88 -65 -162 -65 -222
c0 -25.333 8.33301 -48.333 25 -69s37.334 -31 62.001 -31c56 0 114.667 37.667 176 113c45.333 56 87.666 128 126.999 216c42.667 96.667 64 176.334 64 239.001c0 23.333 -3 40 -9 50c-8.66699 13.333 -24 19.666 -46 18.999l-36 -1
c-119.333 -93.333 -179 -185 -179 -275c0 -54.667 18.667 -82 56 -82c44 0 83.333 24.667 118 74c31.333 44.667 47 87.667 47 129c0 30.667 -10.667 46 -32 46c-12 0 -24.333 -4.33301 -37 -13c-9.33301 -6 -20.666 -14.333 -33.999 -25c0 36.667 26.333 55 79 55
c26.667 0 40 -22 40 -66c0 -49.333 -18 -97.666 -54 -144.999c-38.667 -50.667 -81.667 -76 -129 -76c-23.333 0 -42 10.333 -56 31c-12.667 18.667 -19 40.334 -19 65.001c0 57.333 24.667 121 74 191c52.667 75.333 106.334 113 161.001 113
c82.667 0 124 -59.333 124 -178c0 -106 -45 -213.333 -135 -322c-94 -114 -193 -171 -297 -171c-49.333 0 -89 15.667 -119 47s-45 71.666 -45 120.999zM344 767.998l27 51l149 -80l-29 -50z" />
    <glyph glyph-name="Oacute" unicode="&#xd3;" horiz-adv-x="526" 
d="M-22 162c0 72.667 23 151.665 69 236.998c41.333 78 91.666 143.667 150.999 197c69.333 62.667 137.666 94 204.999 94c8 0 18 -1.33301 30 -4l33 -9c-66 -9.33301 -135 -54.666 -207 -135.999c-56.667 -64 -104 -134.667 -142 -212c-43.333 -88 -65 -162 -65 -222
c0 -25.333 8.33301 -48.333 25 -69s37.334 -31 62.001 -31c56 0 114.667 37.667 176 113c45.333 56 87.666 128 126.999 216c42.667 96.667 64 176.334 64 239.001c0 23.333 -3 40 -9 50c-8.66699 13.333 -24 19.666 -46 18.999l-36 -1
c-119.333 -93.333 -179 -185 -179 -275c0 -54.667 18.667 -82 56 -82c44 0 83.333 24.667 118 74c31.333 44.667 47 87.667 47 129c0 30.667 -10.667 46 -32 46c-12 0 -24.333 -4.33301 -37 -13c-9.33301 -6 -20.666 -14.333 -33.999 -25c0 36.667 26.333 55 79 55
c26.667 0 40 -22 40 -66c0 -49.333 -18 -97.666 -54 -144.999c-38.667 -50.667 -81.667 -76 -129 -76c-23.333 0 -42 10.333 -56 31c-12.667 18.667 -19 40.334 -19 65.001c0 57.333 24.667 121 74 191c52.667 75.333 106.334 113 161.001 113
c82.667 0 124 -59.333 124 -178c0 -106 -45 -213.333 -135 -322c-94 -114 -193 -171 -297 -171c-49.333 0 -89 15.667 -119 47s-45 71.666 -45 120.999zM333 726.998l145 88l31 -51l-146 -86z" />
    <glyph glyph-name="Ocircumflex" unicode="&#xd4;" horiz-adv-x="526" 
d="M-22 162c0 72.667 23 151.665 69 236.998c41.333 78 91.666 143.667 150.999 197c69.333 62.667 137.666 94 204.999 94c8 0 18 -1.33301 30 -4l33 -9c-66 -9.33301 -135 -54.666 -207 -135.999c-56.667 -64 -104 -134.667 -142 -212c-43.333 -88 -65 -162 -65 -222
c0 -25.333 8.33301 -48.333 25 -69s37.334 -31 62.001 -31c56 0 114.667 37.667 176 113c45.333 56 87.666 128 126.999 216c42.667 96.667 64 176.334 64 239.001c0 23.333 -3 40 -9 50c-8.66699 13.333 -24 19.666 -46 18.999l-36 -1
c-119.333 -93.333 -179 -185 -179 -275c0 -54.667 18.667 -82 56 -82c44 0 83.333 24.667 118 74c31.333 44.667 47 87.667 47 129c0 30.667 -10.667 46 -32 46c-12 0 -24.333 -4.33301 -37 -13c-9.33301 -6 -20.666 -14.333 -33.999 -25c0 36.667 26.333 55 79 55
c26.667 0 40 -22 40 -66c0 -49.333 -18 -97.666 -54 -144.999c-38.667 -50.667 -81.667 -76 -129 -76c-23.333 0 -42 10.333 -56 31c-12.667 18.667 -19 40.334 -19 65.001c0 57.333 24.667 121 74 191c52.667 75.333 106.334 113 161.001 113
c82.667 0 124 -59.333 124 -178c0 -106 -45 -213.333 -135 -322c-94 -114 -193 -171 -297 -171c-49.333 0 -89 15.667 -119 47s-45 71.666 -45 120.999zM397 768.998l-59 -49h-81l116 100h49l115 -100h-81z" />
    <glyph glyph-name="Otilde" unicode="&#xd5;" horiz-adv-x="526" 
d="M-22 162c0 72.667 23 151.665 69 236.998c41.333 78 91.666 143.667 150.999 197c69.333 62.667 137.666 94 204.999 94c8 0 18 -1.33301 30 -4l33 -9c-66 -9.33301 -135 -54.666 -207 -135.999c-56.667 -64 -104 -134.667 -142 -212c-43.333 -88 -65 -162 -65 -222
c0 -25.333 8.33301 -48.333 25 -69s37.334 -31 62.001 -31c56 0 114.667 37.667 176 113c45.333 56 87.666 128 126.999 216c42.667 96.667 64 176.334 64 239.001c0 23.333 -3 40 -9 50c-8.66699 13.333 -24 19.666 -46 18.999l-36 -1
c-119.333 -93.333 -179 -185 -179 -275c0 -54.667 18.667 -82 56 -82c44 0 83.333 24.667 118 74c31.333 44.667 47 87.667 47 129c0 30.667 -10.667 46 -32 46c-12 0 -24.333 -4.33301 -37 -13c-9.33301 -6 -20.666 -14.333 -33.999 -25c0 36.667 26.333 55 79 55
c26.667 0 40 -22 40 -66c0 -49.333 -18 -97.666 -54 -144.999c-38.667 -50.667 -81.667 -76 -129 -76c-23.333 0 -42 10.333 -56 31c-12.667 18.667 -19 40.334 -19 65.001c0 57.333 24.667 121 74 191c52.667 75.333 106.334 113 161.001 113
c82.667 0 124 -59.333 124 -178c0 -106 -45 -213.333 -135 -322c-94 -114 -193 -171 -297 -171c-49.333 0 -89 15.667 -119 47s-45 71.666 -45 120.999zM355 721.998c-12 0 -25.332 -8 -39.999 -24l-27 45c22.667 22.667 46 34 70 34c10.667 0 22 -2.66699 34 -8
c30.667 -13.333 47 -20 49 -20c8 0 21 6.66699 39 20l27 -43c-22.667 -21.333 -44.334 -32 -65.001 -32c-11.333 0 -27 4.66699 -47 14s-33.333 14 -40 14z" />
    <glyph glyph-name="Odieresis" unicode="&#xd6;" horiz-adv-x="526" 
d="M-22 162c0 72.667 23 151.665 69 236.998c41.333 78 91.666 143.667 150.999 197c69.333 62.667 137.666 94 204.999 94c8 0 18 -1.33301 30 -4l33 -9c-66 -9.33301 -135 -54.666 -207 -135.999c-56.667 -64 -104 -134.667 -142 -212c-43.333 -88 -65 -162 -65 -222
c0 -25.333 8.33301 -48.333 25 -69s37.334 -31 62.001 -31c56 0 114.667 37.667 176 113c45.333 56 87.666 128 126.999 216c42.667 96.667 64 176.334 64 239.001c0 23.333 -3 40 -9 50c-8.66699 13.333 -24 19.666 -46 18.999l-36 -1
c-119.333 -93.333 -179 -185 -179 -275c0 -54.667 18.667 -82 56 -82c44 0 83.333 24.667 118 74c31.333 44.667 47 87.667 47 129c0 30.667 -10.667 46 -32 46c-12 0 -24.333 -4.33301 -37 -13c-9.33301 -6 -20.666 -14.333 -33.999 -25c0 36.667 26.333 55 79 55
c26.667 0 40 -22 40 -66c0 -49.333 -18 -97.666 -54 -144.999c-38.667 -50.667 -81.667 -76 -129 -76c-23.333 0 -42 10.333 -56 31c-12.667 18.667 -19 40.334 -19 65.001c0 57.333 24.667 121 74 191c52.667 75.333 106.334 113 161.001 113
c82.667 0 124 -59.333 124 -178c0 -106 -45 -213.333 -135 -322c-94 -114 -193 -171 -297 -171c-49.333 0 -89 15.667 -119 47s-45 71.666 -45 120.999zM324 782.998h64v-100h-64v100zM221 782.998h64v-100h-64v100z" />
    <glyph glyph-name="Oslash" unicode="&#xd8;" horiz-adv-x="521" 
d="M163 24l-66.998 -90.999l-48 36l67 90c-60 54 -90 120 -90 198c0 77.333 26.667 142.666 80 195.999s118.666 80 195.999 80c53.333 0 100.666 -12 141.999 -36l67 88l47 -37l-64 -86c61.333 -55.333 92 -124 92 -206c0 -76 -27.667 -140.167 -83 -192.5
s-121.333 -78.5 -198 -78.5c-49.333 0 -96.333 13 -141 39zM200.002 73.001c32.667 -17.333 67.333 -26 104 -26c59.333 0 110.333 20.167 153 60.5s64 89.833 64 148.5c0 60.667 -22.333 112.667 -67 156zM89.001 253.001c0 -53.333 21.334 -101.333 64.001 -144l253 338
c-26.667 16.667 -60.334 25 -101.001 25c-62 0 -113.5 -21 -154.5 -63s-61.5 -94 -61.5 -156z" />
    <glyph glyph-name="Ugrave" unicode="&#xd9;" horiz-adv-x="1115" 
d="M976 524c-53.333 -30.667 -111.33 -83 -173.997 -157c-53.333 -62 -99.333 -126.333 -138 -193c-40 -68.667 -60 -117.334 -60 -146.001c0 -14.667 5.33301 -22 16 -22c18.667 0 55 24.333 109 73l8 -8c-54.667 -62 -97 -93 -127 -93c-32 0 -56.667 34.667 -74 104
l-49 -45c-38.667 -34 -72 -51 -100 -51c-28.667 0 -51.334 13.667 -68.001 41c-14.667 23.333 -22 50.333 -22 81c0 47.333 18 95 54 143l101 127c36.667 48 55 93.333 55 136c0 45.333 -20 82.333 -60 111c-35.333 25.333 -76.666 38 -123.999 38
c-40.667 0 -89 -6.66699 -145 -20l-3 11c40.667 17.333 82.667 26 126 26c70.667 0 132.334 -20 185.001 -60c58 -43.333 87 -99.333 87 -168c0 -47.333 -19 -96 -57 -146l-105 -130c-38.667 -49.333 -58 -91 -58 -125c0 -24 7.33301 -36 22 -36
c27.333 0 82.666 42.667 165.999 128c33.333 34 108.666 116.667 225.999 248c85.333 96 139 150.333 161 163c-15.333 32.667 -48 59 -98 79c-42.667 16.667 -85.334 25 -128.001 25h-16c-6.66699 -1.33301 -11.667 -2 -15 -2l-4 11c26 9.33301 51.667 14 77 14
c72 0 152 -34 240 -102c86 42 176 63 270 63c73.333 0 137.333 -15 192 -45c68 -37.333 102 -89.666 102 -156.999c0 -44 -17 -76.667 -51 -98c-28.667 -18 -66.334 -27 -113.001 -27c-124.667 0 -260.667 69.667 -408 209zM-69.9971 360c0 66.667 23 126.332 69 178.999
c42 47.333 96.333 83 163 107l4 -11c-62.667 -28.667 -113.334 -63.667 -152.001 -105c-48 -50.667 -72 -105.667 -72 -165c0 -42 19.667 -78 59 -108c36.667 -27.333 76.667 -41 120 -41c48.667 0 100.334 13 155.001 39l6 -11c-42.667 -28.667 -93 -43 -151 -43
c-50.667 0 -95.667 13.333 -135 40c-44 30.667 -66 70.334 -66 119.001zM1020 552.998c68 -62 106.333 -96.668 115 -104.001c86.667 -70.667 177.334 -106 272.001 -106c33.333 0 60.833 9.83301 82.5 29.5s32.5 45.834 32.5 78.501c0 56 -36 99 -108 129
c-54.667 22.667 -115.334 34 -182.001 34c-86 0 -156.667 -20.333 -212 -61zM591.003 650.997l27 51l149 -80l-29 -50z" />
    <glyph glyph-name="Uacute" unicode="&#xda;" horiz-adv-x="1115" 
d="M976 524c-53.333 -30.667 -111.33 -83 -173.997 -157c-53.333 -62 -99.333 -126.333 -138 -193c-40 -68.667 -60 -117.334 -60 -146.001c0 -14.667 5.33301 -22 16 -22c18.667 0 55 24.333 109 73l8 -8c-54.667 -62 -97 -93 -127 -93c-32 0 -56.667 34.667 -74 104
l-49 -45c-38.667 -34 -72 -51 -100 -51c-28.667 0 -51.334 13.667 -68.001 41c-14.667 23.333 -22 50.333 -22 81c0 47.333 18 95 54 143l101 127c36.667 48 55 93.333 55 136c0 45.333 -20 82.333 -60 111c-35.333 25.333 -76.666 38 -123.999 38
c-40.667 0 -89 -6.66699 -145 -20l-3 11c40.667 17.333 82.667 26 126 26c70.667 0 132.334 -20 185.001 -60c58 -43.333 87 -99.333 87 -168c0 -47.333 -19 -96 -57 -146l-105 -130c-38.667 -49.333 -58 -91 -58 -125c0 -24 7.33301 -36 22 -36
c27.333 0 82.666 42.667 165.999 128c33.333 34 108.666 116.667 225.999 248c85.333 96 139 150.333 161 163c-15.333 32.667 -48 59 -98 79c-42.667 16.667 -85.334 25 -128.001 25h-16c-6.66699 -1.33301 -11.667 -2 -15 -2l-4 11c26 9.33301 51.667 14 77 14
c72 0 152 -34 240 -102c86 42 176 63 270 63c73.333 0 137.333 -15 192 -45c68 -37.333 102 -89.666 102 -156.999c0 -44 -17 -76.667 -51 -98c-28.667 -18 -66.334 -27 -113.001 -27c-124.667 0 -260.667 69.667 -408 209zM-69.9971 360c0 66.667 23 126.332 69 178.999
c42 47.333 96.333 83 163 107l4 -11c-62.667 -28.667 -113.334 -63.667 -152.001 -105c-48 -50.667 -72 -105.667 -72 -165c0 -42 19.667 -78 59 -108c36.667 -27.333 76.667 -41 120 -41c48.667 0 100.334 13 155.001 39l6 -11c-42.667 -28.667 -93 -43 -151 -43
c-50.667 0 -95.667 13.333 -135 40c-44 30.667 -66 70.334 -66 119.001zM1020 552.998c68 -62 106.333 -96.668 115 -104.001c86.667 -70.667 177.334 -106 272.001 -106c33.333 0 60.833 9.83301 82.5 29.5s32.5 45.834 32.5 78.501c0 56 -36 99 -108 129
c-54.667 22.667 -115.334 34 -182.001 34c-86 0 -156.667 -20.333 -212 -61zM597.003 669.997l145 88l31 -51l-146 -86z" />
    <glyph glyph-name="Ucircumflex" unicode="&#xdb;" horiz-adv-x="1115" 
d="M976 524c-53.333 -30.667 -111.33 -83 -173.997 -157c-53.333 -62 -99.333 -126.333 -138 -193c-40 -68.667 -60 -117.334 -60 -146.001c0 -14.667 5.33301 -22 16 -22c18.667 0 55 24.333 109 73l8 -8c-54.667 -62 -97 -93 -127 -93c-32 0 -56.667 34.667 -74 104
l-49 -45c-38.667 -34 -72 -51 -100 -51c-28.667 0 -51.334 13.667 -68.001 41c-14.667 23.333 -22 50.333 -22 81c0 47.333 18 95 54 143l101 127c36.667 48 55 93.333 55 136c0 45.333 -20 82.333 -60 111c-35.333 25.333 -76.666 38 -123.999 38
c-40.667 0 -89 -6.66699 -145 -20l-3 11c40.667 17.333 82.667 26 126 26c70.667 0 132.334 -20 185.001 -60c58 -43.333 87 -99.333 87 -168c0 -47.333 -19 -96 -57 -146l-105 -130c-38.667 -49.333 -58 -91 -58 -125c0 -24 7.33301 -36 22 -36
c27.333 0 82.666 42.667 165.999 128c33.333 34 108.666 116.667 225.999 248c85.333 96 139 150.333 161 163c-15.333 32.667 -48 59 -98 79c-42.667 16.667 -85.334 25 -128.001 25h-16c-6.66699 -1.33301 -11.667 -2 -15 -2l-4 11c26 9.33301 51.667 14 77 14
c72 0 152 -34 240 -102c86 42 176 63 270 63c73.333 0 137.333 -15 192 -45c68 -37.333 102 -89.666 102 -156.999c0 -44 -17 -76.667 -51 -98c-28.667 -18 -66.334 -27 -113.001 -27c-124.667 0 -260.667 69.667 -408 209zM-69.9971 360c0 66.667 23 126.332 69 178.999
c42 47.333 96.333 83 163 107l4 -11c-62.667 -28.667 -113.334 -63.667 -152.001 -105c-48 -50.667 -72 -105.667 -72 -165c0 -42 19.667 -78 59 -108c36.667 -27.333 76.667 -41 120 -41c48.667 0 100.334 13 155.001 39l6 -11c-42.667 -28.667 -93 -43 -151 -43
c-50.667 0 -95.667 13.333 -135 40c-44 30.667 -66 70.334 -66 119.001zM1020 552.998c68 -62 106.333 -96.668 115 -104.001c86.667 -70.667 177.334 -106 272.001 -106c33.333 0 60.833 9.83301 82.5 29.5s32.5 45.834 32.5 78.501c0 56 -36 99 -108 129
c-54.667 22.667 -115.334 34 -182.001 34c-86 0 -156.667 -20.333 -212 -61zM683.003 693.997l-59 -49h-81l116 100h49l115 -100h-81z" />
    <glyph glyph-name="Udieresis" unicode="&#xdc;" horiz-adv-x="1115" 
d="M976 524c-53.333 -30.667 -111.33 -83 -173.997 -157c-53.333 -62 -99.333 -126.333 -138 -193c-40 -68.667 -60 -117.334 -60 -146.001c0 -14.667 5.33301 -22 16 -22c18.667 0 55 24.333 109 73l8 -8c-54.667 -62 -97 -93 -127 -93c-32 0 -56.667 34.667 -74 104
l-49 -45c-38.667 -34 -72 -51 -100 -51c-28.667 0 -51.334 13.667 -68.001 41c-14.667 23.333 -22 50.333 -22 81c0 47.333 18 95 54 143l101 127c36.667 48 55 93.333 55 136c0 45.333 -20 82.333 -60 111c-35.333 25.333 -76.666 38 -123.999 38
c-40.667 0 -89 -6.66699 -145 -20l-3 11c40.667 17.333 82.667 26 126 26c70.667 0 132.334 -20 185.001 -60c58 -43.333 87 -99.333 87 -168c0 -47.333 -19 -96 -57 -146l-105 -130c-38.667 -49.333 -58 -91 -58 -125c0 -24 7.33301 -36 22 -36
c27.333 0 82.666 42.667 165.999 128c33.333 34 108.666 116.667 225.999 248c85.333 96 139 150.333 161 163c-15.333 32.667 -48 59 -98 79c-42.667 16.667 -85.334 25 -128.001 25h-16c-6.66699 -1.33301 -11.667 -2 -15 -2l-4 11c26 9.33301 51.667 14 77 14
c72 0 152 -34 240 -102c86 42 176 63 270 63c73.333 0 137.333 -15 192 -45c68 -37.333 102 -89.666 102 -156.999c0 -44 -17 -76.667 -51 -98c-28.667 -18 -66.334 -27 -113.001 -27c-124.667 0 -260.667 69.667 -408 209zM-69.9971 360c0 66.667 23 126.332 69 178.999
c42 47.333 96.333 83 163 107l4 -11c-62.667 -28.667 -113.334 -63.667 -152.001 -105c-48 -50.667 -72 -105.667 -72 -165c0 -42 19.667 -78 59 -108c36.667 -27.333 76.667 -41 120 -41c48.667 0 100.334 13 155.001 39l6 -11c-42.667 -28.667 -93 -43 -151 -43
c-50.667 0 -95.667 13.333 -135 40c-44 30.667 -66 70.334 -66 119.001zM1020 552.998c68 -62 106.333 -96.668 115 -104.001c86.667 -70.667 177.334 -106 272.001 -106c33.333 0 60.833 9.83301 82.5 29.5s32.5 45.834 32.5 78.501c0 56 -36 99 -108 129
c-54.667 22.667 -115.334 34 -182.001 34c-86 0 -156.667 -20.333 -212 -61zM702.003 673.997h64v-100h-64v100zM599.003 673.997h64v-100h-64v100z" />
    <glyph glyph-name="Yacute" unicode="&#xdd;" horiz-adv-x="388" 
d="M231 454l-75.999 -26.002l-60 25l83 29c-22.667 10 -54 21.333 -94 34l10 10h48c38.667 0 70 -7 94 -21l100 35l54 -27l-101 -36c47.333 -29.333 84 -70 110 -122c25.333 -49.333 38 -102.666 38 -159.999c0 -60 -19.5 -110 -58.5 -150s-88.167 -60 -147.5 -60
c-58.667 0 -107.834 19.667 -147.501 59s-59.5 88 -59.5 146c0 59.333 19.833 109 59.5 149s88.834 60 147.501 60c33.333 0 62.666 -7.33301 87.999 -22c-12 14.667 -25.667 28.334 -41 41.001zM87.001 189.998c0 -40.667 13.8311 -74.668 41.498 -102.001
s61.834 -41 102.501 -41c41.333 0 75.333 14.167 102 42.5s40 63.5 40 105.5c0 40 -13.667 73.667 -41 101s-61 41 -101 41c-41.333 0 -75.666 -14.167 -102.999 -42.5s-41 -63.166 -41 -104.499z" />
    <glyph glyph-name="Thorn" unicode="&#xde;" horiz-adv-x="357" 
d="M111 -6h-63v531h63v-105c95.333 0 159.333 -5.33301 192 -16c66.667 -22 100 -70.333 100 -145s-33.333 -122.667 -100 -144c-33.333 -10.667 -97.333 -16 -192 -16v-105zM111 362v-204h88c93.333 0 140 33.667 140 101c0 68.667 -44.333 103 -133 103h-95z" />
    <glyph glyph-name="germandbls" unicode="&#xdf;" horiz-adv-x="344" 
d="M97 51l-1 -57.001h-60v341c0 132 50.667 198 152 198c42 0 77.333 -14.667 106 -44s43 -65 43 -107c0 -48 -17 -83.667 -51 -107c58.667 -24 88 -68.667 88 -134c0 -43.333 -14.333 -80.166 -43 -110.499s-64.667 -45.5 -108 -45.5c-56.667 0 -98.667 22 -126 66z
M151 292.999c82 0 123 30.333 123 91c0 24 -8.33301 44.667 -25 62s-37 26 -61 26c-59.333 0 -89 -43.667 -89 -131v-193h35c0 -26 7.83301 -49.333 23.5 -70s36.167 -31 61.5 -31c27.333 0 49.333 8.83301 66 26.5s25 40.167 25 67.5c0 39.333 -18 66 -54 80
c-22.667 8.66699 -57.667 13 -105 13v59z" />
    <glyph glyph-name="agrave" unicode="&#xe0;" horiz-adv-x="312" 
d="M195 21c8 -2.66699 14.001 -4 18.001 -4c11.333 0 25.666 7.66699 42.999 23l36 36c-7.33301 -18.667 -18.333 -36 -33 -52c-17.333 -20 -34 -30 -50 -30c-36 0 -62.667 16.333 -80 49l-33 -32c-13.333 -10.667 -27.666 -16 -42.999 -16
c-17.333 0 -32.166 7.33301 -44.499 22s-18.5 30.667 -18.5 48c0 46 22.667 93.333 68 142s91 73 137 73c15.333 0 27.666 -4.66699 36.999 -14c6 4 13 6 21 6c3.33301 0 12.666 -1.66699 27.999 -5c6 -1.33301 11.667 -2 17 -2c10 0 17.333 7 22 21l10 -4
c-11.333 -32 -26.333 -64 -45 -96l-91 -157zM58.001 46c0 -10 2.33301 -18.334 7 -25.001c20 6 37 20.667 51 44l55 90c22.667 38 37 69 43 93l-11 2c-20.667 0 -50 -28.167 -88 -84.5s-57 -96.166 -57 -119.499zM99.001 399.999l27 51l149 -80l-29 -50z" />
    <glyph glyph-name="aacute" unicode="&#xe1;" horiz-adv-x="312" 
d="M195 21c8 -2.66699 14.001 -4 18.001 -4c11.333 0 25.666 7.66699 42.999 23l36 36c-7.33301 -18.667 -18.333 -36 -33 -52c-17.333 -20 -34 -30 -50 -30c-36 0 -62.667 16.333 -80 49l-33 -32c-13.333 -10.667 -27.666 -16 -42.999 -16
c-17.333 0 -32.166 7.33301 -44.499 22s-18.5 30.667 -18.5 48c0 46 22.667 93.333 68 142s91 73 137 73c15.333 0 27.666 -4.66699 36.999 -14c6 4 13 6 21 6c3.33301 0 12.666 -1.66699 27.999 -5c6 -1.33301 11.667 -2 17 -2c10 0 17.333 7 22 21l10 -4
c-11.333 -32 -26.333 -64 -45 -96l-91 -157zM58.001 46c0 -10 2.33301 -18.334 7 -25.001c20 6 37 20.667 51 44l55 90c22.667 38 37 69 43 93l-11 2c-20.667 0 -50 -28.167 -88 -84.5s-57 -96.166 -57 -119.499zM112.001 369.999l145 88l31 -51l-146 -86z" />
    <glyph glyph-name="acircumflex" unicode="&#xe2;" horiz-adv-x="312" 
d="M195 21c8 -2.66699 14.001 -4 18.001 -4c11.333 0 25.666 7.66699 42.999 23l36 36c-7.33301 -18.667 -18.333 -36 -33 -52c-17.333 -20 -34 -30 -50 -30c-36 0 -62.667 16.333 -80 49l-33 -32c-13.333 -10.667 -27.666 -16 -42.999 -16
c-17.333 0 -32.166 7.33301 -44.499 22s-18.5 30.667 -18.5 48c0 46 22.667 93.333 68 142s91 73 137 73c15.333 0 27.666 -4.66699 36.999 -14c6 4 13 6 21 6c3.33301 0 12.666 -1.66699 27.999 -5c6 -1.33301 11.667 -2 17 -2c10 0 17.333 7 22 21l10 -4
c-11.333 -32 -26.333 -64 -45 -96l-91 -157zM58.001 46c0 -10 2.33301 -18.334 7 -25.001c20 6 37 20.667 51 44l55 90c22.667 38 37 69 43 93l-11 2c-20.667 0 -50 -28.167 -88 -84.5s-57 -96.166 -57 -119.499zM182.001 379.999l-59 -49h-81l116 100h49l115 -100h-81z" />
    <glyph glyph-name="atilde" unicode="&#xe3;" horiz-adv-x="312" 
d="M195 21c8 -2.66699 14.001 -4 18.001 -4c11.333 0 25.666 7.66699 42.999 23l36 36c-7.33301 -18.667 -18.333 -36 -33 -52c-17.333 -20 -34 -30 -50 -30c-36 0 -62.667 16.333 -80 49l-33 -32c-13.333 -10.667 -27.666 -16 -42.999 -16
c-17.333 0 -32.166 7.33301 -44.499 22s-18.5 30.667 -18.5 48c0 46 22.667 93.333 68 142s91 73 137 73c15.333 0 27.666 -4.66699 36.999 -14c6 4 13 6 21 6c3.33301 0 12.666 -1.66699 27.999 -5c6 -1.33301 11.667 -2 17 -2c10 0 17.333 7 22 21l10 -4
c-11.333 -32 -26.333 -64 -45 -96l-91 -157zM58.001 46c0 -10 2.33301 -18.334 7 -25.001c20 6 37 20.667 51 44l55 90c22.667 38 37 69 43 93l-11 2c-20.667 0 -50 -28.167 -88 -84.5s-57 -96.166 -57 -119.499zM140.001 354.999c-12 0 -25.332 -8 -39.999 -24l-27 45
c22.667 22.667 46 34 70 34c10.667 0 22 -2.66699 34 -8c30.667 -13.333 47 -20 49 -20c8 0 21 6.66699 39 20l27 -43c-22.667 -21.333 -44.334 -32 -65.001 -32c-11.333 0 -27 4.66699 -47 14s-33.333 14 -40 14z" />
    <glyph glyph-name="adieresis" unicode="&#xe4;" horiz-adv-x="312" 
d="M195 21c8 -2.66699 14.001 -4 18.001 -4c11.333 0 25.666 7.66699 42.999 23l36 36c-7.33301 -18.667 -18.333 -36 -33 -52c-17.333 -20 -34 -30 -50 -30c-36 0 -62.667 16.333 -80 49l-33 -32c-13.333 -10.667 -27.666 -16 -42.999 -16
c-17.333 0 -32.166 7.33301 -44.499 22s-18.5 30.667 -18.5 48c0 46 22.667 93.333 68 142s91 73 137 73c15.333 0 27.666 -4.66699 36.999 -14c6 4 13 6 21 6c3.33301 0 12.666 -1.66699 27.999 -5c6 -1.33301 11.667 -2 17 -2c10 0 17.333 7 22 21l10 -4
c-11.333 -32 -26.333 -64 -45 -96l-91 -157zM58.001 46c0 -10 2.33301 -18.334 7 -25.001c20 6 37 20.667 51 44l55 90c22.667 38 37 69 43 93l-11 2c-20.667 0 -50 -28.167 -88 -84.5s-57 -96.166 -57 -119.499zM196.001 436.999h64v-100h-64v100zM93.001 436.999h64v-100
h-64v100z" />
    <glyph glyph-name="aring" unicode="&#xe5;" horiz-adv-x="312" 
d="M195 21c8 -2.66699 14.001 -4 18.001 -4c11.333 0 25.666 7.66699 42.999 23l36 36c-7.33301 -18.667 -18.333 -36 -33 -52c-17.333 -20 -34 -30 -50 -30c-36 0 -62.667 16.333 -80 49l-33 -32c-13.333 -10.667 -27.666 -16 -42.999 -16
c-17.333 0 -32.166 7.33301 -44.499 22s-18.5 30.667 -18.5 48c0 46 22.667 93.333 68 142s91 73 137 73c15.333 0 27.666 -4.66699 36.999 -14c6 4 13 6 21 6c3.33301 0 12.666 -1.66699 27.999 -5c6 -1.33301 11.667 -2 17 -2c10 0 17.333 7 22 21l10 -4
c-11.333 -32 -26.333 -64 -45 -96l-91 -157zM58.001 46c0 -10 2.33301 -18.334 7 -25.001c20 6 37 20.667 51 44l55 90c22.667 38 37 69 43 93l-11 2c-20.667 0 -50 -28.167 -88 -84.5s-57 -96.166 -57 -119.499zM131.001 380.999c0 20 6.83301 36.833 20.5 50.5
s30.5 20.5 50.5 20.5s36.667 -6.83301 50 -20.5s20 -30.5 20 -50.5s-6.66699 -36.667 -20 -50s-30 -20 -50 -20s-36.833 6.66699 -50.5 20s-20.5 30 -20.5 50zM169.001 381.999c0 -22 11 -33 33 -33c21.333 0 32 10.667 32 32c0 22 -10.667 33 -32 33
c-22 0 -33 -10.667 -33 -32z" />
    <glyph glyph-name="ae" unicode="&#xe6;" horiz-adv-x="756" 
d="M585 47c28.667 0 54.832 7.5 78.499 22.5s40.834 35.5 51.501 61.5h66c-13.333 -42.667 -38.166 -77.667 -74.499 -105s-76.833 -41 -121.5 -41c-54.667 0 -102.334 20.333 -143.001 61v-61h-61v61c-39.333 -40.667 -87.333 -61 -144 -61c-60 0 -110.5 19.5 -151.5 58.5
s-61.5 88.167 -61.5 147.5c0 60 20.833 109.667 62.5 149s92.5 59 152.5 59c58.667 0 106 -21 142 -63v63h61v-62c36 41.333 83.667 62 143 62c64.667 0 115.667 -23 153 -69c35.333 -42.667 53 -97 53 -163h-346c0 -34 14.667 -62.5 44 -85.5s61.333 -34.5 96 -34.5z
M446.998 226l277.001 0.000976562c-5.33301 32 -21.333 58.5 -48 79.5s-56.334 31.5 -89.001 31.5c-34 0 -64.5 -10.333 -91.5 -31s-43.167 -47.334 -48.5 -80.001zM86.999 188.001c0 -40 14.333 -73.5 43 -100.5s63 -40.5 103 -40.5c42 0 77.167 13.667 105.5 41
s42.5 62 42.5 104c0 42.667 -14 77.5 -42 104.5s-63.333 40.5 -106 40.5s-77.667 -14.167 -105 -42.5s-41 -63.833 -41 -106.5z" />
    <glyph glyph-name="ccedilla" unicode="&#xe7;" horiz-adv-x="267" 
d="M191 181c-11.333 0 -18.333 4.66602 -21 13.999c-1.33301 3.33301 -2 13 -2 29c0 12.667 4 19 12 19c4 0 10 -2 18 -6s13.667 -6 17 -6c2.66699 0.666992 6 2.33398 10 5.00098l6 27c-2 2.66699 -3.33301 4.33398 -4 5.00098c-3.33301 4 -5.66602 6.33301 -6.99902 7
c-34 -6.66699 -70 -36.334 -108 -89.001c-41.333 -57.333 -60.666 -102 -57.999 -134l2 -23c12 -6.66699 24 -10 36 -10c15.333 0 33 4.33301 53 13c9.33301 4 25.666 13 48.999 27l7 -9c-24.667 -18 -44.667 -30.667 -60 -38c-24.667 -12 -47.667 -18 -69 -18
c-55.333 0 -83 27.667 -83 83c0 44 28.167 91.833 84.5 143.5s106.5 77.5 150.5 77.5c28 0 42 -15.667 42 -47c0 -28 -11.333 -50.667 -34 -68c-2.66699 0.666992 -6.33398 1 -11.001 1c-6 0 -16 -1 -30 -3zM82 -85.001l43 5c2 -16 11 -24 27 -24c16.667 0 25 9 25 27
s-9.33301 27 -28 27c-10 0 -18.667 -5.66699 -26 -17l-32 17l32 72h39l-16 -37l12 1c16.667 1.33301 31 -4 43 -16s18 -27.333 18 -46c0 -19.333 -6.33301 -36 -19 -50s-28.667 -21 -48 -21c-38 0 -61.333 20.667 -70 62z" />
    <glyph glyph-name="egrave" unicode="&#xe8;" horiz-adv-x="271" 
d="M116 49c0 -19.333 12.001 -28.999 36.001 -28.999c11.333 0 30.333 5 57 15l57 22c-68 -44 -117 -65.333 -147 -64l-23 1c-26.667 20.667 -44.334 48 -53.001 82l-58 -51c24 40 61.667 98.667 113 176c50 69.333 105.667 104 167 104c22 0 40.667 -7.33301 56 -22l2 -23
c4 -45.333 -18.333 -81.333 -67 -108c-58.667 -22 -101.667 -38.667 -129 -50c-7.33301 -26.667 -11 -44.334 -11 -53.001zM164.001 156.001c16.667 5.33301 36.333 20.833 59 46.5s34 46.5 34 62.5l-2 17c-16.667 -9.33301 -31 -22.333 -43 -39
c-8 -10.667 -24 -39.667 -48 -87zM101 411.001l27 51l149 -80l-29 -50z" />
    <glyph glyph-name="eacute" unicode="&#xe9;" horiz-adv-x="271" 
d="M116 49c0 -19.333 12.001 -28.999 36.001 -28.999c11.333 0 30.333 5 57 15l57 22c-68 -44 -117 -65.333 -147 -64l-23 1c-26.667 20.667 -44.334 48 -53.001 82l-58 -51c24 40 61.667 98.667 113 176c50 69.333 105.667 104 167 104c22 0 40.667 -7.33301 56 -22l2 -23
c4 -45.333 -18.333 -81.333 -67 -108c-58.667 -22 -101.667 -38.667 -129 -50c-7.33301 -26.667 -11 -44.334 -11 -53.001zM164.001 156.001c16.667 5.33301 36.333 20.833 59 46.5s34 46.5 34 62.5l-2 17c-16.667 -9.33301 -31 -22.333 -43 -39
c-8 -10.667 -24 -39.667 -48 -87zM116 358.001l145 88l31 -51l-146 -86z" />
    <glyph glyph-name="ecircumflex" unicode="&#xea;" horiz-adv-x="282" 
d="M116 49c0 -19.333 12.001 -28.999 36.001 -28.999c11.333 0 30.333 5 57 15l57 22c-68 -44 -117 -65.333 -147 -64l-23 1c-26.667 20.667 -44.334 48 -53.001 82l-58 -51c24 40 61.667 98.667 113 176c50 69.333 105.667 104 167 104c22 0 40.667 -7.33301 56 -22l2 -23
c4 -45.333 -18.333 -81.333 -67 -108c-58.667 -22 -101.667 -38.667 -129 -50c-7.33301 -26.667 -11 -44.334 -11 -53.001zM164.001 156.001c16.667 5.33301 36.333 20.833 59 46.5s34 46.5 34 62.5l-2 17c-16.667 -9.33301 -31 -22.333 -43 -39
c-8 -10.667 -24 -39.667 -48 -87zM208 365.001l-59 -49h-81l116 100h49l115 -100h-81z" />
    <glyph glyph-name="edieresis" unicode="&#xeb;" horiz-adv-x="271" 
d="M116 49c0 -19.333 12.001 -28.999 36.001 -28.999c11.333 0 30.333 5 57 15l57 22c-68 -44 -117 -65.333 -147 -64l-23 1c-26.667 20.667 -44.334 48 -53.001 82l-58 -51c24 40 61.667 98.667 113 176c50 69.333 105.667 104 167 104c22 0 40.667 -7.33301 56 -22l2 -23
c4 -45.333 -18.333 -81.333 -67 -108c-58.667 -22 -101.667 -38.667 -129 -50c-7.33301 -26.667 -11 -44.334 -11 -53.001zM164.001 156.001c16.667 5.33301 36.333 20.833 59 46.5s34 46.5 34 62.5l-2 17c-16.667 -9.33301 -31 -22.333 -43 -39
c-8 -10.667 -24 -39.667 -48 -87zM207 454.001h64v-100h-64v100zM104 454.001h64v-100h-64v100z" />
    <glyph glyph-name="igrave" unicode="&#xec;" horiz-adv-x="133" 
d="M38 390h64v-396h-64v396zM38 491l27 51l149 -80l-29 -50z" />
    <glyph glyph-name="iacute" unicode="&#xed;" horiz-adv-x="152" 
d="M38 390h64v-396h-64v396zM38 485l145 88l31 -51l-146 -86z" />
    <glyph glyph-name="icircumflex" unicode="&#xee;" horiz-adv-x="206" 
d="M38 390h64v-396h-64v396zM178 480l-59 -49h-81l116 100h49l115 -100h-81z" />
    <glyph glyph-name="idieresis" unicode="&#xef;" horiz-adv-x="299" 
d="M38 390h64v-396h-64v396zM141 525h64v-100h-64v100zM38 525h64v-100h-64v100z" />
    <glyph glyph-name="ntilde" unicode="&#xf1;" horiz-adv-x="308" 
d="M299 267c11.333 0 20.832 -5.16406 28.499 -15.4971s11.5 -21.5 11.5 -33.5c0 -16 -9.33301 -39.333 -28 -70l-82 -136c5.33301 -4 11.333 -6 18 -6l23 20c7.33301 6.66699 13.333 15 18 25l3 -27c0 -8 -6.66699 -16.667 -20 -26s-24.333 -14 -33 -14
c-22 0 -37.5 4.16699 -46.5 12.5s-13.5 23.166 -13.5 44.499c0 27.333 18.667 66.666 56 117.999l46 62c-3.33301 6 -8.33301 9 -15 9c-33.333 0 -77.666 -45.667 -132.999 -137l-58 -98c-28.667 0 -47 -2.33301 -55 -7s-19.333 -19.667 -34 -45c4 20 15.333 53.667 34 101
l-33 -30l-1 26c41.333 47.333 69 80.333 83 99c31.333 41.333 53 78.333 65 111c10.667 0.666992 26.167 2.16699 46.5 4.5s32.5 10.166 36.5 23.499l11 -5l-34 -59c22.667 15.333 39.667 26.333 51 33c22 13.333 40.333 20 55 20zM184.999 325.003
c-12 0 -25.332 -8 -39.999 -24l-27 45c22.667 22.667 46 34 70 34c10.667 0 22 -2.66699 34 -8c30.667 -13.333 47 -20 49 -20c8 0 21 6.66699 39 20l27 -43c-22.667 -21.333 -44.334 -32 -65.001 -32c-11.333 0 -27 4.66699 -47 14s-33.333 14 -40 14z" />
    <glyph glyph-name="ograve" unicode="&#xf2;" horiz-adv-x="263" 
d="M2 97l-42 -45.998l-15 15c17.333 17.333 44.333 49.666 81 96.999c32.667 43.333 60.667 75 84 95c36 31.333 69.333 47 100 47c23.333 0 43 -9 59 -27s24 -38.667 24 -62c0 -7.33301 -1.5 -17.5 -4.5 -30.5s-4.5 -22.5 -4.5 -28.5c0 -8.66699 7 -15.334 21 -20.001
c-44 -40.667 -78.667 -71 -104 -91c-42.667 -34.667 -83.667 -52 -123 -52c-26 0 -45 11.333 -57 34c-6 11.333 -12.333 34.333 -19 69zM186 144.002c8.66699 6.66699 17.667 24.335 27 53.002c8 26.667 12 47 12 61c0 12 -4 18.333 -12 19
c-92.667 -80 -139 -165.667 -139 -257c13.333 0 33.333 10.667 60 32s40 38.666 40 51.999c0 2 -7.16699 11.167 -21.5 27.5s-21.5 30.5 -21.5 42.5c0 7.33301 7.33301 17.666 22 30.999c8 7.33301 14.333 11 19 11c16 0 24 -9.66699 24 -29c0 -18.667 -6.33301 -29 -19 -31
c2.66699 -4 5.66699 -8 9 -12zM112 394.003l27 47l144 -73l-28 -45z" />
    <glyph glyph-name="oacute" unicode="&#xf3;" horiz-adv-x="263" 
d="M41 97l-41.999 -46l-15 15c47.333 60 86.666 108 117.999 144c55.333 63.333 104.333 95 147 95c23.333 0 43 -9 59 -27s24 -38.667 24 -62c0 -7.33301 -1.5 -17.5 -4.5 -30.5s-4.5 -22.5 -4.5 -28.5c0 -9.33301 7 -16 21 -20c-44 -40.667 -78.667 -71 -104 -91
c-42.667 -34.667 -83.667 -52 -123 -52c-26 0 -45 11.333 -57 34c-6.66699 12.667 -13 35.667 -19 69zM225.001 144c8.66699 8 17.333 26.002 26 54.002c8.66699 26 13 46 13 60c0 12 -4 18.333 -12 19c-92.667 -80 -139 -165.667 -139 -257c13.333 0 33.333 10.667 60 32
s40 38.666 40 51.999c0 2 -7.16699 11.167 -21.5 27.5s-21.5 30.5 -21.5 42.5c0 7.33301 7.33301 17.666 22 30.999c8 7.33301 14.333 11 19 11c16 0 24 -9.66699 24 -29c0 -18.667 -6.33301 -29 -19 -31zM118 358.002l145 88l31 -51l-146 -86z" />
    <glyph glyph-name="ocircumflex" unicode="&#xf4;" horiz-adv-x="263" 
d="M41 97l-41.999 -46l-15 15c47.333 60 86.666 108 117.999 144c55.333 63.333 104.333 95 147 95c23.333 0 43 -9 59 -27s24 -38.667 24 -62c0 -7.33301 -1.5 -17.5 -4.5 -30.5s-4.5 -22.5 -4.5 -28.5c0 -9.33301 7 -16 21 -20c-44 -40.667 -78.667 -71 -104 -91
c-42.667 -34.667 -83.667 -52 -123 -52c-26 0 -45 11.333 -57 34c-6.66699 12.667 -13 35.667 -19 69zM225.001 144c8.66699 8 17.333 26.002 26 54.002c8.66699 26 13 46 13 60c0 12 -4 18.333 -12 19c-92.667 -80 -139 -165.667 -139 -257c13.333 0 33.333 10.667 60 32
s40 38.666 40 51.999c0 2 -7.16699 11.167 -21.5 27.5s-21.5 30.5 -21.5 42.5c0 7.33301 7.33301 17.666 22 30.999c8 7.33301 14.333 11 19 11c16 0 24 -9.66699 24 -29c0 -18.667 -6.33301 -29 -19 -31zM194 384.002l-59 -49h-81l116 100h49l115 -100h-81z" />
    <glyph glyph-name="otilde" unicode="&#xf5;" horiz-adv-x="267" 
d="M41 97l-41.999 -46l-15 15c47.333 60 86.666 108 117.999 144c55.333 63.333 104.333 95 147 95c23.333 0 43 -9 59 -27s24 -38.667 24 -62c0 -7.33301 -1.5 -17.5 -4.5 -30.5s-4.5 -22.5 -4.5 -28.5c0 -9.33301 7 -16 21 -20c-44 -40.667 -78.667 -71 -104 -91
c-42.667 -34.667 -83.667 -52 -123 -52c-26 0 -45 11.333 -57 34c-6.66699 12.667 -13 35.667 -19 69zM225.001 144c8.66699 8 17.333 26.002 26 54.002c8.66699 26 13 46 13 60c0 12 -4 18.333 -12 19c-92.667 -80 -139 -165.667 -139 -257c13.333 0 33.333 10.667 60 32
s40 38.666 40 51.999c0 2 -7.16699 11.167 -21.5 27.5s-21.5 30.5 -21.5 42.5c0 7.33301 7.33301 17.666 22 30.999c8 7.33301 14.333 11 19 11c16 0 24 -9.66699 24 -29c0 -18.667 -6.33301 -29 -19 -31zM185 373.002c-12 0 -25.332 -8 -39.999 -24l-27 45
c22.667 22.667 46 34 70 34c10.667 0 22 -2.66699 34 -8c30.667 -13.333 47 -20 49 -20c8 0 21 6.66699 39 20l27 -43c-22.667 -21.333 -44.334 -32 -65.001 -32c-11.333 0 -27 4.66699 -47 14s-33.333 14 -40 14z" />
    <glyph glyph-name="odieresis" unicode="&#xf6;" horiz-adv-x="263" 
d="M41 97l-41.999 -46l-15 15c47.333 60 86.666 108 117.999 144c55.333 63.333 104.333 95 147 95c23.333 0 43 -9 59 -27s24 -38.667 24 -62c0 -7.33301 -1.5 -17.5 -4.5 -30.5s-4.5 -22.5 -4.5 -28.5c0 -9.33301 7 -16 21 -20c-44 -40.667 -78.667 -71 -104 -91
c-42.667 -34.667 -83.667 -52 -123 -52c-26 0 -45 11.333 -57 34c-6.66699 12.667 -13 35.667 -19 69zM225.001 144c8.66699 8 17.333 26.002 26 54.002c8.66699 26 13 46 13 60c0 12 -4 18.333 -12 19c-92.667 -80 -139 -165.667 -139 -257c13.333 0 33.333 10.667 60 32
s40 38.666 40 51.999c0 2 -7.16699 11.167 -21.5 27.5s-21.5 30.5 -21.5 42.5c0 7.33301 7.33301 17.666 22 30.999c8 7.33301 14.333 11 19 11c16 0 24 -9.66699 24 -29c0 -18.667 -6.33301 -29 -19 -31zM219 438.002h64v-100h-64v100zM116 438.002h64v-100h-64v100z" />
    <glyph glyph-name="divide" unicode="&#xf7;" horiz-adv-x="351" 
d="M180 394h65v-65h-65v65zM30 244h366v-65h-366v65zM180 94h65v-65h-65v65z" />
    <glyph glyph-name="oslash" unicode="&#xf8;" horiz-adv-x="386" 
d="M131 11l-38.999 -51l-46 35l39 51c-40.667 38 -61 86.667 -61 146c0 56.667 20 105.334 60 146.001s88.333 61 145 61c18 0 52 -9.33301 102 -28l41 55l47 -36l-42 -54c38.667 -40.667 58 -88.667 58 -144c0 -58.667 -19.833 -107.834 -59.5 -147.501
s-88.834 -59.5 -147.501 -59.5c-34 0 -66.333 8.66699 -97 26zM168.001 60c19.333 -8.66699 40.667 -12.999 64 -12.999c40.667 0 74 14.167 100 42.5s39 62.833 39 103.5c0 35.333 -10.333 65.666 -31 90.999zM87.002 195.001c0 -41.333 11.667 -74.333 35 -99l172 225
c-20 10.667 -40.333 16 -61 16c-41.333 0 -76 -13.5 -104 -40.5s-42 -60.833 -42 -101.5z" />
    <glyph glyph-name="ugrave" unicode="&#xf9;" horiz-adv-x="323" 
d="M283 23c5.33301 0 13.667 4.33301 25 13l52 40c-23.333 -54.667 -63.666 -82 -120.999 -82c-16.667 0 -28.667 12.333 -36 37l-10 34l-48 -46c-20 -16 -40 -24 -60 -24c-12.667 0 -24.667 6.5 -36 19.5s-17 25.833 -17 38.5c0 5.33301 1.33301 11.333 4 18
c6.66699 16.667 10 26.334 10 29.001l-2 8l-53 -58c9.33301 32 35.666 77.333 78.999 136c49.333 66.667 88.666 100 117.999 100c2.66699 0 6.5 -0.333008 11.5 -1s7.5 -3.33398 7.5 -8.00098c-36.667 -73.333 -56.667 -114 -60 -122c-24 -51.333 -38.333 -93.333 -43 -126
l9 -3c28.667 0 78 56.667 148 170l55 90l11 1c6.66699 0 18 -4 34 -12c4.66699 0 7 -2 7 -6c0 -7.33301 -14.667 -37.333 -44 -90c-32.667 -59.333 -53 -108 -61 -146c6.66699 -6.66699 13.334 -10 20.001 -10zM172.001 393l27 51l149 -80l-29 -50z" />
    <glyph glyph-name="uacute" unicode="&#xfa;" horiz-adv-x="323" 
d="M283 23c5.33301 0 13.667 4.33301 25 13l52 40c-23.333 -54.667 -63.666 -82 -120.999 -82c-16.667 0 -28.667 12.333 -36 37l-10 34l-48 -46c-20 -16 -40 -24 -60 -24c-12.667 0 -24.667 6.5 -36 19.5s-17 25.833 -17 38.5c0 5.33301 1.33301 11.333 4 18
c6.66699 16.667 10 26.334 10 29.001l-2 8l-53 -58c9.33301 32 35.666 77.333 78.999 136c49.333 66.667 88.666 100 117.999 100c2.66699 0 6.5 -0.333008 11.5 -1s7.5 -3.33398 7.5 -8.00098c-36.667 -73.333 -56.667 -114 -60 -122c-24 -51.333 -38.333 -93.333 -43 -126
l9 -3c28.667 0 78 56.667 148 170l55 90l11 1c6.66699 0 18 -4 34 -12c4.66699 0 7 -2 7 -6c0 -7.33301 -14.667 -37.333 -44 -90c-32.667 -59.333 -53 -108 -61 -146c6.66699 -6.66699 13.334 -10 20.001 -10zM186.001 371l145 88l31 -51l-146 -86z" />
    <glyph glyph-name="ucircumflex" unicode="&#xfb;" horiz-adv-x="323" 
d="M283 23c5.33301 0 13.667 4.33301 25 13l52 40c-23.333 -54.667 -63.666 -82 -120.999 -82c-16.667 0 -28.667 12.333 -36 37l-10 34l-48 -46c-20 -16 -40 -24 -60 -24c-12.667 0 -24.667 6.5 -36 19.5s-17 25.833 -17 38.5c0 5.33301 1.33301 11.333 4 18
c6.66699 16.667 10 26.334 10 29.001l-2 8l-53 -58c9.33301 32 35.666 77.333 78.999 136c49.333 66.667 88.666 100 117.999 100c2.66699 0 6.5 -0.333008 11.5 -1s7.5 -3.33398 7.5 -8.00098c-36.667 -73.333 -56.667 -114 -60 -122c-24 -51.333 -38.333 -93.333 -43 -126
l9 -3c28.667 0 78 56.667 148 170l55 90l11 1c6.66699 0 18 -4 34 -12c4.66699 0 7 -2 7 -6c0 -7.33301 -14.667 -37.333 -44 -90c-32.667 -59.333 -53 -108 -61 -146c6.66699 -6.66699 13.334 -10 20.001 -10zM255.001 365l-59 -49h-81l116 100h49l115 -100h-81z" />
    <glyph glyph-name="udieresis" unicode="&#xfc;" horiz-adv-x="323" 
d="M283 23c5.33301 0 13.667 4.33301 25 13l52 40c-23.333 -54.667 -63.666 -82 -120.999 -82c-16.667 0 -28.667 12.333 -36 37l-10 34l-48 -46c-20 -16 -40 -24 -60 -24c-12.667 0 -24.667 6.5 -36 19.5s-17 25.833 -17 38.5c0 5.33301 1.33301 11.333 4 18
c6.66699 16.667 10 26.334 10 29.001l-2 8l-53 -58c9.33301 32 35.666 77.333 78.999 136c49.333 66.667 88.666 100 117.999 100c2.66699 0 6.5 -0.333008 11.5 -1s7.5 -3.33398 7.5 -8.00098c-36.667 -73.333 -56.667 -114 -60 -122c-24 -51.333 -38.333 -93.333 -43 -126
l9 -3c28.667 0 78 56.667 148 170l55 90l11 1c6.66699 0 18 -4 34 -12c4.66699 0 7 -2 7 -6c0 -7.33301 -14.667 -37.333 -44 -90c-32.667 -59.333 -53 -108 -61 -146c6.66699 -6.66699 13.334 -10 20.001 -10zM267.001 425h64v-100h-64v100zM164.001 425h64v-100h-64v100z
" />
    <glyph glyph-name="thorn" unicode="&#xfe;" horiz-adv-x="405" 
d="M103 49l-1 -190h-64v666h64v-185c32.667 39.333 81 59 145 59c57.333 0 106.5 -20.5 147.5 -61.5s61.5 -90.167 61.5 -147.5c0 -58.667 -21 -107.5 -63 -146.5s-92.333 -58.5 -151 -58.5c-62.667 0 -109 21.333 -139 64zM99 195c0 -42 13.5 -77.168 40.5 -105.501
s61.5 -42.5 103.5 -42.5c42.667 0 78.167 13.333 106.5 40s42.5 61.334 42.5 104.001c0 40.667 -14 75.167 -42 103.5s-62.333 42.5 -103 42.5c-41.333 0 -76.333 -13.5 -105 -40.5s-43 -60.833 -43 -101.5z" />
    <glyph glyph-name="ydieresis" unicode="&#xff;" horiz-adv-x="326" 
d="M-4 85l-1.00098 20.998l150 177c7.33301 0.666992 15.666 0.333984 24.999 -0.999023l26 -4l9 5c0 5.33301 3.33301 8 10 8c2.66699 0 5.66699 -1 9 -3l-78 -126c-29.333 -49.333 -49 -94.333 -59 -135l18 -6c45.333 16 85 54.667 119 116
c44.667 80 75.334 128.333 92.001 145c4 -0.666992 9.66699 -1 17 -1h27c6.66699 0 14.334 4.33301 23.001 13l10 -6l-106 -147c-54.667 -77.333 -82 -124.666 -82 -141.999c15.333 7.33301 34.333 19.333 57 36c32 24 50.667 37.667 56 41
c-11.333 -25.333 -30 -46.666 -56 -63.999c-53.333 -34.667 -84.333 -64 -93 -88c-50 -136.667 -113 -205 -189 -205c-21.333 0 -40 6.66699 -56 20c-18 14 -27 31.333 -27 52c0 39.333 22 72.666 66 99.999c7.33301 4.66699 48 23.667 122 57c44.667 20 67 40.333 67 61
l-2 9c-20.667 -10 -34 -16 -40 -18c-16 -6 -30.333 -9 -43 -9c-30 0 -45 17.667 -45 53c0 33.333 4.66699 57.333 14 72l-16 -20c-6 -5.33301 -14 -9 -24 -11zM-68.001 -227.002l5 -0.000976562c39.333 0 77 25.667 113 77l48 71
c-119.333 -33.333 -179 -74.666 -179 -123.999c0 -9.33301 4.33301 -17.333 13 -24zM191.999 424.997h64v-100h-64v100zM88.999 424.997h64v-100h-64v100z" />
    <glyph glyph-name="Lslash" unicode="&#x100;" horiz-adv-x="317" 
d="M80 212l-68 -56v76l68 57v236h64v-188l104 88v-75l-104 -88v-209h215v-59h-279v218z" />
    <glyph glyph-name="lslash" unicode="&#x101;" horiz-adv-x="171" 
d="M139 -6h-63v252l-57 -38v66l57 36v215h63v-174l57 37v-66l-57 -37v-291z" />
    <glyph glyph-name="HT" unicode="&#x102;" horiz-adv-x="315" 
 />
    <glyph glyph-name="nonmarkingreturn" unicode="&#x103;" horiz-adv-x="315" 
 />
    <glyph glyph-name="Zcaron" unicode="&#x104;" horiz-adv-x="473" 
d="M336 682l33 -3l-87 -17c22 13.333 40 20 54 20zM277 660l-112 -93.002c-43.333 -43.333 -65 -86 -65 -128c0 -52 18.667 -78 56 -78c42.667 0 80.334 25 113.001 75c28.667 44.667 43 89.334 43 134.001c0 17.333 -3.33301 33.333 -10 48c-8.66699 18 -20.667 27 -36 27
c-12.667 0 -18 -5 -16 -15l-24 -1l18 20l-18 3c-10.667 0 -20.667 -2 -30 -6l-5 11c13.333 5.33301 36.333 8 69 8h21c32.667 -24 49 -60.667 49 -110c0 -47.333 -17.667 -92.666 -53 -135.999c-37.333 -46.667 -79 -70 -125 -70s-69 30.667 -69 92c0 40 23.333 83 70 129
c37.333 36.667 78.666 66.667 123.999 90zM343 182.998l-2.99902 -11.0029l-27 10c-34.667 -62 -65.667 -106 -93 -132c-40 -37.333 -88.333 -56 -145 -56c-22 0 -44 4.66699 -66 14c-28 12 -42 27.333 -42 46c0 58 35 99.333 105 124c34 12 93.667 22.333 179 31
c7.33301 12.667 11 23.334 11 32.001c0 19.333 -9 29 -27 29c-16 -8.66699 -28.333 -14.667 -37 -18c-27.333 -11.333 -51.666 -17.333 -72.999 -18c-0.666992 0 -5.33398 -0.333008 -14.001 -1c-2 0 -3.66699 5 -5 15c8 20.667 25.667 34.334 53 41.001l73 10
c132 120 198 227.333 198 322c0 18.667 -10.333 33.334 -31 44.001c-16.667 8.66699 -35.334 13 -56.001 13v11l31 1c39.333 1.33301 70.833 -8 94.5 -28s35.5 -49.333 35.5 -88c0 -70 -45 -141.667 -135 -215c-27.333 -22 -62 -46.333 -104 -73c8 -4 19 -23.333 33 -58
c12 -30 27 -45 45 -45zM132.001 251.995c29.333 4.66699 50 14.667 62 30l3 -9l-7 1c-22 0 -41.333 -7.33301 -58 -22zM45.001 142.995c-38 -27.333 -57 -56.999 -57 -88.999c0 -4.66699 5 -8.66699 15 -12c8 -2.66699 15 -4 21 -4c40 0 82.333 15.333 127 46
c41.333 29.333 72 62.666 92 99.999l-36 3h-33c-45.333 0 -88.333 -14.667 -129 -44zM341.001 700.996l-116 100h83l58 -50l59 50h80l-113 -100h-51z" />
    <glyph glyph-name="zcaron" unicode="&#x105;" horiz-adv-x="342" 
d="M-126 -233c0 50 21.666 90 64.999 120c18 12 58.333 29.667 121 53c43.333 16 65 31.667 65 47l-11 11c-4.66699 0.666992 -11 1 -19 1h-14c-5.33301 0 -10.666 -0.333008 -15.999 -1c-18 0 -27 6.66699 -27 20c0 18.667 11 28 33 28c3.33301 0 22 -3.66699 56 -11
c13.333 10 30 30.667 50 62c22.667 36 34 65 34 87c0 21.333 -12 32 -36 32c-9.33301 0 -38.333 -26.667 -87 -80l-87 -98c24 42.667 56.667 88.667 98 138c54 64 95 96 123 96c40.667 0 61 -24.333 61 -73c0 -52.667 -16 -91.334 -48 -116.001
c-53.333 -41.333 -82 -64.666 -86 -69.999l19 -28c46.667 22 93.334 55.333 140.001 100c44 42 80.333 86.667 109 134l10 -6c-80.667 -122.667 -162 -204.667 -244 -246l-49 -178c-29.333 -62.667 -86.333 -94 -171 -94c-34.667 0 -57.334 3.33301 -68.001 10
c-14 9.33301 -21 30 -21 62zM-75.001 -280c49.333 0 90.667 24.001 124 72.001c22 32 42.667 78.667 62 140c-87.333 -23.333 -152.333 -74.333 -195 -153c-2 -4 -3 -9.66699 -3 -17c0.666992 -14.667 1 -22.334 1 -23.001c1.33301 -8.66699 5 -15 11 -19zM150 302.001
l-116 100h83l58 -50l59 50h80l-113 -100h-51z" />
    <glyph glyph-name="notequal" unicode="&#x106;" 
 />
    <glyph glyph-name="infinity" unicode="&#x107;" 
 />
    <glyph glyph-name="lessequal" unicode="&#x108;" 
 />
    <glyph glyph-name="greaterequal" unicode="&#x109;" 
 />
    <glyph glyph-name="partialdiff" unicode="&#x10a;" 
 />
    <glyph glyph-name="summation" unicode="&#x10b;" 
 />
    <glyph glyph-name="product" unicode="&#x10c;" 
 />
    <glyph glyph-name="pi" unicode="&#x10d;" 
 />
    <glyph glyph-name="integral" unicode="&#x10e;" 
 />
    <glyph glyph-name="Omega" unicode="&#x10f;" 
 />
    <glyph glyph-name="radical" unicode="&#x110;" 
 />
    <glyph glyph-name="approxequal" unicode="&#x111;" 
 />
    <glyph glyph-name="Delta" unicode="&#x112;" 
 />
    <glyph glyph-name="fraction" unicode="&#x113;" horiz-adv-x="178" 
d="M-90 -6l239 531h57l-238 -531h-58z" />
    <glyph glyph-name="fi" unicode="&#x114;" horiz-adv-x="283" 
d="M240 525h64v-100h-64v100zM240 390h64v-396h-64v396zM127 -6h-64v337h-60v59h60c0 90 53 135 159 135v-60l-39 2c-38 2 -57 -23.667 -57 -77h96v-59h-95v-337z" />
    <glyph glyph-name="fl" unicode="&#x115;" horiz-adv-x="283" 
d="M239 525h63v-531h-63v531zM127 -6h-64v337h-60v59h60c0 90 53 135 159 135v-59c-32 0 -55 -4.66699 -69 -14c-17.333 -11.333 -26 -32 -26 -62h95v-59h-95v-337z" />
    <glyph glyph-name="dotlessi" unicode="&#x116;" horiz-adv-x="87" 
d="M38 390h64v-396h-64v396z" />
    <glyph glyph-name="breve" unicode="&#x117;" horiz-adv-x="239" 
d="M44 509h56c10 -21.333 29.667 -32 59 -32s49 10.667 59 32h55c-14.667 -56 -52.667 -84 -114 -84c-62.667 0 -101 28 -115 84z" />
    <glyph glyph-name="dotaccent" unicode="&#x118;" horiz-adv-x="94" 
d="M46 525h64v-100h-64v100z" />
    <glyph glyph-name="ring" unicode="&#x119;" horiz-adv-x="163" 
d="M46 495c0 20 6.83301 36.833 20.5 50.5s30.5 20.5 50.5 20.5s36.667 -6.83301 50 -20.5s20 -30.5 20 -50.5s-6.66699 -36.667 -20 -50s-30 -20 -50 -20s-36.833 6.66699 -50.5 20s-20.5 30 -20.5 50zM84 496c0 -22 11 -33 33 -33c21.333 0 32 10.667 32 32
c0 22 -10.667 33 -32 33c-22 0 -33 -10.667 -33 -32z" />
    <glyph glyph-name="hungarumlaut" unicode="&#x11a;" horiz-adv-x="303" 
d="M182 466l130 94l33 -44l-131 -93zM44 466l129 94l33 -44l-132 -93z" />
    <glyph glyph-name="ogonek" unicode="&#x11b;" horiz-adv-x="144" 
d="M46 -72c0 23.333 12.667 45 38 65c8.66699 8.66699 15.667 13 21 13h57c-48.667 -27.333 -73 -50.333 -73 -69c0 -22.667 14 -34 42 -34c10 0 21.667 3.33301 35 10v-44c-14 -5.33301 -28 -8 -42 -8c-22 0 -40 5.66699 -54 17c-16 12 -24 28.667 -24 50z" />
    </font>
</defs>
</svg>
